/* XPM */
static char *_7cc51765db54fbbcc48a0d17d637738bxjUVGwNZDbC9bPn[] = {
/* columns rows colors chars-per-pixel */
"64 64 118 2 ",
"   c #020102",
".  c #0B0203",
"X  c #070609",
"o  c #08060A",
"O  c #07090A",
"+  c #0B0A0C",
"@  c #130303",
"#  c #1B0404",
"$  c #0D0A13",
"%  c #120D14",
"&  c #160F18",
"*  c #0E1214",
"=  c #161516",
"-  c #16111B",
";  c #1A121D",
":  c #13181B",
">  c #240505",
",  c #2B0505",
"<  c #340606",
"1  c #3C0607",
"2  c #3E0608",
"3  c #171221",
"4  c #1B1423",
"5  c #161E20",
"6  c #1D162A",
"7  c #231725",
"8  c #221826",
"9  c #271D2E",
"0  c #281D2E",
"q  c #2E1F31",
"w  c #301F33",
"e  c #1A2225",
"r  c #1C2528",
"t  c #1E292D",
"y  c #302033",
"u  c #3B273E",
"i  c #2B373C",
"p  c #2A393E",
"a  c #420707",
"s  c #4B0707",
"d  c #410807",
"f  c #440708",
"g  c #4C0708",
"h  c #4C0808",
"j  c #540809",
"k  c #5C0909",
"l  c #64090A",
"z  c #6B0A0B",
"x  c #730A0B",
"c  c #780A0B",
"v  c #3D2741",
"b  c #3D2841",
"n  c #314047",
"m  c #35464C",
"M  c #36484E",
"N  c #38484F",
"B  c #3B4E55",
"V  c #3F555C",
"C  c #455C64",
"Z  c #485D67",
"A  c #475F69",
"S  c #476069",
"D  c #4A646D",
"F  c #516A74",
"G  c #56727D",
"H  c #58727E",
"J  c #840C0D",
"K  c #8A0C0D",
"L  c #940D0E",
"P  c #9B0E0E",
"I  c #A30F0F",
"U  c #AB0F0F",
"Y  c #B00F0F",
"T  c #AF100F",
"R  c #AC0F10",
"E  c #B20F10",
"W  c #B51010",
"Q  c #BC1111",
"!  c #C51111",
"~  c #597580",
"^  c #597884",
"/  c #5D7C89",
"(  c #698B98",
")  c #6F92A1",
"_  c #7195A4",
"`  c #759AAA",
"'  c #789EAE",
"]  c #7DA5B6",
"[  c #80A7B9",
"{  c #84ADBE",
"}  c #8AB4C7",
"|  c #8FBBCE",
" . c #93C1D5",
".. c #98C3D7",
"X. c #97C5DA",
"o. c #98C7DC",
"O. c #99C8DC",
"+. c #ACCFDE",
"@. c #A7CFE1",
"#. c #ABD2E2",
"$. c #ADD3E3",
"%. c #B1D5E4",
"&. c #B2D6E5",
"*. c #B3D6E5",
"=. c #B8D8E7",
"-. c #C2DCE6",
";. c #C5E0EB",
":. c #C7E0EB",
">. c #C9E2EC",
",. c #CDE3EE",
"<. c #CEE4EE",
"1. c #CFE5EE",
"2. c #D3E7F0",
"3. c #E8F3F7",
"4. c #F6FBFB",
"5. c #F7FBFC",
"6. c #F9FCFC",
"7. c #FBFDFD",
/* pixels */
"b b b b b b b b b = = = b b b b b b b b b b b b b b = = = b b b b b b b b b b b b = = = b b b b b b b b b b b b b b = = = b b b ",
"b b 9 b b b b b b b = b b b 9 b b b b b b b b 0 b b b = b b b b b b 0 b b b b b b b = b b b 0 b b b b b b b b 9 b b b = b b b b ",
"b 9 9 0 0 b 9 9 b b = b b 0 9 0 9 b 9 q 9 b 9 0 0 b b = b b 0 0 b 9 9 0 0 b 0 0 v b = v b 0 0 0 9 b 9 0 0 b 0 9 9 b b = b b 0 0 ",
"9 9 6 9 0 6 9 9 0 b = b 0 9 6 0 9 0 9 9 9 6 9 9 0 0 b = b 0 0 9 9 0 6 0 0 6 9 0 0 v = v 9 0 6 9 9 9 9 9 0 6 0 9 9 9 b = b 9 9 0 ",
"0 6 6 0 0 9 6 9 9 6 = 6 9 9 9 6 0 0 6 6 0 0 6 0 0 0 6 = 6 0 0 0 0 6 6 0 0 9 6 9 9 6 = 6 0 9 0 6 9 0 6 6 9 0 6 9 0 0 6 = 6 9 9 0 ",
"6 6 0 0 6 0 9 q 6 6 = 6 6 9 0 0 0 6 6 9 0 0 6 6 0 6 6 = 6 6 0 6 6 6 9 9 6 0 9 9 6 6 = 6 6 9 0 9 0 6 6 0 9 9 6 6 0 6 6 = 6 6 0 6 ",
"6 6 6 6 6 6 0 6 6 6 = 6 6 6 0 6 6 6 6 6 0 6 6 6 6 6 6 = 6 6 6 6 6 6 6 6 6 6 9 6 6 6 = 6 6 6 0 6 6 6 6 6 9 6 6 6 6 6 6 = 6 6 6 6 ",
"6 6 6 6 6 6 6 6 6 = = = 6 6 6 6 6 6 6 6 6 6 6 6 6 6 = = = 6 6 6 6 6 6 6 6 6 6 6 6 = = = 6 6 6 6 6 6 6 6 6 6 6 6 6 6 = = = 6 6 6 ",
"= = = : = = = = = = = = = = = = = = = = = = = = = = = = + = * = * = * * = = = = = = = = = = = = = = = = = = = = = = = = = = = = ",
"v v v b = = = b b b b b b b b b b b b b b = = = u 0 % X                     X 7 u u b u b b b b b b b b b = = = b b b b b b b b ",
"b 9 b b b = b b b v v b b b 9 b b b b b b b = b ;                               X 8 u u v v q v b b b b b b = b b b b b b 9 b b ",
"9 9 q b b = b b q 9 b 9 9 9 9 9 0 b 9 0 b b = ;       @ s z x z c c c x j @         % 9 9 9 9 9 9 b 9 9 b b = b b 0 9 b 9 9 9 b ",
"9 0 0 6 b = b 6 9 9 9 9 9 9 6 q 6 9 0 0 6 u * X     , P ! ! ! ! ! ! ! ! ! P j         + 0 0 6 9 6 q 9 9 6 b = b 6 0 0 0 0 0 0 6 ",
"0 0 6 6 6 = 6 6 6 9 9 9 9 6 6 9 9 9 9 6 6 6 .     , W ! ! ! ! ! ! ! ! ! ! ! ! L #       % 6 6 9 9 9 9 6 6 6 = 6 6 6 0 6 6 0 0 0 ",
"0 6 6 6 6 = 6 6 6 6 9 6 6 6 6 6 6 9 6 6 8 3       I ! ! ! ! ! ! ! ! ! ! ! ! ! ! P .       % 6 6 6 9 6 6 6 6 = 6 6 6 6 6 6 6 6 6 ",
"6 6 6 6 = = = 6 6 6 6 6 6 6 6 6 6 6 6 6 6 O     l ! ! ! ! ! ! ! W K l j h d d f j <         4 6 6 6 6 6 6 = = = 6 6 6 6 6 6 6 6 ",
"= = = = = = = = = = = = = = = = = = = = =       I ! ! ! ! Q z >                             X = = = = = = = = = = = = = = = = = ",
"b b b b b b b b b b b b b = = = b b b b y     > E ! ! ! ! h         e i B Z F H H F M =       + b b b b b b b b b b b b = = = b ",
"b b b b 0 b b b 0 b b b b b = b b b b b 8     1 W ! ! ! P       m } o.o.O.&.<.2.,.<.:.+.C O   X y b b b b 0 b b b b b b b = b b ",
"0 0 b 0 0 0 b 0 0 9 9 9 q b = b 9 9 b 0 %     j Q ! ! ! x     r ] o.o.O.$.4.7.7.7.7.6.6.-.G     X 9 b 9 9 0 9 b q 9 9 b b = b b ",
"6 9 9 q 0 0 9 9 0 q 9 6 0 0 = 0 0 0 9 4 X     k W ! ! ! z   X V _ O.O.o.#.4.7.7.7.7.7.7.3...n     ; 9 9 9 6 9 9 9 q 6 6 b = b 6 ",
"6 6 6 6 0 0 6 6 6 6 6 6 6 6 = 3 $ + o       . z E ! ! ! z   * C F | o.o.o.@.=.&.;.2.<.>.$.o.[     o 6 6 6 6 6 6 6 6 6 6 6 = 6 6 ",
"6 6 6 6 6 6 6 6 6 6 6 6 6 = O               @ z E ! ! ! z   * D D ^ | o.o.o.o.o.o.o.o.o.o.X.' O     6 6 6 6 6 6 6 6 6 6 = = = 6 ",
"= = = = = = = = = = = = = +         .       # c T ! ! ! z   * C D D G { o.o.o.o.o.o.o. .] / D O     = = = = = = = : = = = = = = ",
"b b b b b = = = b b b b v &     # P ! Q >   > c E ! ! ! J   X B D D D D ^ ) ` _ ( / G D D D D X   o b = = = b b b b b b b b b b ",
"9 b b b b b = b b b b b v +     l ! ! Q #   < c U ! ! ! I .   * C D D D D D D D D D D D D D p     - b b = b b b b b b b b b b 0 ",
"9 9 b 9 b b = b b 0 b 0 0 o     L ! ! R @   < c I ! ! ! ! a     5 C D D D D D D D D D S M e       ; b b = b b 9 9 b 0 0 0 v 0 0 ",
"6 6 q 9 6 b = b 6 0 0 0 9 X     P ! ! R @   < c L ! ! ! ! L       e V A D D D D S C m r         X 9 6 b = b 6 9 9 0 0 6 0 0 0 6 ",
"9 9 9 6 6 6 = 6 6 6 9 0 6 O     c K L x .   < c J ! ! ! ! ! j       X * r t r : * O             4 6 6 6 = 6 6 6 9 q 6 6 6 0 0 0 ",
"9 9 6 6 6 6 = 6 6 6 6 6 6 o   . c c c l     1 c c W ! ! ! ! Q z #                   @ 1 z ,   X 6 8 6 6 = 6 6 6 6 6 6 6 6 6 6 6 ",
"6 6 6 6 6 = = = 6 6 6 6 6 X   @ c c c l .   1 c c I ! ! ! ! ! ! W K j d < < 1 j x P W ! ! s     4 6 6 = = = 6 6 6 6 6 6 6 6 6 6 ",
"= = = = = = = = = = = = = X   . c c c z .   1 c c L ! ! ! ! ! ! ! ! ! Q E W Q ! ! ! ! ! Q 1     = = = = = = = = = = = = = = = = ",
"b b b b b b v v b = = = b o   @ c c c l     1 c c J ! ! ! ! ! ! ! ! ! ! ! ! ! ! ! ! ! ! Y <     8 b b b b b b b b b = = = b b b ",
"b v 0 b b v v v b b = b b X   @ c c c l     d c c c Y ! ! ! ! ! ! ! ! ! ! ! ! ! ! ! ! ! I 1     7 b b b b b b q b b b = b b b b ",
"b 0 0 0 0 b 9 9 b b = b b X   > c c c l .   1 c c c I ! ! ! ! ! ! ! ! ! ! ! ! ! ! ! ! ! L s     & b 0 0 9 b 9 9 9 b b = b b q 9 ",
"0 0 6 0 0 6 9 9 0 b = b 0     > c c c l     1 c c c L ! ! ! ! ! ! ! ! ! ! ! ! ! ! ! ! ! J s     % 0 0 0 9 6 9 9 9 9 b = b 9 9 9 ",
"0 6 6 0 9 9 6 9 0 6 = 8 0     > c c c l     1 c c c c ! ! ! ! ! ! ! ! ! ! ! ! ! ! ! ! Q x a     % 0 6 6 9 9 6 9 q 9 6 = 6 0 0 0 ",
"6 6 0 0 6 9 9 q 6 6 = 6 6     # c c c z .   a x c c c P ! ! ! ! ! ! ! ! ! ! ! ! ! ! ! I c 1     ; 6 6 9 q 9 6 6 9 6 6 = 6 6 0 6 ",
"6 6 6 6 6 6 q 6 6 6 = 6 6     # c c c z .   f c c c c c P ! ! ! ! ! ! ! ! ! ! ! ! ! Y c c <     ; 6 6 6 9 6 6 6 6 6 6 = 6 8 6 6 ",
"6 6 6 6 6 6 6 6 8 = = = 6     # c c c x @   a c c c c c c L ! ! ! ! ! ! ! ! ! ! ! W K c x ,     3 6 6 6 6 6 6 6 6 6 = = = 6 6 6 ",
"= = = = = = = = = = = = = X   @ c c c x .   1 x c c c c c c c L I U Y Y W W Y I K c c c z #     = = = = = = = = = = = = = = = = ",
"b v b b = = = b b b b b u &     z c c x #   < c c c c c c c c c c c c c c c c c c c c c l .   o u b b b b = = = b b b b b b b b ",
"b 0 v b b = b b b b b u b 9     < c c c #   < x c c c c c c c c c c c c c c c c c c c c s     % b b b b b b = b b b b b b 0 b b ",
"0 0 9 b b = b b 0 0 b 0 0 8       < k l @   , c c c c c c c c x x c c c c c c c c c c c <     % 0 b 0 0 b b = b b 9 0 b 9 9 9 b ",
"9 0 9 6 b = b 6 9 0 0 0 9 9 $               > x c c c c c c x > @ # > , 1 f f 1 1 z c c @     ; 6 9 9 9 6 u = b 6 0 9 9 9 0 9 6 ",
"9 9 6 6 6 = 6 6 6 9 0 0 0 6 6 - X           # x c c c c c c j                 # k c c x       8 9 0 9 6 6 6 = 6 6 6 9 6 6 0 0 0 ",
"0 6 6 6 6 = 6 6 6 6 9 6 6 6 6 6 3 ; $ X     @ z c c c c c c s               j x c c c k       6 6 9 6 6 6 6 = 6 6 6 6 6 6 6 6 6 ",
"6 6 6 6 = = = 6 6 6 6 6 6 6 6 6 6 6 6 4 X     z c c c c c c s     $ 3 X   @ c c c c c k       6 6 6 6 6 6 = = = 6 6 6 6 6 6 6 6 ",
"= = = = = = = = = = = : = = = = = = = = O     l x c c c c c s     o = X   # c c c c c j     X = = = = = = = = = = = = = = = = = ",
"b b b b b b b b b b b b u = = = b b b b -     j c c c c c c s     % u %   # c c c c c k     X = b b b b b b b b b b b b = = = b ",
"b b b b 9 b b b 9 b b b b b = b b b b b ;     s c c c c c c a     ; b ;     x c c c c j     + b b b b b b 9 b b b b b b b = b b ",
"0 0 b 0 0 0 b 9 0 9 0 0 t b = b 9 0 b 9 =     < c c c c c x >     ; u 4     . < < < , .   X = b 0 0 b 0 0 0 0 b 0 9 0 b b = b b ",
"6 0 0 0 0 0 0 9 0 0 0 6 0 0 = q 9 9 9 9 ;       l x c c x a       9 9 9 O               X 4 = 9 0 0 0 0 0 6 0 0 9 0 6 6 b = b 6 ",
"6 6 6 6 0 0 6 6 6 6 6 6 8 6 = 6 6 6 6 6 4 X       @ @ @         + 8 6 6 9 ; $ $ $ + $ $ 6 6 = 6 6 6 6 6 6 6 6 6 6 6 6 6 6 = 6 6 ",
"6 6 6 6 6 6 6 6 6 6 6 6 6 = = = 6 6 6 6 6 3                   X 3 6 6 6 6 6 6 6 6 6 6 6 6 = = = 6 6 6 6 6 6 6 6 6 6 6 6 = = = 6 ",
"= = = = = = = = = = = = = = = = = = = = = = = +           X + = = = = = = = = = = = = = = = = = = = = = = = = = = = = = = = = = ",
"b b b b b = = = b b b b b b b b b b b = = = b b b b b b b b b b v v b b b = = = b b b b b b b b b b b = = = b b b b b b b b b b ",
"0 b b b b b = b b b b b b 0 0 b b b b b = b b b b b b b b b b 0 q b v b b b = b b b b b b 9 9 b b b b b = b b b b b b b b b b 0 ",
"0 0 b 0 b b = b b 9 b 0 0 0 0 0 b 9 b b = b b 9 0 b 0 0 0 b 0 0 9 9 v 9 b b = b b 9 b 9 q 9 9 0 b 0 b b = b b 0 0 b 0 0 0 b 0 0 ",
"6 6 0 0 6 b = b 6 9 9 0 0 6 6 0 9 9 6 b = b 6 q 0 0 0 6 0 0 0 6 6 6 9 9 6 b = b 6 9 0 9 9 6 6 9 0 0 6 b = b 6 0 0 0 0 6 0 0 0 6 ",
"0 0 0 6 6 6 = 6 6 6 0 0 6 6 9 0 q 6 6 6 : 6 6 6 0 0 6 6 6 0 0 0 9 9 9 6 6 6 = 6 6 6 q 9 6 6 0 0 0 6 6 6 = 6 6 6 0 0 6 6 6 0 0 0 ",
"0 9 6 6 6 6 = 6 6 6 6 6 6 6 6 6 6 6 6 6 = 8 6 6 6 6 6 6 6 6 6 6 9 q 6 8 6 6 = 6 6 6 6 6 6 6 6 6 6 6 6 6 = 6 6 6 6 6 6 6 6 6 6 6 ",
"6 6 6 6 6 = = = 6 6 6 6 6 6 6 6 6 6 6 = = = 6 6 6 6 6 6 6 6 6 6 6 6 6 6 6 = = = 6 6 6 6 6 6 6 6 6 6 6 = = = 6 6 6 6 6 6 6 6 6 6 ",
"= = = = = = = = = = = = = = = : = = = = = = = = : = = : = = = = = = = = = = = = = = = = = = = = = = = = = = = = = = = = = = = : "
};
