/* XPM */
static char *result[] = {
/* columns rows colors chars-per-pixel */
"64 64 78 1 ",
"  c black",
". c #070707",
"X c #0A070E",
"o c #0B0A0B",
"O c #0F0E0F",
"+ c gray6",
"@ c #0E0B14",
"# c #0E0B15",
"$ c #140D16",
"% c #130F1B",
"& c #130F1C",
"* c #101010",
"= c #111011",
"- c #111111",
"; c #121112",
": c gray7",
"> c #161516",
", c #171516",
"< c #161616",
"1 c #16101F",
"2 c #1A131F",
"3 c #1B131F",
"4 c #1B141F",
"5 c #171120",
"6 c #171121",
"7 c #181222",
"8 c #191222",
"9 c #181223",
"0 c #191223",
"q c #1E1420",
"w c #1F1420",
"e c #1E1724",
"r c #1F1724",
"t c #1D1529",
"y c #1D1629",
"u c #1E1629",
"i c #1D162A",
"p c #1D172A",
"a c #1E162A",
"s c #201826",
"d c #211826",
"f c #201926",
"g c #211926",
"h c #271D2E",
"j c #271E2E",
"k c #291B2B",
"l c #281D2E",
"z c #291D2E",
"x c #281E2E",
"c c #2E1E31",
"v c #332036",
"b c #332136",
"n c #342136",
"m c #3C3C3C",
"M c #3D2741",
"N c #3D2841",
"B c #3E2841",
"V c gray25",
"C c #414043",
"Z c #464347",
"A c gray31",
"S c gray32",
"D c #585858",
"F c #5A5A5A",
"G c #5B5B5B",
"H c #606060",
"J c gray43",
"K c #717171",
"L c #797979",
"P c #7C7C7C",
"I c gray51",
"U c #939393",
"Y c gray60",
"T c gray62",
"R c gray63",
"E c #A4A4A4",
"W c #A7A7A7",
"Q c gray71",
/* pixels */
"NNNNNNNNN>>>NNNNNNNNNNNNNN<>>NNNNNNNNNNNN><>NNNNNNNNNNNNNN<>>NNN",
"NNhNNNNNNN<NNNhNNNNNNNNjNNN>NNNNNNjNNNNNNN<NNNxNNNNNNNNhNNN<NNNN",
"NhhxxNhxBN<NNxxlhNhllNlxxNN>NNjxNllxxNllNN,NNxxxhNhxhNxhlNN>NNhh",
"hhyhxihllN>NxhylhxxhlyllhhN<NlhhhxyxxylllN>NhxihhhhhhixhlhN<Nhhh",
"xiilxhyhjy>ihhhylhiyhhixlxi>alxhxiyxlhyjhy>yxhlihxyyhxihhji>yllj",
"yyllixllii>iyhlxliyhxxyyliy>ayhyyihhixhhyi>yyhlhxyyxhhiilyy>yily",
"yiyyyiliyy>iiilyaaiixyyiiyi<yyiyyyyyyyhyii>yyylyyiiihyiiiiy<yyiy",
"iiaaiaaiy>>>yiiiaayiiiiiyi><>yyiyyiyiiyyi>>>yyyyutyyyyiaiy><>yyi",
"<>>>>>>>>>><>>>>><<>>>>>><><>,>><>>>><>>>>><>,>>>>>>>>>>><>>>>><",
"NNNN><<NNNNNNNNNNNNNN<><NNNNBNNNNNNN<>>NNNNNBBNNNNBNN>>>NBNNNBBN",
"NxNNN<NNBNNbbbsbbbbbbb;bbbbbbsbbbsbbb;bbbbbbbbgbbbvbbN>NNNNNNlNN",
"xhxNN>NNlhN                                          N>NNhhNlllN",
"llxiN<N6234mmmmmmmmmmmmmmmmmmmmmmmmmmmmmmmmmmmmmmmmmmkOk6xlxxxli",
"llaiy>iX   QQQQQQQQQQQQQQQQQQQQQQQQQQQQQQQQQQQQQQQQQQ   Xixyixlh",
"hyiui*#CGGGQQQQQQQQQQQQQQQQQQQQQQQQQQQQQQQQQQQQQQQQQQGGGC#1yiaay",
"yyya>o LQQQQQQQQQQQQQQQQQQQQQQQQQQQQQQQQQQQQQQQQQQQQQQQQL @iiiiy",
"<>>=.VLRQQQQQQQQQQQQQQQQQQQQQQQQQQQQQQQQQQQQQQQQQQQQQQQQRLV.-<<>",
"NBNk GQQQQQQQQQQQQQQQQQQQQQQQQQQQQQQQQQQQQQQQQQQQQQQQQQQQQG +,>N",
"BBNk GQQQJHHHHHHHHHHHHHHHHHHHHHHHHHHHHHHHHHHHHHHHHHHHHJQQQG k,NN",
"jjN4 GQQQHAAAAAAAAAAAAAAAAAAAAAAAAAAAAAAAAAAAAAAAAAAAAHQQQG k>NN",
"is mQQQKAAAAAAAAAAAAAAAAAAAAAAAAAAAAAAAAAAAAAAAAAAAAAAAAKQQQm by",
"i9 mQQQPHHHHHHHHHHHHHHHHHHHHHHHHHHHHHHHHHHHHHHHHHHHHHHHHPQQQm 0y",
"a9 mQQQQQQQQQQQQQQQQQQQQQQQQQQQQQQQQQQQQQQQQQQQQQQQQQQQQQQQQm ;i",
">; mQQQQQYUUUUUUUUUUUUUUUUUUUUUUUUUUUUUUUUUUUUUUUUUUUUYQQQQQm ;>",
"Nb mQQQQQHAAAAAAAAAAAAAAAAAAAAAAAAAAAAAAAAAAAAAAAAAAAAHQQQQQm nN",
"hb mQQQUIDAAAAAAAAAAAAAAAAAAAAAAAAAAAAAAAAAAAAAAAAAAAADIUQQQm bx",
"hd mQQQKAAAAAAAAAAAAAAAAAAAAAAAAAAAAAAAAAAAAAAAAAAAAAAAAKQQQm dl",
"y7 mQQQTUUUUUUUUUUUUUUUUUUUUUUUUUUUUUUUUUUUUUUUUUUUUUUUUTQQQm di",
"lg mQQQQQQQQQQQQQQQQQQQQQQQQQQQQQQQQQQQQQQQQQQQQQQQQQQQQQQQQm dx",
"lf mQQQQQJHHHHHHHHHHHHHHHHHHHHHHHHHHHHHHHHHHHHHHHHHHHHJQQQQQm 9i",
"y7 mQQQQQHAAAAAAAAAAAAAAAAAAAAAAAAAAAAAAAAAAAAAAAAAAAAHQQQQQm 9i",
">; mQQQKAAAAAAAAAAAAAAAAAAAAAAAAAAAAAAAAAAAAAAAAAAAAAAAAKQQQm ;>",
"Nb mQQQKAAAAAAAAAAAAAAAAAAAAAAAAAAAAAAAAAAAAAAAAAAAAAAAAKQQQm bN",
"Nn mQQQQQQQQQQQQQQQQQQQQQQQQQQQQQQQQQQQQQQQQQQQQQQQQQQQQQQQQm nB",
"Nd mQQQQQWEEEEEEEEEEEEEEEEEEEEEEEEEEEEEEEEEEEEEEEEEEEEWQQQQQm dl",
"hd mQQQQQHAAAAAAAAAAAAAAAAAAAAAAAAAAAAAAAAAAAAAAAAAAAAHQQQQQm dx",
"h9 mQQQTUFAAAAAAAAAAAAAAAAAAAAAAAAAAAAAAAAAAAAAAAAAAAAFUTQQQm gl",
"y9 mQQQKAAAAAAAAAAAAAAAAAAAAAAAAAAAAAAAAAAAAAAAAAAAAAAAAKQQQm gi",
"y9 mQQQUIIIIIIIIIIIIIIIIIIIIIIIIIIIIIIIIIIIIIIIIIIIIIIIIUQQQm 9y",
"y9 mQQQQQQQQQQQQQQQQQQQQQQQQQQQQQQQQQQQQQQQQQQQQQQQQQQQQQQQQm 8u",
">: mQQQQQPKKKKKKKKKKKKKKKKKKKKKKKKKKKKKKKKKKKKKKKKKKKKPQQQQQm ;,",
"Nb mQQQQQHAAAAAAAAAAAAAAAAAAAAAAAAAAAAAAAAAAAAAAAAAAAAHQQQQQm bB",
"Nd mQQQPHSAAAAAAAAAAAAAAAAAAAAAAAAAAAAAAAAAAAAAAAAAAAASHPQQQm bN",
"xd mQQQKAAAAAAAAAAAAAAAAAAAAAAAAAAAAAAAAAAAAAAAAAAAAAAAAKQQQm dN",
"hlh& GQQQQQQQQQQQQQQQQQQQQQQQQQQQQQQQQQQQQQQQQQQQQQQQQQQQQG 2lht",
"hhy% GQQQQQQQQQQQQQQQQQQQQQQQQQQQQQQQQQQQQQQQQQQQQQQQQQQQQG %lll",
"xyy% GQQQQQQQQQQQQQQQQQQQQQQQQQQQQQQQQQQQQQQQQQQQQQQQQQQQQG %yyy",
"iyy5.VLRQQQQQQQQQQQQQQQQQQQQQQQQQQQQQQQQQQQQQQQQQQQQQQQQRLCX5yip",
"><<<<o LQQQQQQQQQQQQQQQQQQQQQQQQQQQQQQQQQQQQQQQQQQQQQQQQL o>>><<",
"MNNNNcqZGGGQQQQQQQQQQQQQQQQQQQQQQQQQQQQQQQQQQQQQQQQQQGGGZwcN>>>N",
"NNNNhNN$   QQQQQQQQQQQQQQQQQQQQQQQQQQQQQQQQQQQQQQQQQQ   $NNNN>NN",
"hxNxxxNe424mmmmmmmmmmmmmmmmmmmmmmmmmmmmmmmmmmmmmmmmmm22krhxNN>NN",
"yhxxxxhhxxx                                          yxxhhiyN<Ny",
"iiyyhhiiiii799;77997777799977;779799gd77977797;777999iiiiiyii>ii",
"yyyiyyyiiiyyy<><yyyyyyiiyyiy<<<iyiiiaiyyiyiyy>>>yiyiyuiyiyyi>>>i",
">>>>>>>>>>>><>>>><<><<>>>>>><>>,><<<>><>>>>>>>>>,>>,<>>><><>><,>",
"NNNBN>>>BBNNNNNNNNN<>>NNNNNNNNNNNNNNN><<NNBNNNNNBNN><,NNNNNNNNBN",
"hNNNNM>NNBNNNxhNNNNN,BNNNNNNNNNlxNMNNN<NBNNNNhhNMNNN<NNNNNNNNNNl",
"llNxNN,NNlNxxhjxNlNN>NNxlNxlxNxlzlNxNN<NBhNllllxNxNN<NNlxNxxxNlx",
"iihxiN<NihhxxyihlxiN<ByhxlxilxliyillyN<NylxlxiilhhyN>Nyhjxlyxxxi",
"hxxyyy<yyyxxyyhxliiy<iiixxiiylxhhxxtii>iyilxiihxlyii>yyyxxyiillx",
"lhiyii>iaiyiiiyiiiiy<ayiaiaiiiiyxxauaa>iaiaiyayyiyai>yiyayiiiiii",
"iyyyi>><iiyyyiiiyiy<<<iiaiiiaaiiiiaai<>>atyiyyyyiii>>>iuiyiiiiii",
",<<>>>>>><<<<>><<<<<><><>>><><><><><><>>,><>,><>>>>>><<,>>>><<<>"
};
