/* XPM */
static char *_f79c8ff3f4b4042cfc57b4619ada0590v7pz4vk1GPRfYY6[] = {
/* columns rows colors chars-per-pixel */
"80 80 11 1 ",
"  c red",
". c #FF9090",
"X c #FFBFBF",
"o c #FFC0C0",
"O c white",
"+ c #FFE0E0",
"@ c #FF8080",
"# c #FECECE",
"$ c #FF3F3F",
"% c #FF3030",
"& c #FF2020",
/* pixels */
"                                                                                ",
"                                                                                ",
"                                                                                ",
"                                                                                ",
"                                                                                ",
"                                                                                ",
"                                                                                ",
"                                                                                ",
"                                                                                ",
"                                                                                ",
"                                                                                ",
"                    .XXXXXXXXXXXXXXXXXXXXXXXXXXXXXXXXXXXX                       ",
"                    oOOOOOOOOOOOOOOOOOOOOOOOOOOOOOOOOOOOO                       ",
"                    oOOOOOOOOOOOOOOOOOOOOOOOOOOOOOOOOOOOO                       ",
"                    oOOOOOOOOOOOOOOOOOOOOOOOOOOOOOOOOOOOO                       ",
"                    oOOOOOOOOOOOOOOOOOOOOOOOOOOOOOOOOOOOO                       ",
"                    oOOOOOOOOOOOOOOOOOOOOOOOOOOOOOOOOOOOO                       ",
"                    oOOOOOOOO+@@@@@@@@@@@@@@@@@@@@@@@@@@@                       ",
"                    oOOOOOOOOo                                                  ",
"                    oOOOOOOOOo                                                  ",
"                    oOOOOOOOOo                                                  ",
"                    oOOOOOOOOo                                                  ",
"                    oOOOOOOOOo                                                  ",
"                    oOOOOOOOOo                                                  ",
"                    oOOOOOOOOo                                                  ",
"                    oOOOOOOOOo                                                  ",
"                    oOOOOOOOOo                                                  ",
"                    oOOOOOOOOo                                                  ",
"                    oOOOOOOOOo                                                  ",
"                    oOOOOOOOOo                                                  ",
"                    oOOOOOOOOo                                                  ",
"                    oOOOOOOOOo                                                  ",
"                    oOOOOOOOOo                                                  ",
"                    oOOOOOOOO#$$$$$$$$$$$$$$$$$$$$$$$$$%                        ",
"                    oOOOOOOOOOOOOOOOOOOOOOOOOOOOOOOOOOOo                        ",
"                    oOOOOOOOOOOOOOOOOOOOOOOOOOOOOOOOOOOo                        ",
"                    oOOOOOOOOOOOOOOOOOOOOOOOOOOOOOOOOOOo                        ",
"                    oOOOOOOOOOOOOOOOOOOOOOOOOOOOOOOOOOOo                        ",
"                    oOOOOOOOOOOOOOOOOOOOOOOOOOOOOOOOOOOo                        ",
"                    oOOOOOOOOOOOOOOOOOOOOOOOOOOOOOOOOOOo                        ",
"                    oOOOOOOOOo                                                  ",
"                    oOOOOOOOOo                                                  ",
"                    oOOOOOOOOo                                                  ",
"                    oOOOOOOOOo                                                  ",
"                    oOOOOOOOOo                                                  ",
"                    oOOOOOOOOo                                                  ",
"                    oOOOOOOOOo                                                  ",
"                    oOOOOOOOOo                                                  ",
"                    oOOOOOOOOo                                                  ",
"                    oOOOOOOOOo                                                  ",
"                    oOOOOOOOOo                                                  ",
"                    oOOOOOOOOo                                                  ",
"                    oOOOOOOOOo                                                  ",
"                    oOOOOOOOOo                                                  ",
"                    oOOOOOOOOo                                                  ",
"                    oOOOOOOOOo                                                  ",
"                    oOOOOOOOOo                                                  ",
"                    oOOOOOOOOo                                                  ",
"                    oOOOOOOOOo                                                  ",
"                    oOOOOOOOO#$$$$$$$$$$$$$$$$$$$$$$$$$$$&                      ",
"                    oOOOOOOOOOOOOOOOOOOOOOOOOOOOOOOOOOOOO@                      ",
"                    oOOOOOOOOOOOOOOOOOOOOOOOOOOOOOOOOOOOO@                      ",
"                    oOOOOOOOOOOOOOOOOOOOOOOOOOOOOOOOOOOOO@                      ",
"                    oOOOOOOOOOOOOOOOOOOOOOOOOOOOOOOOOOOOO@                      ",
"                    oOOOOOOOOOOOOOOOOOOOOOOOOOOOOOOOOOOOO@                      ",
"                    oOOOOOOOOOOOOOOOOOOOOOOOOOOOOOOOOOOOO@                      ",
"                                                                                ",
"                                                                                ",
"                                                                                ",
"                                                                                ",
"                                                                                ",
"                                                                                ",
"                                                                                ",
"                                                                                ",
"                                                                                ",
"                                                                                ",
"                                                                                ",
"                                                                                ",
"                                                                                ",
"                                                                                "
};
