/* XPM */
static char *affd9f7faf7248b085bdb7f047114c7cF4TPzAVL49wuvHRc[] = {
/* columns rows colors chars-per-pixel */
"64 64 108 2 ",
"   c #020102",
".  c #0B0203",
"X  c #070508",
"o  c #08060B",
"O  c #07090A",
"+  c #0B0B0D",
"@  c #130303",
"#  c #1B0404",
"$  c #0D0A12",
"%  c #120D14",
"&  c #140E19",
"*  c #0E1214",
"=  c #161516",
"-  c #16111B",
";  c #1A121C",
":  c #13181B",
">  c #240505",
",  c #2B0505",
"<  c #340606",
"1  c #3C0607",
"2  c #3E0608",
"3  c #171221",
"4  c #1B1424",
"5  c #161E20",
"6  c #1D162A",
"7  c #221725",
"8  c #211826",
"9  c #271D2E",
"0  c #281D2E",
"q  c #2E1E31",
"w  c #1A2225",
"e  c #1C2528",
"r  c #1E292D",
"t  c #312135",
"y  c #3B263E",
"u  c #2B373C",
"i  c #2A393E",
"p  c #420707",
"a  c #4B0707",
"s  c #410807",
"d  c #440708",
"f  c #4C0708",
"g  c #4C0808",
"h  c #540809",
"j  c #5C0909",
"k  c #64090A",
"l  c #6B0A0B",
"z  c #730A0B",
"x  c #780A0B",
"c  c #3D2741",
"v  c #3D2841",
"b  c #314047",
"n  c #35464C",
"m  c #36484E",
"M  c #38484F",
"N  c #3B4E55",
"B  c #3F555C",
"V  c #455C64",
"C  c #485D67",
"Z  c #475F69",
"A  c #476069",
"S  c #4A646D",
"D  c #516A74",
"F  c #56727D",
"G  c #58727E",
"H  c #840C0D",
"J  c #8A0C0D",
"K  c #940D0E",
"L  c #9B0E0E",
"P  c #A30F0F",
"I  c #AB0F0F",
"U  c #B00F0F",
"Y  c #AF100F",
"T  c #AC0F10",
"R  c #B20F10",
"E  c #B51010",
"W  c #BC1111",
"Q  c #C51111",
"!  c #597580",
"~  c #597884",
"^  c #5D7C89",
"/  c #698B98",
"(  c #6F92A1",
")  c #7195A4",
"_  c #759AAA",
"`  c #789EAE",
"'  c #7DA5B6",
"]  c #80A7B9",
"[  c #84ADBE",
"{  c #8AB4C7",
"}  c #8FBBCE",
"|  c #93C1D5",
" . c #98C3D7",
".. c #97C5DA",
"X. c #98C7DC",
"o. c #99C8DC",
"O. c #ACCFDE",
"+. c #A7CFE1",
"@. c #ACD3E3",
"#. c #B2D6E5",
"$. c #B8D8E7",
"%. c #C2DCE6",
"&. c #C6E0EB",
"*. c #CDE4EE",
"=. c #D3E7F0",
"-. c #E8F3F7",
";. c #F7FBFC",
":. c #FBFDFD",
/* pixels */
"v v v v v v v v v = = = v v v v v v v v v v v v v v = = = v v v v v v v v v v v v = = = v v v v v v v v v v v v v v = = = v v v ",
"v v 9 v v v v v v v = v v v 9 v v v v v v v v 9 v v v = v v v v v v 0 v v v v v c c = v v v 0 v v v v v v v v 9 v v v = v v v v ",
"v 9 9 0 0 v 9 9 v v = v v 0 0 0 9 v 9 0 0 v 0 0 9 v v = v v 0 0 v 9 9 0 0 v 0 0 c c = c v 0 0 0 9 v 9 0 0 v 0 9 9 v v = v v 9 9 ",
"9 9 6 9 0 6 9 9 9 v = v 0 9 6 0 9 0 0 0 0 6 0 0 9 9 v = v 9 9 9 9 0 6 0 0 6 9 0 0 c = c 9 0 6 9 9 9 9 9 0 6 0 9 9 9 v = v 9 9 9 ",
"0 6 6 0 0 9 6 9 9 6 = 6 9 9 9 6 0 0 6 6 9 0 6 0 0 0 6 = 6 q 9 9 9 6 4 0 0 0 6 0 9 6 = 6 0 9 0 6 9 0 6 6 9 0 6 9 0 0 6 = 6 9 9 9 ",
"6 6 0 0 6 0 9 q 6 6 = 6 6 9 0 0 0 6 6 0 0 0 6 6 0 6 6 = 6 6 9 6 6 6 0 9 6 0 9 0 6 6 = 6 6 0 0 0 0 6 6 0 9 0 6 6 0 6 6 = 6 6 0 6 ",
"6 6 6 6 6 6 0 6 6 6 = 6 6 6 0 6 6 6 6 6 0 6 6 6 6 6 6 = 6 6 6 6 6 6 6 6 6 6 9 6 6 6 = 6 6 6 0 6 6 6 6 6 9 6 6 6 6 6 6 = 6 6 6 6 ",
"6 6 6 6 6 6 6 6 6 = = = 6 6 6 6 6 6 6 6 6 6 6 6 6 6 = = = 6 6 6 6 6 6 6 6 6 6 6 6 = = = 6 6 6 8 6 6 6 6 6 6 6 6 6 6 = = = 6 6 6 ",
"= = = : = = = = = = = = = = = = = = = = = = = = = = * = % = * = * = * = = = = = = = = = = = = = = = = = = = = = = = : = = = = = ",
"v v c v = = = v v v v v v v v v v v v v v = = + $ X                       = = v v v v v v v v v c v v v v = = = v v v v v v v v ",
"v 9 v v v = v v v v v v v v 9 v v v v v y 8 X                               ; v v v v v c c 0 y v v c v v v = v v v v v v 0 v v ",
"9 9 q v v = v v q 9 v 9 9 9 9 9 0 v 0 8 %         @ h z x z z z l l a @       ; 9 0 v 0 0 0 0 0 0 v 9 9 v v = v v 0 0 v 0 0 0 v ",
"9 0 0 6 v = v 6 9 9 9 9 9 9 6 9 6 0 0 $         h P Q Q Q Q Q Q Q Q Q L ,       4 0 0 0 0 0 6 0 6 9 9 9 6 v = v 6 0 0 0 0 0 0 6 ",
"0 0 6 6 6 = 6 6 6 9 9 9 9 6 6 9 0 0 %       # K Q Q Q Q Q Q Q Q Q Q Q Q E ,     + 0 9 0 0 6 6 0 q 9 9 6 6 6 = 6 6 6 0 6 6 0 0 9 ",
"0 6 6 6 6 = 6 6 6 6 q 6 6 6 6 6 6 &       . L Q Q Q Q Q Q Q Q Q Q Q Q Q Q P       3 9 6 6 6 6 6 6 9 6 6 6 6 = 6 6 6 6 6 6 6 6 6 ",
"6 6 6 6 = = = 6 6 6 6 6 6 6 6 6 3         < h p s s a h k J E Q Q Q Q Q Q Q k     o 6 6 6 6 6 6 6 6 6 6 6 = = = 6 6 6 6 6 6 6 6 ",
"= = = = = = = = = = = = = = = = X                             > l W Q Q Q Q P       = = = = = = = = = = = = = = = = = = = = = = ",
"v v v v v v v v v v v v v = = +       * m D G F D Z N u w         g Q Q Q Q R >     t c c = = = v v v v v v v v v v v v = = = v ",
"v v v v 0 v v v 0 v v v v v = X   O V O.&.*.*.=.*.#.o.X.X.{ n       L Q Q Q R s     9 c c v = c v v v v v 0 v v v v v v v = v v ",
"0 0 v 0 0 0 v 0 0 0 9 9 0 y       F %.:.:.:.:.:.:.;.@.X.X.X.' e     x Q Q Q R h     % 0 0 v = c 9 q v 9 9 0 9 v q 9 0 v v = v v ",
"6 9 9 q 0 0 9 9 9 9 9 6 9 ;     b  .-.:.:.:.:.:.;.;.@.X.o.o.( B X   l Q Q Q W j       ; 9 9 = 9 9 0 9 9 9 6 9 9 9 q 6 6 v = v 6 ",
"6 6 6 6 0 0 6 6 6 6 6 6 6 X     ] o.#.&.=.=.&.#.$.+.o.o.o.} D V *   l Q Q Q R l .       o + + 3 6 6 6 4 6 6 6 6 6 6 6 6 6 = 6 6 ",
"6 6 6 6 6 6 6 6 6 6 6 6 6     X ` ..X.X.X.X.o.o.X.X.o.o.} ~ S S *   l Q Q Q U z @               $ 6 6 6 6 6 6 6 6 6 6 6 = = = 6 ",
"= = = = = = = = = = = = =     O S ^ ' | X.X.X.X.o.o.o.[ F S S A *   l Q Q Q U z #                 * = = = = = = = = = = = = = = ",
"v v v v v = = = v v v v v +   X S S S S F ^ / ( _ ( ^ S S S S N     H Q Q Q Y x >   > W Q L #     & v = = = v v v v v v v v v v ",
"9 v v v v v = v v v v v y $     i S S S S S S S S S S S S S V *   . P Q Q Q Y x <   # W Q Q k     = v v = v v v v v v v v v v 0 ",
"9 9 v 9 v v = v v 0 v 0 9 4       w m A S S S S S S S S S A :     s Q Q Q Q L x <   @ R Q Q K     X v v = v v 9 9 v 9 0 9 v 0 0 ",
"6 6 q 9 6 v = v 6 0 0 0 9 4 X         e n V A S S S S A N e       K Q Q Q Q K x <   @ T Q Q L     + 6 v = v 6 0 9 9 0 6 9 9 q 6 ",
"9 9 9 6 6 6 = 6 6 6 0 0 6 6 4             + * : e r e * X       h Q Q Q Q Q H z <     z K J x     X 6 6 = 6 6 6 0 0 6 6 6 0 9 0 ",
"9 9 6 6 6 6 = 6 6 6 6 6 6 6 6 X   , l < @                   # k Q Q Q Q Q W x x 1     l x x x .   o 6 6 = 6 6 6 6 6 6 6 6 6 6 6 ",
"6 6 6 6 6 = = = 6 6 6 6 6 6 4     g Q Q E L z j 1 < < 2 h J W Q Q Q Q Q Q P x x 2   . k x x x @   X 6 = = = 6 6 6 6 6 6 6 6 6 6 ",
"= = = = = = = = = = = = = = =     2 W Q Q Q Q Q E E E W Q Q Q Q Q Q Q Q Q K x x 2   . l x x x .   X = = = = = = = = = = = = = = ",
"v v v v v v v v v = = = v v 8     < R Q Q Q Q Q Q Q Q Q Q Q Q Q Q Q Q Q Q H x x 1     l x x z @   X v v v v v v v v = = = v v v ",
"v v 0 v v v v v v v = v v v ;     < I Q Q Q Q Q Q Q Q Q Q Q Q Q Q Q Q Q E x x x 2     k x x x @   . v v v v v 0 v v v = v v v v ",
"v 0 0 0 0 v 9 0 v v = v v q %     p K Q Q Q Q Q Q Q Q Q Q Q Q Q Q Q Q Q P x x x s     k z x x >   X q 9 0 v 9 0 0 v v = v v 0 0 ",
"0 0 6 0 0 6 9 9 9 v = v 9 9 $     f J Q Q Q Q Q Q Q Q Q Q Q Q Q Q Q Q Q K x x x 2     k x x x ,     9 9 9 6 0 9 0 0 v = v 0 0 0 ",
"0 6 6 0 q 9 6 9 0 6 = 6 0 9 %     s x W Q Q Q Q Q Q Q Q Q Q Q Q Q Q Q Q x x x x 1     k x x x >     6 6 9 9 6 9 0 0 6 = 8 0 0 0 ",
"6 6 0 0 6 9 9 9 6 6 = 6 6 0 ;     2 x L Q Q Q Q Q Q Q Q Q Q Q Q Q Q Q L x x x x 2   . l x x x #     6 q 9 9 6 6 0 6 6 - 6 6 0 6 ",
"6 6 6 6 6 6 q 6 6 8 = 6 6 6 4     < x x U Q Q Q Q Q Q Q Q Q Q Q Q Q L x x x x x d   . l x x x #     6 6 9 6 6 6 6 6 8 : 6 6 6 6 ",
"6 6 6 6 6 6 6 6 6 = = = 6 6 3     , x x J W Q Q Q Q Q Q Q Q Q Q Q K x x x x x x p   @ z x x x #     6 6 6 6 6 6 6 8 = = : 6 8 6 ",
"= = = = = = = = = = = = = = =     # l x x x J P U W R R U I L J x x x x x x x x 1   @ z x x x @   . = = = = = = = = = : = = = = ",
"v c v v = = = v v v v v v v c o   . k x x x x z x x x x x x x x x x x x x x x x <   @ z x x l     ; v v v = = = v v v v c v v v ",
"v 0 c v v = v v v v v v v v 0 =     a x x x x x x x x x x x x x z x x x x x x x <   # z x x <     8 v v v v = v v v v v c 0 v v ",
"0 0 0 v v = v v 0 9 v 0 0 0 0 %     < z x x x x x x x x x z z x x x x x x x x x ,   . k j <     X t 0 0 v v = v v q 9 v 9 0 9 v ",
"9 0 9 6 v = v 6 9 9 0 0 9 9 6 ;     @ x x l 2 2 s p s , > @ @ > z x x x x x x x >               $ 9 9 9 6 y = y 6 9 9 9 9 0 9 6 ",
"9 9 6 6 6 = 6 6 6 9 0 0 9 6 6 8       l x x j #                 h x x x x x x x @           X & 9 9 9 6 6 6 = 6 6 6 9 6 6 0 0 0 ",
"0 6 6 6 6 = 6 6 6 6 9 6 6 6 6 6       j x x z z h .             a x x x x x x l @     X + & 3 6 6 9 6 6 6 6 = 6 6 6 6 6 6 6 6 6 ",
"6 6 6 6 = = = 6 6 6 6 6 6 6 6 6       j x x x x z @   X 3 $     a x x x x x x l .     6 6 6 6 6 6 6 6 6 6 = = = 6 6 6 6 6 6 6 6 ",
"= = = = = = = = = = = : = = = =       h x x x x x #     = O     f x x x x x x j     X = = = = = = = = = : = = = = = = = = = = = ",
"v v v v v v v v v v v v y = = = =     j x x x x x @   % = X     f x x x x x x j     - v v = = = y y v v v v y v v v v v = = = v ",
"v v v v 0 v y y 0 v v v v v = v 8     h x z x z z     ; v +     p x x x x x x f     ; v v v = v v v v v v 0 v v v v v v v = v v ",
"0 0 v 0 0 0 v 9 0 0 0 0 0 v = v 8 X   . , 1 1 < .     t v +     > x x x x x z <     - 9 q v = c 0 0 v 0 0 0 0 v 0 0 0 v v = v v ",
"6 0 0 0 0 0 9 9 0 0 0 6 0 0 = 0 0 4 X               o 6 c =       p z z x x k .     ; 6 0 0 = 0 0 0 0 0 0 6 0 0 0 0 6 6 v = v 6 ",
"6 6 6 6 0 0 6 6 6 6 6 6 6 6 : 6 6 6 4 $ $ $ $ $ $ & 6 6 6 = o       . @ @ .         4 6 6 6 = 6 6 6 6 6 6 6 6 6 6 6 6 6 6 = 6 6 ",
"6 6 6 6 6 6 6 6 6 6 6 6 8 = = = 6 6 6 6 6 6 6 6 6 6 6 6 = = = X                   3 6 6 6 = = = 6 6 6 6 6 6 6 6 6 6 6 6 = = = 6 ",
"= = = = : = = = = = = = : = = = = = = = = = = = = = = = = = = % + X           + = = = = = = = = = = = = = = = = = = = = = = = = ",
"v v v v v = = = v v v v v v v v v v v = = = v v v v v v v v v v v v v v v = = = v v v v v v v v v v v = = = v v v v v v v v v v ",
"0 v v v v v = v v v v v v 0 0 v v v v v = v v v v v v v v v v 0 9 v c c v v = v v v v v v 0 9 v v v v v = v v v v v v v v v v 0 ",
"0 0 v 0 v v = v v 0 v 0 0 0 0 0 v 0 v v = v v 0 9 v 0 0 0 v 0 0 0 0 v 0 v v = v v 9 v 0 0 0 0 0 v 0 v v = v v 0 0 v 0 0 0 v 0 0 ",
"6 6 0 0 6 v : v 8 0 0 0 0 6 6 0 0 9 6 v = v 6 0 0 0 0 6 0 0 0 6 6 6 0 0 6 v = v 6 0 0 9 0 6 6 0 9 0 6 v = v 6 9 0 0 0 6 0 0 0 6 ",
"0 0 0 6 6 6 = 6 6 6 0 0 6 6 0 0 0 6 6 6 : 6 6 6 0 0 6 6 6 0 0 9 9 9 q 6 6 6 = 6 6 6 q 9 6 6 9 q 0 6 6 6 = 6 6 6 0 0 6 6 6 0 0 0 ",
"0 9 6 6 6 6 = 6 8 6 6 6 6 6 6 6 6 6 6 6 = 8 6 6 6 6 6 6 6 6 6 6 9 9 6 8 6 6 = 6 6 6 6 6 6 6 6 6 6 6 6 6 = 6 6 6 6 6 6 6 6 6 6 6 ",
"6 6 6 6 6 = = = 6 6 4 6 4 6 6 6 6 6 6 = = = 6 6 8 6 6 6 6 6 6 6 6 6 6 6 6 = = = 6 6 6 6 6 6 6 6 6 6 6 = = = 6 8 6 6 6 6 6 6 6 6 ",
"= = = = = = = = = = = : = = = : = = = = = ; = = : = = : = = = = = = = = = = = = = = = = = = = = = : = = = = = = = : = = = = = = "
};
