/* XPM */
static char *_b1af0cf90be401bcdcdf55dcbf85f35fqXJpg1YtQs4CQFJ[] = {
/* columns rows colors chars-per-pixel */
"32 32 4 1 ",
"  c #2F2E2F",
". c #564064",
"X c #3E2F5A",
"o c #39314B",
/* pixels */
"                                ",
" ...............   ...........  ",
"..........XX..... ......XX..... ",
"..XX.XXX.XXXX.X.. ..X.XXXXX.X.. ",
".oXXXXoXXXoooXXo. .oXXXXooXXXo. ",
"oooXXoooXXXXXXooo oooXXooXXXooo ",
"oooooooooooXXoooo ooooooooooooo ",
" ooooooooooooooo   ooooooooooo  ",
"                                ",
".....   ............   .........",
"..X... ......X....... ...X......",
".XXX.. ..XX.XXXX.XX.. ..XXXX.XXX",
"oXXXX. .XXXXXoXXoXXX. .XXoXXXXXX",
"XoXXXo oXXXXooXXXoXXo oXXXoXXooX",
"XooXoo ooXoooXXoXXXoo ooXXXXooXX",
"oooooo ooooooooooXooo oooXoooooX",
"ooooo   oooooooooooo   ooooooooo",
"                                ",
"   ............   ..............",
". ......X...X... ........X......",
". ..XX.XXX.XXX.. ..XX.XXXXX..XX.",
". .oXXXXXXoXXXo. .oXXXXXXoXXXXXo",
"o oooXooXXXXXooo oooXXXXooXXXXoo",
"o oooooooooXoooo ooooXooooooXooo",
"   oooooooooooo   oooooooooooooo",
"                                ",
".......   ..............   .....",
"X....... ......X...X..... ......",
"XX.XXX.. ..XX.XXX.XXXXXX. .XX.XX",
"oXXXXoo. .ooXXXXXXXXXXoXX XXXXXX",
"oooooooo ooooooXXoooooooo oooooo",
"ooooooo   oooooooooooooo   ooooo"
};
