/* XPM */
static char *d3d409bebba74eacf1607e77c5476b14NOdRLiKX3dpU7wMa[] = {
/* columns rows colors chars-per-pixel */
"64 64 20 1 ",
"  c #3D2841",
". c #161516",
"X c #161616",
"o c #271D2E",
"O c #271E2E",
"+ c #281E2E",
"@ c #3E2841",
"# c #281D2E",
"$ c #171516",
"% c #1D1629",
"& c #1D162A",
"* c #1E162A",
"= c #1E1629",
"- c #1D1529",
"; c #3D2741",
": c #3D2840",
"> c #171616",
", c #291D2E",
"< c #3D2941",
"1 c #1D172A",
/* pixels */
"         ...              X..            .X.              X..   ",
"  o       X   o        O   .      O       X   +        o   X    ",
" oo++ o+@ X  ++#o o## #++  .  O+ ##++ ##  $  +++o o+o +o#  .  oo",
"oo%o+&o## . +o%#o++o#%##oo X #ooo+%++%### . o+&oooooo&+o#o X ooo",
"+&&#+o%oO%.&ooo%#o&%oo&+#+&.*#+o+&%+#o%Oo%.%+o#&o+%%o+&ooO&.%##O",
"%%##&+##&&.&%o#+#&%o++%%#&%.*%o%%&oo&+oo%&.%%o#o+%%+oo&&#%%.%&#%",
"%&%%%&#&%%.&&&#%**&&+%%&&%&X%%&%%%%%%%o%&&.%%%#%%&&&o%&&&&%X%%&%",
"&&**&**&%...%&&&**%&&&&&%&.X.%%&%%&%&&%%&...%%%%=-%%%%&*&%.X.%%&",
"X..........X.....XX......X.X.$..X....X.....X.$...........X.....X",
"    .XX              X.X    @       X..     @@    @  ... @   @@ ",
" +   X  @     o       .      o   o   .        +   ;   .      #  ",
"+o+  .  #o o##o++ o#  X  o+ o++ ##o  .  o# #####+ oo  .  oo ### ",
"##+& X &o#+###&+%+++* X &#++#++%+++& X %o++###*#&+++& . &+#+++#&",
"##*&%.&&&#+##-%oooo%&&X*%&#&&+##oo%%&X&%%oo++&%###+&%&.%&&+%&+#o",
"o%&=&.&*&%#&%&&&%+&%*&.-%&&&&*&%+&&&&.&&**#%%&&%&#&&&%.&%&&%&**%",
"%%%*...&&%&&%&&&&%&%&...%&%&&%%&&&&&...%&%%%%%*-%&&%%...%%%&&&&%",
"X...XX..X...XX..X..X.$..............X.....XXX....X....X..$.XXXX.",
" @   @       ..X       @ @  X.X @      @    @.$.        @  :>$. ",
"@@  ,@  # @@@ .@    @o@@@    X@@@@  +  @#     $@     +  @@   $  ",
"OO +oo +##o## X #+ +Ooo ooo  X  +o o+o o+ooo+ . O# oo+O<#oO  .  ",
"&ooo+oooOo+%ooX##+o+o%o+oo%& . %&o+O#oOoo+o%oo.o#++Oo%o##o%% X %",
"&&&&++&&&&&&&&.&&&&&&&&&&&&&&X%&&&%%#o&&&&&&&&.&*&&%&&%&&*&&&.*%",
"*&*&%&*%&&&&&...&&&%%%%%%%%%.X.%&%%%&&%%&&&&&X..&&&%%%&&&&&*...&",
"...X....X.XX.XXXXXX..X$.XX..X.X.....$.....$.X...$..X.....X......",
"   @ XX.           .XX               $..  @        XXX        @ ",
"o     X      +#  @  $    @  @  #+     .@@@   +o @@ @X        @ +",
"o#@#  .@ + +##++@#@@$@@+#@###@+#++ +  X @+ o++o#@o  .  o+ #+#@##",
"%%##& . %###o&%###& $ &+###%###%%%##&@. %####&&##+%@. &o###&###&",
"#+#*%&.%%%##%&###&&&X&&&+#&&*##++##*&&.&**##*%+#+&&&.&&*+#*&%+#+",
"#O%%%%.&%&&%&%&%&%%%X&%&%&&%*%&&##&&&&X&%&&%%%&&**&&.&&&%%%*&%&&",
"%%%%%...%&%%&&%&%%&...%&&%&&&%%%&%&&%..X%&&&%&%%%%%..X%%%%%&%&&&",
"..XX.X.XXXX.>XX..XXX.XXX..$.X....XXX.X.X.XXXXXX...X....XXX.X.X..",
"         .X.@        @    .XX@@          .X$           @  .X.   ",
" @#@@@ @  X   + @@;@@  o  @$@@@@@@#@@@@  @. @@+    @@@ #  @$  @@",
" ##+#@#+@@X  +o+# ##o ###  X @##@#+## ##  $  #### +#+ o++ @.@@##",
"o#*+o%#o# . #o&oO+++#&###+ X o++#o%#+&#oO .@##%##+##o&#++O X ##+",
"o&%#+#%##%X*+o#&#o&&#o&###&X&o+++%&++#&+#&.&+#+&o+&&#+%++o&X&++#",
"%&+#%###&&.*&+###&&++#&&+%%.%&+&&&++%##O&%.%%O++o&&##o%%o%%.%%+&",
"%&%%%*#%%&.*&&+*&&&*#*%&%%%.%%&%&&%&&%#*&&$%&&#%&&*&+%&%**&X&*&%",
"%&&***%&*X$$&%%&&*&*&*&&*&XXX*&**&&&&&&%%.$X&&=***&&&&%&%*..X===",
".XXX....$..X.X.X.$...XX.$.XXX$.XXXX..X...X.X...$...X..X.X.X..X.$",
"    XX.              $.X     @     @.XX    @   @     X..       @",
" #   X   @    +       .   @  o   #  @X     @  #       .@     #  ",
"+#O  .  +# +oo#o+ ##  .  +o +o+ o#+  X  ## ++##++ #+  .  +O o## ",
"o#o& X &o++++o&o%+##% . %o+#+o+&###* X %#o+o++%#&ooo% . &#+oo#o-",
"oo%%&.%%&o+++&%oo+#%%&X&%%+&&oo+oo&&&.%%&#ooo%&oo+o%%%.&%%o&%###",
"+%%%%.%%&%o&&%%&&+%%%&.%&&1&%%%&+%&&%.%%&&o%%%%%&o%%&&.%%%%%%%%%",
"&%%%X.X%%%&&%&%%%%%&&X..%%&%%&%%%&%&XXX%&&&%%&&&&%&%%XX.%&%%%%&1",
".XXXX.XXXXXXXXXXX...$X...$X.XXXX...XXXX.X....XXXX>XX....$$....XX",
";            .XX         @  X.X @            .X.      @ @@  ... ",
"    o   o     X      o       $     ;O   #     X      O       .  ",
"o+ +++ o+o+++ X o+ #+++ o++  .  oo +o# #++o## X Oo oooo +o+  .  ",
"%o++++oo+++&o+Xo+oooo%++++%% . %%o+o+++oo+o%##X+o+o+o%++oo&% X %",
"&&%%oo&&&&&%&&.%%&&%%%%%&&&%%.%%&%&&+#%%&%%%&%.%%%&&&&&&&&%&&.&&",
"%%%&%%%&&&%%%X.X%%%%%%&&%%&%XXX&%&&&*&%%&%&%%...%&%&%=&%&%%&...&",
"............X....XX.XX......X..$.XXX..X.........$..$X...X.X..X$.",
"   @ ...@@         X..               .XX  @     @  .X$        @ ",
"o    ;.  @   +o     $@         #+ ;   X @    oo ;   X          #",
"## +  $  # ++oO+ #  .  +# +#+ +#,# +  X @o ####+ +  X  #+ +++ #+",
"&&o+& X &oo++%&o#+& X@%o+#+&#+#&%&##% X %#+#+&&#oo% . %oO+#%+++&",
"o++%%%X%%%++%%o+#&&%X&&&++&&%#+oo++-&&.&%&#+&&o+#%&&.%%%++%&&##+",
"#o&%&&.&*&%&&&%&&&&%X*%&*&*&&&&%++*=**.&*&*&%*%%&%*&.%&%*%&&&&&&",
"&%%%&..X&&%%%&&&%&%XXX&&*&&&**&&&&**&X..*-%&%%%%&&&...&=&%&&&&&&",
"$XX......XXXX..XXXXX.X.X...X.X.X.X.X.X..$.X.$.X......XX$....XXX."
};
