/* XPM */
static char *_0b25d4f46b74835e7625697cbb6a5dfN5vg5tCZPJkCr2HX[] = {
/* columns rows colors chars-per-pixel */
"45 45 4 1 ",
"  c #162527",
". c #0F1A1B",
"X c #1D2E30",
"o c #243A3C",
/* pixels */
"     . X X   .   . . .       .   . . .       ",
"     . X X   .   . . .       .   . . .       ",
"XXXXX.XXXXXXX.XXXXXXX.XXXXXXX.XXXXXXX.       ",
"XXXXX XXXXXXX XXXXXXX XXXXXXX XXXXXXX.       ",
"XXXXX XXXXXXX XXXXXXX XXXXXXX XXXXXXX.       ",
"XXXXX XXXXXXX XXXXXXX XXXXXXX XXXXXXX.       ",
"XXXXX ooooooo XXXXXXX ooooooo XXXXXXX.XXXXXXX",
".                                  ..........",
"XXXXo ooooooo XXXXXXX oooooooXooooooo.XXXXXXX",
"XXXXo ooooooo ooooooo oooooooXooooooo.XXXXXXX",
"XXXXo oooooooXoooooooXoooooooXooooooo XXXXXXX",
"XXXXo oooooooXoooooooXoooooooXooooooo XXXXXXX",
"XXXXo oooooooXoooooooXoooooooXooooooo XXXXXXX",
"XXXXo oooooooXoooooooXoooooooXooooooo XXXXXXX",
"XXXXo oooooooXoooooooXoooooooXooooooo XXXXXXX",
".     XXXXXXXXXXXXXXXXXXXXXXXXXXXXXXX      ..",
"XXXXX oooooooXoooooooXoooooooXooooooo oXXXXXX",
"XXXXX oooooooXoooooooXoooooooXooooooo oXXXXXX",
"XXXXX oooooooXoooooooXoooooooXooooooo oXXXXXX",
"XXXXX oooooooXoooooooXoooooooXooooooo oXXXXXX",
"XXXXX oooooooXoooooooXoooooooXooooooo oXXXXXX",
"XXXXX oooooooXoooooooXoooooooXooooooo.oXXXXXX",
"XXXXX oooooooXoooooooXoooooooXooooooo.oXXXXXX",
".      XXXXXXXXXXXXXXXXXXXXXXXXXXXXX .     ..",
"XXXXo oooooooXoooooooXoooooooXooooooo.XXXXXXX",
"XXXXo oooooooXoooooooXoooooooXooooooo XXXXXXX",
"XXXXo oooooooXoooooooXoooooooXooooooo XXXXXXX",
"XXXXo oooooooXoooooooXoooooooXooooooo XXXXXXX",
"XXXXo oooooooXoooooooXoooooooXooooooo XXXXXXX",
"XXXXo oooooooXoooooooXoooooooXooooooo XXXXXXX",
"XXXXo oooooooXoooooooXoooooooXooooooo XXXXXXX",
".     XXXXXXXXXXXXXXXXXXXXXXXXXXXXXXX      ..",
"XXXXX oooooooXoooooooXoooooooXooooooo oXXXXXX",
"XXXXX oooooooXoooooooXoooooooXooooooo oXXXXXX",
"XXXXX oooooooXoooooooXoooooooXooooooo oXXXXXX",
"XXXXX oooooooXoooooooXoooooooXooooooo oXXXXXX",
"XXXXX oooooooXoooooooXoooooooXooooooo oXXXXXX",
"XXXXX oooooooXoooooooXoooooooXooooooo.oXXXXXX",
"XXXXX oooooooXoooooooXoooooooXooooooo.oXXXXXX",
".      XXXXXXXXXXXXXXXXXXXXXXXXXXXXX .     ..",
"XXXXo oooooooXoooooooXoooooooXooooooo.XXXXXXX",
"XXXXo oooooooXoooooooXoooooooXooooooo XXXXXXX",
"XXXXo oooooooXoooooooXoooooooXooooooo XXXXXXX",
"    X.XXXXXXX XXXXXXX XXXXXXX XXXXXXX.       ",
"    X.XXXXXXX XXXXXXX XXXXXXX XXXXXXX.       "
};
