/* XPM */
static char *_983af99396d4055b4f7662c79d528eeK2Qv8DPlJAByCwVc[] = {
/* columns rows colors chars-per-pixel */
"64 64 4 1 ",
"  c #85578E",
". c #2F2E2F",
"X c #564064",
"o c #3E2F5A",
/* pixels */
"         ...              ...            ...              ...   ",
"  X       .   X        X   .      X       .   X        X   .    ",
" XXXX XX  .  XXXX XXX XXX  .  XX XXXX XX  .  XXXX XXX XXX  .  XX",
"XXoXXoXXX . XXoXXXXXXoXXXX . XXXXXoXXoXXX . XXoXXXXXXoXXXX . XXX",
"XooXXXoXXo.oXXXoXXooXXoXXXo.oXXXXooXXXoXXo.oXXXoXXooXXoXXXo.oXXX",
"ooXXoXXXoo.ooXXXXooXXXooXoo.ooXoooXXoXXXoo.ooXXXXooXXXooXoo.ooXo",
"ooooooXooo.oooXoooooXoooooo.ooooooooooXooo.oooXoooooXoooooo.oooo",
"ooooooooo...oooooooooooooo...oooooooooooo...oooooooooooooo...ooo",
"................................................................",
"    ...              ...            ...              ...        ",
" X   .        X       .      X   X   .        X       .      X  ",
"XXX  .  XX XXXXXX XX  .  XX XXX XXX  .  XX XXXXXX XX  .  XX XXX ",
"XXXo . oXXXXXXoXoXXXo . oXXXXXXoXXXo . oXXXXXXoXoXXXo . oXXXXXXo",
"XXooo.oooXXXXooXXXXooo.oooXooXXXXXooo.oooXXXXooXXXXooo.oooXooXXX",
"Xoooo.ooooXooooooXoooo.oooooooooXoooo.ooooXooooooXoooo.ooooooooo",
"oooo...oooooooooooooo...oooooooooooo...oooooooooooooo...oooooooo",
"................................................................",
"             ...            ...              ...            ... ",
"    X   X     .      X       .      X   X     .      X       .  ",
"XX XXX XXXXXX . XX XXXX XXX  .  XX XXX XXXXXX . XX XXXX XXX  .  ",
"oXXXXXXXXXXoXX.XXXXXXoXXXXoo . ooXXXXXXXXXXoXX.XXXXXXoXXXXoo . o",
"ooooXXoooooooo.oooooooooooooo.ooooooXXoooooooo.oooooooooooooo.oo",
"ooooooooooooo...oooooooooooo...oooooooooooooo...oooooooooooo...o",
"................................................................",
"     ...           ...               ...           ...          ",
"X     .      XX     .          XX     .      XX     .          X",
"XX X  .  X XXXXX X  .  XX XXX XXXX X  .  X XXXXX X  .  XX XXX XX",
"ooXXo . oXXXXooXXXo . oXXXXoXXXoooXXo . oXXXXooXXXo . oXXXXoXXXo",
"XXXooo.oooXXooXXXooo.oooXXoooXXXXXXooo.oooXXooXXXooo.oooXXoooXXX",
"XXoooo.ooooooooooooo.oooooooooooXXoooo.ooooooooooooo.ooooooooooo",
"ooooo...ooooooooooo...ooooooooooooooo...ooooooooooo...oooooooooo",
"................................................................",
"         ...              ...            ...              ...   ",
"  X       .   X        X   .      X       .   X        X   .    ",
" XXXX XX  .  XXXX XXX XXX  .  XX XXXX XX  .  XXXX XXX XXX  .  XX",
"XXoXXoXXX . XXoXXXXXXoXXXX . XXXXXoXXoXXX . XXoXXXXXXoXXXX . XXX",
"XooXXXoXXo.oXXXoXXooXXoXXXo.oXXXXooXXXoXXo.oXXXoXXooXXoXXXo.oXXX",
"ooXXoXXXoo.ooXXXXooXXXooXoo.ooXoooXXoXXXoo.ooXXXXooXXXooXoo.ooXo",
"ooooooXooo.oooXoooooXoooooo.ooooooooooXooo.oooXoooooXoooooo.oooo",
"ooooooooo...oooooooooooooo...oooooooooooo...oooooooooooooo...ooo",
"................................................................",
"    ...              ...            ...              ...        ",
" X   .        X       .      X   X   .        X       .      X  ",
"XXX  .  XX XXXXXX XX  .  XX XXX XXX  .  XX XXXXXX XX  .  XX XXX ",
"XXXo . oXXXXXXoXoXXXo . oXXXXXXoXXXo . oXXXXXXoXoXXXo . oXXXXXXo",
"XXooo.oooXXXXooXXXXooo.oooXooXXXXXooo.oooXXXXooXXXXooo.oooXooXXX",
"Xoooo.ooooXooooooXoooo.oooooooooXoooo.ooooXooooooXoooo.ooooooooo",
"oooo...oooooooooooooo...oooooooooooo...oooooooooooooo...oooooooo",
"................................................................",
"             ...            ...              ...            ... ",
"    X   X     .      X       .      X   X     .      X       .  ",
"XX XXX XXXXXX . XX XXXX XXX  .  XX XXX XXXXXX . XX XXXX XXX  .  ",
"oXXXXXXXXXXoXX.XXXXXXoXXXXoo . ooXXXXXXXXXXoXX.XXXXXXoXXXXoo . o",
"ooooXXoooooooo.oooooooooooooo.ooooooXXoooooooo.oooooooooooooo.oo",
"ooooooooooooo...oooooooooooo...oooooooooooooo...oooooooooooo...o",
"................................................................",
"     ...           ...               ...           ...          ",
"X     .      XX     .          XX     .      XX     .          X",
"XX X  .  X XXXXX X  .  XX XXX XXXX X  .  X XXXXX X  .  XX XXX XX",
"ooXXo . oXXXXooXXXo . oXXXXoXXXoooXXo . oXXXXooXXXo . oXXXXoXXXo",
"XXXooo.oooXXooXXXooo.oooXXoooXXXXXXooo.oooXXooXXXooo.oooXXoooXXX",
"XXoooo.ooooooooooooo.oooooooooooXXoooo.ooooooooooooo.ooooooooooo",
"ooooo...ooooooooooo...ooooooooooooooo...ooooooooooo...oooooooooo",
"................................................................"
};
