/* XPM */
static char *result[] = {
/* columns rows colors chars-per-pixel */
"64 64 176 2 ",
"   c #030303",
".  c #070A0A",
"X  c #0C0D0C",
"o  c #080806",
"O  c #13130F",
"+  c #0C1414",
"@  c #0F1D1D",
"#  c #161516",
"$  c #1A1A16",
"%  c #1C1B1A",
"&  c #101D1C",
"*  c #201F1D",
"=  c #26261D",
"-  c #1D162A",
";  c #261D2E",
":  c #281E2E",
">  c #251E30",
",  c #152B2B",
"<  c #1C3737",
"1  c #242423",
"2  c #2C2B25",
"3  c #2B2B2A",
"4  c #282723",
"5  c #302F29",
"6  c #35342C",
"7  c #262030",
"8  c #2B2231",
"9  c #2E2836",
"0  c #312634",
"q  c #342A36",
"w  c #352D39",
"e  c #382E3A",
"r  c #343434",
"t  c #3D3C32",
"y  c #36303C",
"u  c #3B343D",
"i  c #40373F",
"p  c #434335",
"a  c #454339",
"s  c #4B4B3E",
"d  c #49473A",
"f  c #3D2741",
"g  c #3D2841",
"h  c #3E3840",
"j  c #412D44",
"k  c #453147",
"l  c #433C43",
"z  c #463248",
"x  c #4A364A",
"c  c #4D3A4D",
"v  c #523F50",
"b  c #244949",
"n  c #224444",
"m  c #2D5959",
"M  c #285252",
"N  c #316363",
"B  c #444145",
"V  c #494147",
"C  c #4D4549",
"Z  c #4E4A4C",
"A  c #504E42",
"S  c #51494C",
"D  c #535242",
"F  c #5A5A49",
"G  c #554252",
"H  c #584655",
"J  c #5C4957",
"K  c #5F4E5A",
"L  c #565455",
"P  c #5C5453",
"I  c #5E5957",
"U  c #5E5D5C",
"Y  c #605F4D",
"T  c #615A57",
"R  c #64535E",
"E  c #625E5A",
"W  c #62614D",
"Q  c #656352",
"!  c #696954",
"~  c #6D6C5A",
"^  c #69645B",
"/  c #726E5F",
"(  c #74735B",
")  c #79795E",
"_  c #6C5C63",
"`  c #467777",
"'  c #646464",
"]  c #6E6761",
"[  c #6F6B63",
"{  c gray42",
"}  c #716166",
"|  c #726C64",
" . c #75666A",
".. c #7B6D6E",
"X. c #757162",
"o. c #7C7C64",
"O. c #7B766B",
"+. c #7F796D",
"@. c #787367",
"#. c #767676",
"$. c #7F7171",
"%. c gray49",
"&. c #F62679",
"*. c #847F6F",
"=. c #827573",
"-. c #837C73",
";. c #897C79",
":. c #887D75",
">. c #50A350",
",. c #65A865",
"<. c #828265",
"1. c #88876A",
"2. c #89886B",
"3. c #82806B",
"4. c #8A8576",
"5. c #918E78",
"6. c #949474",
"7. c #94927D",
"8. c #9B9A78",
"9. c #A09F7D",
"0. c #E3719F",
"q. c #468C8C",
"w. c #458383",
"e. c #518787",
"r. c #4E9C9C",
"t. c #499292",
"y. c #57AFAF",
"u. c #51A3A3",
"i. c #5DBABA",
"p. c #58B0B0",
"a. c #60BFBF",
"s. c #74B4B4",
"d. c #7F99CC",
"f. c #6789CC",
"g. c #62C4C4",
"h. c #66CCCC",
"j. c #6BCECE",
"k. c #73C0C0",
"l. c #78D2D2",
"z. c gray51",
"x. c #8F8F8F",
"c. c #958981",
"v. c #998F83",
"b. c #93898D",
"n. c #9D9486",
"m. c #9E9A83",
"M. c #9F9588",
"N. c #909090",
"B. c #9B9B9B",
"V. c #A39B8A",
"C. c #91AE91",
"Z. c #ABA291",
"A. c #B0A895",
"S. c #ABA98B",
"D. c #A5A5A5",
"F. c #ABABAB",
"G. c #B3B3B3",
"H. c #BCBCBC",
"J. c #A6BCA6",
"K. c #DB8FAE",
"L. c #D389A7",
"P. c #BBC6BB",
"I. c #859DCC",
"U. c #91A5CC",
"Y. c #A0AFCC",
"T. c #A5B2CC",
"R. c #CBB8C0",
"E. c #D1B8C2",
"W. c #80C8C8",
"Q. c #89D7D7",
"!. c #C4C4C4",
"~. c #C6CAC6",
"^. c #C5C7CC",
"/. c #C7C8CB",
"(. c #CCCBCB",
"). c #CEC6C9",
/* pixels */
"g g g g g g g g g # # # g g g g g g g g g f g g g g # # # g g g g g g g g g g g f # # # f j f j e f f f f f f f f f # # # f f f ",
"g g ; g g f g g g g # g g g ; g g f g g g g g ; g g g # g g g g g g ; g g g g g f f # f f f ; j f f f f f j f ; f f f # f f f f ",
"g : ; : : f ; : g g # g g : ; : ; f : : : f : : : g g # g g : : g : : : : g ; : e f # f f ; ; : ; f ; ; ; f : ; : j f # f f : ; ",
"; ; - ; : - : : : f # g : ; - : : : : > : - : : ; ; g # g : ; ; ; : - : : - : : ; j # e ; ; - ; : : ; ; : - : ; ; ; f # f ; ; : ",
": - - : : : - : ; - # - ; : ; - : : - - : ; - > : : - # - : : ; ; - - : : ; - ; ; - # - : : : - ; : - - ; : - : : : - # - : : : ",
"- - : : - : : : - - # - - ; : : : - - : : : - - : - - # - - ; - - - : ; - : : ; - - # - - : : : : - - : : ; - - ; - - # - - : - ",
"- - - - - - : - - - # - - - : - - - - - : - - - - - - # - - - - - - - - - - ; - - - # - - - : - - - - - ; - - - - - - # - - - - ",
"- - - - - - - - - # # # - - - - - - - - - - - - - - # # # - - - - - - - - - - - - # # # - - - - - - - - - - - - - - # # # - - - ",
"# # # # # # # # # # # # # # # # # # # # # # # # # # # # # # # # # # # # # # # # # # # # # # # # # # # # # # # # # # # # # # # # ",
"g g g g # # # f g f g g g g g f g g g g g # # # g g g g g g g g e j f f # # # g f g g g f f f g g g f g f # # # f e f f f f g g ",
"g : g g g # f f g g g g g g ; g g g g f g g # g g g g g g : g g f : f f g # g g g g g g f f : f g g f g f g # f f f f f f : g g ",
": > : g g # f f : ; g ; : : ; : : f : : g g # g g > : f : : : g : : ; f g # g g ; ; g ; : : : : : g ; ; g g # f f : : f : : : g ",
": : : - f # f - > : : : : : - : - : : : - g # f - : : : : : : - : : : - f # f - ; : : : : : - : - : : : - f # f - : : : : : : - ",
": : - - - # - - - : : : : - - ; > : : - - - # - - - : - - : : : ; ; - - - # - - - : : : : - - : : : : - - - # - - - : - - : : : ",
"; - - - - # - - - - : - - - - - - : - - - - # - - - - - - - - - : - - - - # - - - - : - - - - - - : - - - - # - - - - - - - - - ",
"- - - ; # # # - - - - - - - - - - - - - - # # # - - - - - - - - - - - - # # # - - - - - - - - - - - - - - # # # - - - - - - - - ",
"# # # # # # # # # # # # # # # # # # # # # # # # # # # # # # # # # # # # # # # # # # # # # # # # # # # # # # # # # # # # # # # # ",
"f f g g g g g g f f f f f # # # g g g g g g f j g g g g # # # g f g g g f f f j f f f f f # # # g g g g g g g g g g g g # # # g ",
"f f f g : g g g : f f f f f # g g g g g f : f f g g g g g # g g g g g g : g g g : f f f f f # j g f g g g : g f g f g g g # g g ",
"; ; f ; : ; g : : : : : : f # g : : f : : ; : f ; ; 7 g g $ g g : : g ; : ; g > : : ; : : f # f ; : f > ; : : g : : : g g # g g ",
"- ; : : : : ; ; > : : - ; : # : : : > : ; - ; : 7 7 - - j % j ; ; 7 8 8 : : : : ; : ; - ; ; # > : : : : : - > : : : - - g # g - ",
"- - - - : : - - - - - - - - # - - - - - - - - - - ; 7 9 9 3 w w w 9 8 7 8 : - - - - - - - - # - - - - - - - - - - - - - - # - - ",
"- - - - - - - - - - - - - # # # - - - - - - - ; 7 8 w h p a s Z Z l h y 9 > ; ; - - - - - # # # - - - - - - - - - - - - # # # - ",
"# # # # # # # # # # # # # # # # # # # # # # % % 4 6 a D Q ( ) ) ( Q F s t 3 % * # # # # # # # # # # # # # # # # # # # # # # # # ",
"f g g g f # # # f f f f j f f f g g g # O * j c J _ =.5.4.O./ X.*.n.v.;. .i 5 = j j j f f f f f g g g # # # g g f f g g g g g g ",
": f g g f f # f f f g g e : ; f g g g g * j c J } ;.M.S   + , , .   d 5.c.=.d H x k j f f : : j g g g g # g g f g g g g f g g : ",
": : g : f f # j f : g : ; ; : : f ; j j * c J K =.V.i $ t.y.a.k.s.e.< $ / V.~ _ J h k 8 8 7 : : g : g g # g f : : f : : : f : : ",
"- - : : - f # e - : : : ; - ; : : > ; k = J P =.9.d & u.h.h.h.j.l.Q.l.` O ~ 6.;.I S l h w : > : : : - g # g - : : : : - : : : - ",
": : : - - - # - - - : : - - 7 7 : ; 7 w t L =.7.Y # r.h.h.h.h.h.h.j.l.Q.w.X 2.V.4.^ T S h y e 0 9 ; - - # - - - : : - - - : : : ",
": ; - - - - # - - - - - - - - - > 8 y C F O.M.,.+ r.h.h.h.h.h.h.h.h.h.j.g.N O *.S.7.3.[ I Z h w 7 > - - # - - - - - - - - - - - ",
"- - - - - # # # - - - - - - ; > 9 u Z F o.9.2.X N g.h.h.h.h.h.h.h.h.h.h.j.p.+ o 2 ! 6.7.4.| L l w : ; # # # - - - - - - - - - - ",
"# # # # # # # # # # # # # $ % 1 6 A ! 1.8.d X X < t.i.h.h.h.h.h.h.h.j.j.p.N X ,.' 3 X * s o./ D t 4 % # # # # # # # # # # # # # ",
"f f f f f f f q g # # # f j z v _ $.v.Q % 3 b.D., + M q.y.a.g.g.g.a.y.q.b . { (.~.,.B.#.6 + a =.R v k j g g g g g g # # # g g g ",
"f f : f f f f i g g # f j j e H } :.6 % %.L.&.).H.' % + , n m N m h , + % %.^.^.~.,.P.(.~.#.  =._ G k g g g g : g g g # g g j g ",
"f : : : : f ; ; j f # f f 8 e S ] i 1 H.(.E.0.(.).^.H.B.L 6 * * - t ' B.!.(.I.f.(.(.(.(.G.{ o O.I G q 8 : g ; 7 : g g # j e : : ",
": : - : ; - ; ; : f # f : 9 w S | 2 r F.!.(.(.(.d.I.(.(.P.J.H.H.T.(.K.E.(.(.T.U.(.(./.G.z.4 6 O.J i 0 8 : - : : : : g # f : : : ",
": - - : ; ; ; ; : - # - 7 9 e l ^ Q X L N.G.!.(.U.T.(.(.C.>.~.(.(.).&.K.(.(.(.(.R.G.B.' % 3 3.^ C u 7 - : : - : ; ; - # - ; ; ; ",
"- - : : - ; ; ; - - # - - 8 w l I O.! $ 1 { N.D.H.!.~.(.(.P.(.(.(.).R.R.!.G.F.B.;._ 1 $ ! 5.@.I i 8 ; 7 : ; - - ; - - # - - ; - ",
"- - - - - - ; - - ; # - - - 0 e B E -.@.t X r U %.N.D.D.F.F.G.F.F.D.B.b.,.#.' Z 2 O p 3.4.[ P u 9 7 - - : - - - - - - # - - ; - ",
"- - - - - - - - - # # # - - ; 7 y V U O.7.( 5   # 3 i L ' { { ' L B i : - X   O i ,.5.) E Z u q 7 ; - - - - - - - - # # O - - - ",
"# # # # # # # # # # # # # # # * 1 5 t s ! o.6.6.( D 5 O         O = p W ) 2.6.6.2.( Q A i 5 = % # # # # # # # # # # # # # # # # ",
"f f f f # # # j f f f f f f f g j k c H R s W ~ c.n.V.Z.A.A.A.A.Z.Z.V.n.o.o.( O. ._ K G c k j j f f f f j # # O f j f f f f q j ",
"f : j f i # f f f j j e f f : f g j k z c G i T }  ...=.=.| =.=.$.| .. .] A R K H v c z j j : f f j j e f f # f f j f f f ; f j ",
": : : f f # f f : ; f : : ; : : : g 8 8 k z = v H l l K S S S R C C V H G 5 c x q 0 j 8 : : : : : f : : f f # f f ; ; f ; ; ; f ",
"; ; ; - f # f - ; : : : : ; - ; - : ; : ; e $ j 7 q q q w e e 9 e q q 7 k % j ; : : : ; : : - : - ; ; : - f # f - : : : : ; ; - ",
"; ; - - - # - - - ; : : : - - ; ; : : - - - # ; - - 7 ; ; 8 8 7 8 8 - ; ; # - - ; : ; ; : - - ; ; : ; - - - # - - - : - - ; : ; ",
": - - - - # - - - - ; - - - - - - : - - - - # - - - - - - - - - : - - - - # - - - - ; - - - - - - ; - - - - # - - - - - - - - - ",
"- - - - # # O - - - - - - - - - - - - - - # # # - - - - - - - - - - - - # # # - - - - - - - - - - - - - - # # # - - - - - - - - ",
"# # # # # # # # # # # # # # # # # # # # # # # # # # # # # # # # # # # # # # # # # # # # # # # # # # # # # # # # # # # # # # # # ",
"f f f f f f f f f f i f f # # # f f f f f f f f f j f f # # # f f f f f f f i f f f f f i # # # f f f j e j f f f f f f # # # f ",
"f f f f ; f i f : f j f f f # f j f j q f ; f f f f f f f # f f f f f f ; f f f : f f f f f # f f f f f f ; f f f f f f f # f f ",
"; ; j : ; ; f ; : ; ; ; ; f # f ; ; f : : : : f : : : f f # f f ; : f : ; : f ; : : ; ; ; f # f ; ; j ; ; ; ; j : : : f f # f j ",
"- ; ; : : : ; ; : : : - ; ; # ; : : : ; ; - ; ; : : - - e # f - - ; : ; : : : ; ; : ; - ; ; # ; ; ; ; : : - : : ; ; - - f # f - ",
"- - - - ; ; - - - - - - - - # - - - - - - - - - - - - - - # - - - - - - : : - - - - - - - - # - - - - - - - - - - - - - - # - - ",
"- - - - - - - - - - - - - # # # - - - - - - - - - - - - # # # ; - - - - - - - - - - - - - # # # - - - - - - - - - - - - # # # - ",
"# # # # # # # # # # # # # # # # # # # # # # # # # # # # # # # # # # # # # # # # # # # # # # # # # # # # # # # # # # # # # # # # ",
"f f f f f # # # j f i f f f f f f f f # # # f f f f f f f f f f j e f f f # # # f f j f f f f j f j f # # # j f j f f f f f f j ",
"; f f j f f # f f f f f f ; ; f f f f f # f j e f f f j f j f ; ; f f f f f # j f f f f f : : f f f f f # f e f f f f e f f f ; ",
"; ; f ; j f # f f ; j ; : ; ; ; f : f f # f f : ; j : : : f : : ; ; f ; f f # f f : f : : : : : f ; f f # f f : ; f ; ; ; j ; ; ",
"- - ; ; - f O j - ; ; ; : - - ; ; : - f # j - ; ; ; : - : : : - - - : : - j # f - : : : : - - : ; ; - f # f - : ; ; ; ; ; : ; - ",
"; : : ; - - # - - - : : - - ; : ; - - - # - - - ; ; - - - : : ; : : : - - - # - - - : : - - ; : : - - - # - - - : ; - - - ; : : ",
"; ; - - - - # - - - - - - - - - - - - - # - - - - - - - - - - - : : - - - - # - - - - - - - - - - - - - # - - - - - - - - - - - ",
"- - - - - # # # - - - - - - - - - - ; # # # - - - - - - - - - - - - - - - # # # - - - - - - - - - - - # # # - - - - - - - - - - ",
"# # # O # # # # # # # # # # # # # # # # # # # # # # # # # # # # # # # # # # # # # # # # # # # # # # # # # # # # # # # # # # # # "
};
