/* XPM */
static char *result[] = {
/* columns rows colors chars-per-pixel */
"64 64 158 2 ",
"   c #020201",
".  c #0C0B07",
"X  c #0D0C09",
"o  c #100E09",
"O  c #14130D",
"+  c #1A170F",
"@  c #161516",
"#  c #181713",
"$  c #1C1A13",
"%  c #1B1B1A",
"&  c #211E13",
"*  c #201F1D",
"=  c #262215",
"-  c #292417",
";  c #21211D",
":  c #2B2618",
">  c #2E291A",
",  c #312C1C",
"<  c #36301E",
"1  c #38321F",
"2  c #1D162A",
"3  c #271D2E",
"4  c #281E2E",
"5  c #261E30",
"6  c #252521",
"7  c #282723",
"8  c #2B2B25",
"9  c #302F27",
"0  c #3A3321",
"q  c #34342C",
"w  c #38362E",
"e  c #3A3A2F",
"r  c #2B2232",
"t  c #2E2835",
"y  c #302634",
"u  c #322936",
"i  c #342D39",
"p  c #382E3A",
"a  c #3B3B31",
"s  c #36303B",
"d  c #3B333E",
"f  c #433B25",
"g  c #463E28",
"h  c #403F33",
"j  c #40373F",
"k  c #403B39",
"l  c #4B432A",
"z  c #424236",
"x  c #454439",
"c  c #4B4A3D",
"v  c #564C31",
"b  c #594F32",
"n  c #5C5234",
"m  c #615636",
"M  c #645939",
"N  c #6A5E3C",
"B  c #6F623E",
"V  c #71643F",
"C  c #3D2741",
"Z  c #3D2841",
"A  c #3D3740",
"S  c #3E3841",
"D  c #422D44",
"F  c #453046",
"G  c #423C43",
"H  c #473248",
"J  c #4A364A",
"K  c #4E3A4D",
"L  c #503D4F",
"P  c #464046",
"I  c #4A4346",
"U  c #4E4D40",
"Y  c #4B4549",
"T  c #4E494C",
"R  c #504F41",
"E  c #514B4D",
"W  c #545345",
"Q  c #5C5A4A",
"!  c #554252",
"~  c #584655",
"^  c #5C4A57",
"/  c #5E4D59",
"(  c #565151",
")  c #5B5454",
"_  c #5D5856",
"`  c #605F4D",
"'  c #604F5B",
"]  c #625E55",
"[  c #63525C",
"{  c #625D5A",
"}  c #63624F",
"|  c #736641",
" . c #776942",
".. c #7A6D45",
"X. c #7E7047",
"o. c #686654",
"O. c #6B6A54",
"+. c #65615C",
"@. c #6B645E",
"#. c #6F6C5B",
"$. c #716F5B",
"%. c #72705B",
"&. c #685760",
"*. c #695961",
"=. c #6D6363",
"-. c #6F6A62",
";. c #706166",
":. c #736C64",
">. c #77676A",
",. c #77686B",
"<. c #7B6D6E",
"1. c #767067",
"2. c #7B7766",
"3. c #7C7A64",
"4. c #777368",
"5. c #7B756B",
"6. c #7E796C",
"7. c #817349",
"8. c #8A7A4E",
"9. c #817C6E",
"0. c #837674",
"q. c #857B74",
"w. c #8B7E7A",
"e. c #948453",
"r. c #988756",
"t. c #9A8957",
"y. c #9D8C59",
"u. c #A18F5B",
"i. c #83806C",
"p. c #8A8A6B",
"a. c #868172",
"s. c #8B8575",
"d. c #8C8972",
"f. c #8F827C",
"g. c #8F8A78",
"h. c #92867E",
"j. c #918C7A",
"k. c #959575",
"l. c #96937D",
"z. c #99957F",
"x. c #9A997B",
"c. c #A1A17C",
"v. c #958981",
"b. c #998E84",
"n. c #9D9287",
"m. c #9E9B82",
"M. c #9F9588",
"N. c #A09D83",
"B. c #A09689",
"V. c #A49B8B",
"C. c #A6A38A",
"Z. c #AAA48D",
"A. c #ABA98B",
"S. c #ADA491",
"D. c #AFA991",
"F. c #B2AE91",
"G. c #BAB896",
"H. c #BEBB9A",
/* pixels */
"Z Z Z Z Z Z Z Z Z @ @ @ Z Z C Z Z Z Z Z Z Z Z Z Z Z @ @ @ Z Z Z Z Z Z Z Z Z Z Z D @ @ @ C C C C D C C C C C C C C C @ @ @ C C C ",
"Z Z 3 Z Z C Z Z Z C @ Z Z Z 3 Z Z Z Z Z Z Z Z 3 Z Z Z @ Z Z C Z Z Z 3 Z Z Z Z Z C C @ p C C 4 C C C C C C C C 3 C C p @ C C C C ",
"Z 3 3 4 4 C 4 4 Z Z @ Z Z 4 3 4 3 Z 3 4 3 C 4 4 4 Z Z @ Z Z 4 4 Z 4 4 4 3 C 4 4 C C @ C C 4 4 4 3 D 3 3 3 j 4 3 3 C C @ C C 3 3 ",
"4 3 2 3 4 2 3 4 4 Z @ Z 4 3 2 4 4 4 4 3 4 2 4 4 3 3 Z @ Z 4 3 3 3 3 2 4 4 2 4 4 4 C @ C 3 4 2 3 3 3 3 3 4 2 4 3 4 3 D @ C 3 4 3 ",
"4 2 2 4 4 3 2 4 3 2 @ 2 3 4 3 2 4 4 2 2 3 3 2 3 4 4 2 @ 2 4 4 3 r 2 2 4 4 3 2 3 3 2 @ 2 4 4 4 2 3 3 2 2 3 4 2 4 3 3 2 @ 2 4 4 3 ",
"2 2 4 4 2 4 4 4 2 2 @ 2 2 3 4 4 4 2 2 4 4 4 2 2 4 2 2 @ 2 2 3 2 2 2 3 3 2 4 3 4 2 2 @ 2 2 4 4 4 3 2 2 4 3 3 2 2 4 2 2 @ 2 2 4 2 ",
"2 2 2 2 2 2 4 2 2 2 @ 2 2 2 4 2 2 2 2 2 4 2 2 2 2 2 2 @ 2 2 2 2 2 2 2 2 2 2 3 2 2 2 @ 2 2 2 4 2 2 2 2 2 3 2 2 2 2 2 2 @ 2 2 2 2 ",
"2 2 2 2 2 2 2 2 2 @ @ @ 2 2 2 2 2 2 2 2 2 2 2 2 2 2 @ @ @ 2 2 2 2 2 2 2 2 2 2 2 2 @ @ @ 2 2 2 2 2 2 2 2 2 2 2 2 2 2 @ @ @ 2 2 2 ",
"@ @ @ @ @ @ @ @ @ @ @ @ @ @ @ @ @ @ @ @ @ @ @ @ @ @ @ @ @ @ @ @ # @ @ @ @ @ @ @ @ @ @ @ @ @ @ @ @ @ @ @ @ @ @ @ @ @ @ @ @ @ @ @ ",
"C C C C @ @ @ C Z C Z Z Z Z Z C Z Z Z Z Z @ @ @ Z Z Z Z C C C C p C C C @ @ @ C C C C C C C C C C C C C C @ @ @ C D C C C C C C ",
"C r C C C @ C C Z C Z Z Z Z 3 Z Z Z Z Z Z Z @ Z Z Z Z Z Z 5 C C C 3 C C Z @ Z Z C C C C D p 3 p C C C C C C @ C C C C p C 4 C C ",
"3 3 3 C C @ C C 4 3 Z 3 4 4 3 4 4 Z 3 4 Z Z @ Z Z 3 4 C 4 4 4 p 4 3 3 C Z @ Z Z 3 3 C r 4 4 3 4 3 C 3 3 C D @ C C 3 3 D 4 4 4 C ",
"3 3 r 2 C @ C 2 3 4 4 3 4 3 2 4 2 4 4 4 2 Z @ C 2 4 4 4 3 r 3 2 4 4 4 2 C @ C 2 3 r 3 4 4 4 2 4 3 3 3 3 2 C @ C 2 4 4 4 4 4 3 2 ",
"3 3 2 2 2 @ 2 2 2 4 4 3 4 2 2 4 4 5 3 2 2 2 @ 2 2 2 4 2 2 r 3 3 4 4 2 2 2 @ 2 2 2 3 3 3 4 2 2 4 3 3 3 2 2 2 @ 2 2 2 4 2 2 4 4 3 ",
"3 2 2 2 2 @ 2 3 2 2 3 2 2 2 2 2 2 4 2 2 2 2 @ 2 2 2 2 2 2 2 2 2 4 2 2 2 2 @ 2 2 2 2 3 2 2 2 2 2 2 3 2 2 2 2 @ 2 2 2 2 2 2 2 2 2 ",
"2 2 2 2 @ @ @ 2 2 2 2 2 2 2 2 2 2 2 2 2 2 @ @ @ 2 2 2 2 2 2 2 2 2 2 2 2 @ @ @ 2 2 2 2 2 2 2 2 2 2 2 2 2 2 @ @ @ 2 2 2 2 2 2 2 2 ",
"# @ @ @ @ @ @ @ @ @ @ @ @ @ @ @ @ @ @ @ @ @ @ @ @ @ @ @ @ @ @ @ @ @ @ @ @ @ @ @ @ @ @ @ @ @ @ @ @ @ @ @ @ @ @ @ @ @ @ @ @ @ @ @ ",
"Z C Z Z Z Z Z Z C C Z Z Z @ @ @ Z Z Z Z Z Z Z C C C C C @ @ @ Z C Z Z Z Z C C C Z Z Z Z C @ @ @ D p C C C D C C C C C C @ @ @ C ",
"Z Z Z Z 3 D Z Z 4 C C C Z Z @ Z Z C Z Z C 3 Z D C C Z Z C @ Z Z Z Z Z Z 4 Z C C 4 C C C C C @ C C C C C C 3 C C D C p C C @ C C ",
"3 3 Z 4 3 4 p 4 4 4 4 4 4 Z @ Z 4 4 Z 4 4 3 5 C 3 5 5 Z C @ Z Z 4 4 Z 3 4 3 C 3 4 4 3 4 4 C @ C 3 3 C 3 3 3 3 D 3 3 4 C C @ C D ",
"2 3 3 3 3 3 3 3 4 5 4 2 4 4 @ 4 4 5 5 r 3 2 3 4 5 5 2 2 Z @ Z 2 3 5 r 3 4 4 4 5 3 4 4 2 3 3 @ 3 4 4 4 4 3 2 3 4 4 3 2 2 C @ C 2 ",
"2 2 2 2 3 3 2 3 2 2 2 2 2 2 @ 2 2 2 2 2 2 2 2 2 2 2 2 5 r ; r r r r r 3 r r 5 2 2 2 2 2 2 2 @ 2 2 2 2 2 2 2 2 2 2 2 2 2 2 @ 2 2 ",
"2 2 2 2 2 2 2 2 2 2 2 2 2 @ @ @ 2 2 2 2 3 2 3 3 r r r t 8 9 q A S d s s i t 5 5 5 2 2 2 3 @ @ @ 2 2 2 2 2 2 2 2 2 2 2 2 @ @ @ 2 ",
"@ @ @ @ @ @ @ @ @ @ @ @ @ @ @ @ @ @ % % % 6 6 7 8 q a a U R W Q Q Q W U x a q 7 6 6 % % @ @ @ @ @ @ @ @ @ @ @ @ @ @ @ @ @ @ @ @ ",
"C C C C C @ @ @ C C C C C C C C Z D F 7 8 w ' [ &.;.>.0.w.v.v.n.M.n.b.f.w.Q W x ^ ! K J F D D C C C C @ @ @ D C C C C C C C D C ",
"3 C C C C C @ C C C Z C p 4 4 C D F K ! z =.<.0.w.v.M.V.s.$.Q x h x W #.g.M.3.0.>.*.' ! K u 4 D C C D C @ C p C C C C D C C C 3 ",
"3 3 D 3 C C @ C C 4 Z 5 4 4 3 r D i ! &.} 5.@.i.F.D.$.8 O O = , 0 1 - O # x p.S.n.6.<.) I d u r D 3 C C @ C C 3 4 C 4 4 3 D 3 3 ",
"3 2 3 3 2 C @ C 2 4 4 5 3 2 2 4 y d P <.O.% o # o.: X g | 8.e.t.y.t.e.8.M = # 2.z.Q Q 4._ G t r 4 3 2 C @ C 2 3 4 4 4 2 3 3 3 2 ",
"3 3 3 3 2 2 @ 2 2 2 4 4 2 2 3 r u d ( 6.e $  .:   0 X.u.u.u.u.y.u.u.u.u.u.e.l . # O . Q -.T j u 4 2 2 2 @ 2 2 2 4 4 2 2 2 3 4 4 ",
"3 3 2 2 2 2 @ 2 2 2 2 2 2 2 2 2 r G { g.O l y.l X r.u.u.u.u.7.= n y.u.u.u.u.t.<   | = ; a._ S r 3 2 2 2 @ 2 2 2 2 2 2 2 2 2 2 2 ",
"2 2 2 2 2 @ @ @ 2 2 2 2 2 2 2 3 r G =.k.  M y.l $ u.u.u.y.r.& +   n e.y.y.y.u.e.. n l   d.=.K y 3 2 2 @ @ @ 2 2 2 2 2 2 2 2 2 2 ",
"O @ @ @ O @ @ @ @ @ @ @ @ @ @ % 7 x O.x.  N y.> 0 t.e...| m   | - O | | |  ...8.> > M   p.$.k 7 % @ @ @ @ @ @ @ @ @ @ @ @ @ @ @ ",
"C C C C C C C u C @ @ @ C C C D L [ q.S.  B e.O f V B B V g   r.n   m n = l B B , + V   l.w.{ L D D p D C C C D C C @ @ @ C C C ",
"C C 4 C C C C j C C @ C C C 4 D K [ 0.V.  M B   - N B B V , X y.M   n O #   v B $ >  .  j.f.^ L D D C C C D C 3 C C C @ C C D C ",
"C 4 4 4 4 C 3 3 Z D @ C C 4 3 y p [ :.m.  M $ O X O , f 1 O O u.l   ,   p.w . &   N ..  s.9.) d r D 3 3 4 C 3 4 3 D p @ C C 4 4 ",
"4 4 2 4 4 2 3 3 3 C @ C 4 4 2 4 i T =.d.  < . 3.p.q ; # # O O u., . # q G.A.z 8 X v ..  9.2.T d r 4 4 4 3 2 4 4 3 3 C @ C 4 4 4 ",
"4 2 2 4 3 3 3 3 3 2 @ 2 3 3 3 3 p K ) 2.    c F.F.A.m.c.A.%.  8.X ` A.A.N.m.C.H.Q . m   2.:.E u y 4 2 2 3 3 2 3 4 4 2 @ 2 4 4 4 ",
"2 2 4 4 2 3 3 3 2 2 @ 3 2 3 3 4 u p Y @.X @ 5.6.9.4.6.p.A.x.  l   m.m.q.:.:.6.j.l.# +   :.{ I i r 2 2 3 3 3 2 2 4 2 2 @ 2 2 4 2 ",
"2 2 2 2 2 2 3 2 2 2 @ 2 2 2 3 3 r t S E a Y { ) E E ( } 9.l.X   e g.4._ Y I _ { 4.W X ; +.E G r 3 2 2 2 3 2 2 2 2 2 2 @ 2 2 2 2 ",
"2 2 2 2 2 2 2 2 2 @ @ @ 2 2 2 2 2 r s S P P G S d s w x Q 5.;   +.-.( G p i d P ( Q c W T G u 5 3 2 2 2 2 2 2 2 2 2 @ @ @ 2 2 2 ",
"@ @ @ @ @ @ @ @ @ @ @ @ @ @ @ @ @ * 6 7 8 9 7 6 ; % 7 q z W q # Q U a 8 * % 6 8 q a z a w 8 ; % @ @ @ @ @ @ @ @ @ @ @ @ @ @ @ @ ",
"C C C C @ @ @ D D p C C C C C C Z Z D F F % % % D D D K L ^ [ [ / ~ K H % % % F J K K K J H D D C C C j C @ @ @ C C C C C C C C ",
"C 4 C C C @ C C C D D p C C 3 D Z Z Z Z Z Z % Z Z Z D D J p L ! L s H F D @ Z D D D F F D D r Z C C C C D C @ C C C C j C 4 C C ",
"4 4 4 D D @ C C 3 3 C 4 3 3 3 3 r Z r 5 Z Z @ Z Z 4 4 D t t u J u t r Z Z @ Z Z r r Z r 4 4 4 4 3 C 4 4 C C @ C D 4 3 C 3 4 3 C ",
"3 3 3 2 C @ C 2 3 4 r 4 4 3 2 3 2 3 5 r 2 Z @ Z 2 3 r 4 4 r r 3 r r 4 2 Z @ Z 2 4 3 4 3 4 4 2 4 2 3 3 4 2 C @ C 2 3 3 3 3 4 3 2 ",
"3 3 2 2 2 @ 2 2 2 3 3 3 4 2 2 3 3 r 3 2 2 2 @ 2 2 2 4 2 2 3 3 4 4 4 2 2 2 @ 2 2 2 4 3 3 3 2 2 3 3 4 3 2 2 2 @ 2 2 2 3 2 2 4 4 4 ",
"3 2 2 2 2 @ 2 2 2 2 3 2 2 2 2 2 2 3 2 2 2 2 @ 2 2 2 2 2 2 2 2 2 4 2 2 2 2 @ 2 2 2 2 3 2 2 2 2 2 2 3 2 2 2 2 @ 2 2 2 2 2 2 2 2 2 ",
"2 2 2 2 O @ @ 2 2 2 2 2 2 2 2 2 2 2 2 2 2 @ @ @ 2 2 2 2 2 2 2 2 2 2 2 2 @ @ @ 2 2 2 2 2 2 2 2 2 2 2 2 2 2 @ @ O 2 2 2 2 2 2 2 2 ",
"@ @ @ @ @ @ @ @ @ @ @ @ @ @ @ @ @ @ @ @ @ @ @ @ @ @ @ @ @ @ @ @ @ @ @ @ @ @ @ @ @ @ @ @ @ @ @ @ @ @ @ @ @ @ @ @ @ @ @ @ @ @ @ @ ",
"D C C C C C C C C C Z Z Z @ @ @ C C C Z Z Z Z Z C Z Z Z @ @ @ D D C C C C C C p C C C C D @ @ @ C C D C C C C C C C C C @ @ @ C ",
"C C C C 3 D C C 4 Z Z Z Z Z @ Z C C D p Z 4 Z Z Z Z Z Z C @ C C C C C C 4 C C D 4 C C C p C @ C C C C C C 3 C p C C D C C @ C D ",
"3 3 C 3 4 3 C 3 4 3 4 4 r Z @ Z 3 3 C 4 4 4 4 Z 4 4 4 Z C @ C p 3 3 C 4 3 4 C 4 4 4 3 4 3 C @ C 3 3 C 3 3 4 3 D 4 4 4 C C @ C p ",
"2 3 3 3 3 3 3 3 3 3 r 2 3 3 @ 3 3 3 3 3 3 2 4 4 4 4 2 2 C @ Z 2 2 3 3 3 4 4 4 3 3 4 3 2 3 3 @ 3 3 3 4 4 3 2 4 4 3 3 2 2 C @ C 2 ",
"2 3 2 2 3 3 2 2 2 2 2 2 2 2 @ 2 2 2 2 2 2 2 2 2 2 2 2 2 2 @ 2 2 2 2 2 2 4 4 2 2 2 2 2 2 2 2 @ 2 2 2 2 2 2 2 2 2 2 2 2 2 2 @ 2 2 ",
"2 2 2 2 2 2 2 2 2 2 2 2 2 @ @ @ 2 2 2 2 2 2 2 2 2 2 2 2 @ @ @ 2 2 2 2 2 2 2 2 2 2 2 2 2 2 @ @ @ 2 2 2 2 2 2 2 2 2 2 2 2 @ @ @ 2 ",
"O @ @ @ @ @ @ @ @ # @ @ @ @ @ @ @ @ @ @ @ @ @ @ @ @ @ @ @ @ @ @ @ @ @ @ @ @ @ @ @ @ @ @ @ @ @ @ @ @ @ @ @ @ @ @ @ @ @ @ @ @ @ @ ",
"Z Z Z Z Z @ @ @ p C C Z Z Z Z Z C C C @ @ @ Z C C C C C D C C C D C D p C @ @ @ D C C C D C D C C C C @ @ @ C C C C C C C C D C ",
"3 Z Z Z Z C @ Z C C C C Z 4 3 Z C C C C @ Z C C C C C D C C C 4 3 C C C C C @ C C C C C C 3 3 C C C C C @ C C C C C C D C C C 3 ",
"4 4 Z 3 C Z @ Z C 4 C 4 4 3 4 4 C 4 C C @ C C 4 3 C 4 4 3 C 4 4 3 3 C 4 D C @ C C 3 C 4 3 3 3 4 C 3 C D @ C p 3 4 C 4 4 3 D 3 3 ",
"2 2 3 3 2 C @ Z 2 4 5 4 4 2 2 3 4 4 2 C @ D 2 3 3 3 4 2 3 3 4 2 2 2 4 4 2 C @ C 2 4 4 4 3 2 2 4 3 3 2 C @ C 2 3 3 4 4 2 3 3 3 2 ",
"3 4 4 2 2 2 @ 2 2 2 3 r 2 2 3 4 3 2 2 2 @ 2 2 2 4 3 2 2 2 4 4 4 3 4 3 2 2 2 @ 2 2 2 3 4 2 2 3 3 3 2 2 2 @ 2 2 2 4 3 2 2 2 3 3 4 ",
"4 4 2 2 2 2 @ 2 2 2 2 2 2 2 2 2 2 2 2 2 @ 2 2 2 3 2 2 2 2 2 2 2 4 4 2 2 2 2 @ 2 2 2 2 2 2 2 2 2 3 2 2 2 @ 2 2 2 3 2 2 2 2 2 2 2 ",
"2 2 2 2 2 @ @ @ 2 2 2 2 2 2 2 2 2 2 2 @ @ @ 2 2 2 2 2 2 2 2 2 2 2 2 2 2 2 @ @ @ 2 2 2 2 2 2 2 2 2 2 2 @ @ @ 2 2 2 2 2 2 2 2 2 2 ",
"@ @ @ @ @ @ @ @ @ @ @ @ @ @ @ @ @ @ @ @ @ @ @ @ @ @ @ @ @ @ @ @ @ @ @ @ @ @ @ @ @ @ O @ @ @ @ @ @ @ @ @ @ @ @ @ @ @ @ @ @ @ @ @ "
};
