/* XPM */
static char *result[] = {
/* columns rows colors chars-per-pixel */
"64 64 175 2 ",
"   c #050504",
".  c #0C0C0A",
"X  c #090303",
"o  c #10100D",
"O  c #161516",
"+  c #181617",
"@  c #181813",
"#  c #1B1B1A",
"$  c #201F1C",
"%  c #2F1F1B",
"&  c #22211D",
"*  c #1D162A",
"=  c #221F21",
"-  c #261D2E",
";  c #281E2E",
":  c #251E30",
">  c #252522",
",  c #292724",
"<  c #2B2B25",
"1  c #2A262B",
"2  c #2F2D28",
"3  c #332D2E",
"4  c #3E2320",
"5  c #34332C",
"6  c #38372F",
"7  c #38382B",
"8  c #272030",
"9  c #2B2332",
"0  c #2E2836",
"q  c #302634",
"w  c #312A37",
"e  c #332C39",
"r  c #382E3A",
"t  c #2D3133",
"y  c #3C3C31",
"u  c #36303C",
"i  c #3B333D",
"p  c #373234",
"a  c #443C3C",
"s  c #622121",
"d  c #404035",
"f  c #45443A",
"g  c #594135",
"h  c #3D2741",
"j  c #3D2841",
"k  c #3D3740",
"l  c #3E3841",
"z  c #412D44",
"x  c #453147",
"c  c #433C43",
"v  c #483F45",
"b  c #473248",
"n  c #49354A",
"m  c #4D3A4D",
"M  c #503D4F",
"N  c #523F50",
"B  c #474146",
"V  c #494246",
"C  c #4F4C42",
"Z  c #4C4549",
"A  c #504F41",
"S  c #534C4E",
"D  c #545444",
"F  c #58554F",
"G  c #5D5C4B",
"H  c #585649",
"J  c #554252",
"K  c #5B4957",
"L  c #5A4D55",
"P  c #5A5252",
"I  c #555051",
"U  c #605D4F",
"Y  c #604F5B",
"T  c #784F51",
"R  c #635B57",
"E  c #64535D",
"W  c #645C5A",
"Q  c #685A5F",
"!  c #65654F",
"~  c #666652",
"^  c #696756",
"/  c #66615D",
"(  c #6A635C",
")  c #6C6B56",
"_  c #726F5E",
"`  c #76765D",
"'  c #79785F",
"]  c #585F63",
"[  c #545C60",
"{  c #675760",
"}  c #6C5C63",
"|  c #6D6363",
" . c #6D6861",
".. c #716166",
"X. c #726C63",
"o. c #786F65",
"O. c #7B6D6E",
"+. c #76676A",
"@. c #787167",
"#. c #7F7F63",
"$. c #7D766B",
"%. c #7E7A6B",
"&. c #757166",
"*. c #7F7171",
"=. c #990133",
"-. c #990C33",
";. c #9D0A3A",
":. c #991733",
">. c #9F1D3E",
",. c #992533",
"<. c #992A33",
"1. c #9D213B",
"2. c #993334",
"3. c #9C3D3A",
"4. c #973534",
"5. c #9E443F",
"6. c #A52649",
"7. c #AA2A54",
"8. c #A82651",
"9. c #B23D63",
"0. c #9A4B45",
"q. c #A14D47",
"w. c #A4584F",
"e. c #866754",
"r. c #A6675D",
"t. c #A36354",
"y. c #B14663",
"u. c #B6496D",
"i. c #BB5476",
"p. c #827F64",
"a. c #817C6F",
"s. c #867A76",
"d. c #887C76",
"f. c #8A7D79",
"g. c #A96E60",
"h. c #A37963",
"j. c #B07F68",
"k. c #A66E71",
"l. c #8C8669",
"z. c #86856A",
"x. c #97826F",
"c. c #858272",
"v. c #8A8474",
"b. c #8C8877",
"n. c #8F8C7A",
"m. c #948D7A",
"M. c #91867E",
"N. c #94917A",
"B. c #9A947E",
"V. c #A98D7B",
"C. c #B18576",
"Z. c #A89C7A",
"A. c #968B82",
"S. c #998E84",
"D. c #9E9A83",
"F. c #9B9085",
"G. c #848D92",
"H. c #A09781",
"J. c #A99F8F",
"K. c #AFAC8F",
"L. c #A8A48B",
"P. c #BDAC8A",
"I. c #B0AD90",
"U. c #B0A694",
"Y. c #B5B293",
"T. c #B9B796",
"R. c #BAB29B",
"E. c #B19EA4",
"W. c #B1A1A8",
"Q. c #C2B897",
"!. c #C0B6BB",
"~. c #CCC7A9",
"^. c #B8BFC7",
"/. c #BBCBD3",
"(. c #CCD7DE",
/* pixels */
"j j j j j j j h j O O O j j j j h h h h j j j j j j O O O j j j j j j j j j j j h + + O h h z h h h h h h h h h h h O O O h h h ",
"j j - j j j j j j j O j j j - j h h h h j j h ; j j j O j j j j j j - j j j j j h h O h h h ; h h h h h h h h * z h h O z r h h ",
"j ; - ; ; h - ; j j O j j ; ; ; : h ; ; ; h ; ; - j j O j j - ; j ; ; ; ; j - ; h h O h h ; ; ; - z - - - a - - - h h O h h - - ",
"- - * - ; * - ; ; h O j ; - * ; ; ; ; : ; * ; ; - - j O j ; ; - - - * ; ; * ; ; * a O h - ; * - - - - - - * ; - - - h + h - - - ",
"; * * ; ; ; * ; - * O * - - ; * ; ; * * - - * - ; ; * O * ; ; ; ; * * ; ; - * - - * O * ; - - * - - * * - - * - - ; * O * ; ; ; ",
"* * ; ; * ; ; ; * * O * * - ; ; ; * * ; ; - * * ; * * O * * - * * * - - * ; - ; * * O * * - - - - - * - - - * * ; * * O * * ; * ",
"* * * * * * ; * * * O * * * ; * * * * * 1 * * * * * * O * * * * * * * * * * - * * * O * * * - * * * * * - * * * * * * O * * * * ",
"* * * * * * * * * O O O * * * * * * * * * * * * * * O O O * * * * * * * * * * * * O O O * * * * * * * * * * * * * * O O O * * * ",
"O O O O O O O O O O O O O O O O O O O O O O O O O O O O O + O O @ O O O O O O O O O O O + O O O O O O O O O O O O O O O O O O O ",
"j j j j O O O j h h j j j j j h j j j j j O O O j j j j h j j h r h h h O O O j j j j h r z z h h h h h h O O O h h h r h h h h ",
"j - j j h O h j j j j j j j - j j j h j j j O j j j j j h ; h h h ; h h j O j j j h j j h h ; h h z h z h h O h z h h z h - h h ",
"- - - j j O h h ; - h - ; ; - - ; j - ; j j O j j - ; j - ; ; h ; ; ; h j O j j - : h : - ; ; ; - r - - h h O h h - - h - - - h ",
"; ; ; * h O h * - ; ; - ; ; * ; * ; ; ; * j O j * ; ; ; : 1 : * ; ; ; * j O j * - ; ; ; ; ; * - * - - - * h O h * ; ; ; ; ; ; * ",
"; ; * * * O * * * ; ; ; ; * * - ; : ; * * * O * * * ; * * 8 - ; ; ; * * * + * * * ; ; ; ; * * ; - - ; * * * O * * * ; * * ; ; ; ",
"; * * * * + * * * * ; * * * * * * ; * * * * O * * * * * * - * - 9 * : * : O * * * * ; * * * * * * ; * * * * + * * * * * * * * * ",
"* * * * O O + * * * * * * * * * * * * * * O O O * * * * * * - 9 9 9 8 9 # # # * * * * * * * * * * * * * * O O + * * * * * * * * ",
"O O O O O O O O + O O O O O O O O O O O O O O O O O + # # $ & < 3 < 2 < > & # # + O O O O O O O + + + O O O O O O O O O O O O O ",
"j j j j j j j j h r h h h O O O h h h h h h h h j j j z & , 5 K Y E Y K J m b z j j j h h O O O h h h h r z h h h h z h + + O h ",
"j j j j ; j j j - z z h z h O h h z h h h - z r j j j x m 5 E E y ..3 } S K m b 0 j h h h h O h z h h h h ; z h h h h h h + h h ",
"; ; j ; ; - j ; - - - ; - h O h - - h - - - - z ; 9 0 m J f Q + # $.& & / P K i w ; ; - ; h O h - ; h - - - - h - - - h z o z h ",
"* ; ; : ; ; - ; ; : ; * - - + - - ; - - - * - ; 8 0 0 k Q G 3 < m.L.N.@ a X.P c r 9 ; * : - O - - - ; - - * - - - - * * h O h * ",
"* * * * ; ; * * * * * * * * O * - * * * * * * - 8 0 i S ( z.B.Y.Q.Q.P.V.x.v./ B e : - * * * O * * * * * * * * * * * * * * O * * ",
"* * * * * * * * * * * * * O O O * * * * * * * - 0 i S  .l.Z.j.w.5.3.2.2.2.0.@.S r 9 * * * O O + * * * * * * * * * * * * O O O * ",
"O O O O O O O O O O O O O O O O O O O O O O + $ 2 f ~ l.t.2.,.,.6.6.7.=.-.2.e.D 5 = + O O O O + + O O O O O O O O O O O O O O O ",
"h h j j h O O O h h h h z h h h h h h O O + z n K +.A.r.<.-.=.7.i.u.y.=.:.3.p.D K b z h h h h h h h h O O O h a h h h h h h h h ",
": h h j h h O h h h j j r ; - h h h h h O j b M { f.H.2.-.=.=.=.=.=.=.-.2.C.p...N b z h h ; ; h h h h h O h h h h h h z h z h - ",
"- - z - h h O h j ; h - ; ; ; ; h - h h O z b c R S.g.:.=.=.=.-.,.2.2.2.r.R.` } N q h ; ; ; : ; h - h h O h h - - h ; ; - z - - ",
"- * - - * h O h * ; ; ; - * * ; - - * h O j 9 B ( F.q.:.=.=.=.2.k.E.!.S f U.) E e 9 ; ; ; * * ; ; ; * h O h * ; ; ; ; * - ; - * ",
"- - - = * * O * * * - ; * * ; ; - - * * O * 0 c X.V.5.>.;.=.-.2././.(.G.$ b.U c ; : ; ; * * - - ; * * * O * * * ; - * * * - ; ; ",
"- - * * * * O * * * * * * * * * * * * * O - 0 c ( B.4.y.7.=.=.2.E././.] < %.f i ; * * * * * * * * * * * O * * * * * * * * * * * ",
"* * * * * O O O * * * * * * * * * * * O O + 0 c | m.2.y.8.=.=.<.T P t . ) ~ f 5 - - * * * * * * * * * + O O * * * * * * * * * * ",
"O O O O O O O O O O O O O O O O O O O O O O > y G z.5.>.;.-.,.2.g 7 D #.' D 7 , # O O O O O O O O O O + O O O O O O O O O O O O ",
"h h z h h h h h j O O O j j j j j j j h h z b J ..M.h.2.2.2.s & ^ ~.R.F.*.{ N b z O + O h h z h h h h h h h h h h j O O O j j r ",
"h h - h h h h a j j O j j j ; j z h h h h z b i E s.L.P.4 X X G o _ D.f...K m b z h O h h h - h h h h h z h h ; j j j + j j h z ",
"h ; ; ; - h - ; j j O j j ; - ; - h ; ; - h 9 i Z O.S.! o p.  Y._ o $.&.P K j 0 z h O h h - ; - ; h ; ; ; h - ; ; j j O z z - - ",
"- ; * ; - * - - ; j O j ; - * ; ; ; ; ; ; * 9 r v W d.@ / T.O z.K.2 # G P k r 0 ; h O h ; ; * - ; ; ; ; : * ; ; ; - j O r ; ; - ",
"- * * ; - - * - ; * O * ; - ; * ; ; * * - - - r v P F X N.K.$ ) L.c.# . 3 v 0 w - * O * ; ; ; * ; ; * * ; ; * ; - - * O * - - - ",
"* * ; ; * - - - * * O * * ; ; ; - * * ; 9 ; * 0 c Z a . n.D., 6 D.n.s.a , v r w - * O * * - ; - ; * * ; ; ; * * - * * O * * - * ",
"* * * * * - ; * * * O * * * ; * * * * * 9 * - 9 u B 2 & c.m.&   A b.$./ S k r 9 - * O * * * ; * * * * * ; * * * * * * O * * * * ",
"* * * * * * * * * O + + * * * * * * * * * * * 8 e c , y ` v.$ 5 o 2 @./ S k e : - O + O * * * * * * * * * * * * * * + + + * * * ",
"O O + + + O O O O O O O O O O O + + O O O O # $ , 5 f H ) #.o G ` O $ G C y < $ # O O O O O O O O O O O O O O O + + O o O O O O ",
"a h h h + O O h h h h h j h j j h h j j h O # # n J E ..a.W X v.m.$.O y A d 2 n j j j j h h h h h h h h h O O O h h a h h h h h ",
"h ; h h h O h h j z j h j j ; j h j j h j j # z b N Y ..O.2 > f.f.o.S . E y J n z h j j z h - r h a h z h h O h h z h h h - h h ",
"* - - h z O h h ; ; j ; - - ; - ; h ; ; j j O z b c S | Z X S O.Q ( W . a d J b 9 1 j 8 ; ; - - * h ; ; h h O h h ; - h - - - h ",
"- - - * h O h * - - ; ; ; - * - * ; - - * j # z 9 l S B   5 R I P P F + 3 y J 9 9 ; ; : - - * - * - - - * h O h * ; ; - - ; - * ",
"- - * * * O * * * - ; ; 1 * * - - ; ; * * * # : 0 k p   > I S Z V B B * > 5 0 9 : ; ; ; - - * - - - - * * * O * * * - * * - ; ; ",
"- * * * * O * * * * : * * * * * * ; * * * * + : 0 e 1 1 B c k u i e u u r < 0 : - * : * * * * * * - * * * * + * * * * * * * * * ",
"* * * * O O O * * * * * * * * * * * * * * O O # 9 0 r i k u 0 0 9 9 0 0 , > # - * * * * * * * * * * * * * O O + * * * * * * * * ",
"O o O O O O O O O O O O O O O O + O O O O O # # # > > > < > $ $ # + = + $ $ $ + + O O O O O O O + + + O O O O o + O + + + O O O ",
"h a h h h h h h h h h r h O O O j h h j j j j j z x z b $ # # j z z h h h z h z h h r z h O O O h h h h h h h a h h h h + + O h ",
"h h h h - z h h - z h z h h O z h h h r j ; j j j j j z j # j j h h h h - h h h - h h h z h O h z h h h h - z h h h h h h O h h ",
"- - h - ; ; h - - - - - - h O h ; ; h ; ; ; ; j 9 ; ; j j O j j - - a ; - - h ; - - - - - h + h - ; h - - - - h - - - h h O h h ",
"* - - - - - - - - - - * - - O - - - - - - * ; ; - ; * * j O j * * - ; - - - ; - - - - * - - O - - - - ; - * ; ; - - * * h O h * ",
"* * * * - - * * * * * * * * O - * * * * * * * * * * * * * O * * * * * * - - * * * * * * * * O * * * * * * * * * * * * * * O * * ",
"* * * * * * * * * * * * * O O O * * * * * * * * * * * * O O O * * * * * * * * * * * * * * O O O * * * * * * * * * * * * O O O * ",
"+ + + O + O O O O O O O O O O O O O @ O O O O O O O O O O O O O O + + + O O O O O + + + O O O + O O O O O O O O O O O O O O O O ",
"j j j j h O O O r h h h h h h h h h h + O O j j h h h h h h h h h h h h h O O O z h h h h h h h j j h O O + j j h h h h h h h h ",
"- j j j h h O h h h h z h - - h h h h h + h j j h h h a h h h - ; h h z h h O h h r h h h - - r h j j j O j j h h h h h h h j ; ",
"; ; h ; h h O h h ; h ; - - - - h - h h O h j ; - h - ; - z - - - - z - h h O h z - h - - - - - j ; j j O j h ; - h ; ; ; j ; ; ",
"* * - ; * h O h * - - ; - * - - - : * h O j * ; - - - * - - - * * * - - * h O h * - - - - - * - - - * j O j * : ; ; ; * ; ; ; * ",
": ; ; * * * O * * * - - * * - - - * * * O * * * - ; * * * - - - - - - * * * O * * * - - * * - ; ; * * * O * * * ; : * * * ; ; ; ",
"; ; * * * * O * * * - * * * * * * * * * O * * * * * * * * * - * - - * - * * O * * * - * * * * * * * * * O * * * * * * * * * * * ",
"* * * * * + O O * * * * * * * * * * * O O O * * * * * * * * * * * * * * * O O O * * * * * * * * * * * O O O * * * * * * * * * * ",
"O O O O O O O O o O O O O O O O + + O O O O O O + + + + O O O O O O O O O O O O O O O O O O O O O O O O O O O + O O O O + O O O "
};
