/* XPM */
static char *result[] = {
/* columns rows colors chars-per-pixel */
"64 64 181 2 ",
"   c #161516",
".  c #1B1A19",
"X  c #181617",
"o  c #201F1D",
"O  c #21211E",
"+  c #1D162A",
"@  c #271D2E",
"#  c #281E2E",
"$  c #251E30",
"%  c #252521",
"&  c #2B2A25",
"*  c #2F2E28",
"=  c #302F29",
"-  c #2B2232",
";  c #2B2433",
":  c #302634",
">  c #322936",
",  c #342D39",
"<  c #382E3A",
"1  c #3B3A31",
"2  c #36303C",
"3  c #3A333D",
"4  c #31312A",
"5  c #40363F",
"6  c #49493C",
"7  c #424137",
"8  c #3D2741",
"9  c #3D2841",
"0  c #3E3840",
"q  c #010166",
"w  c #050668",
"e  c #060A6B",
"r  c #090B6B",
"t  c #0B126E",
"y  c #18186E",
"u  c #0F1872",
"i  c #0D1570",
"p  c #111C73",
"a  c #182779",
"s  c #282872",
"d  c #333375",
"f  c #3C3B75",
"g  c #3D3C79",
"h  c #363478",
"j  c #2B2A73",
"k  c #422D44",
"l  c #453046",
"z  c #433C43",
"x  c #473348",
"c  c #4A364A",
"v  c #4E3B4D",
"b  c #523F50",
"n  c #3B5E5C",
"m  c #3D625E",
"M  c #3F6562",
"N  c #4C454A",
"B  c #4B454A",
"V  c #534C4E",
"C  c #5F5E4C",
"Z  c #545344",
"A  c #564353",
"S  c #584655",
"D  c #554E50",
"F  c #5B4957",
"G  c #5C5554",
"H  c #5D5857",
"J  c #575253",
"K  c #635D5A",
"L  c #63515C",
"P  c #41635D",
"I  c #61614E",
"U  c #66605C",
"Y  c #6A645E",
"T  c #6C6C56",
"R  c #73735B",
"E  c #4E4C7D",
"W  c #53527E",
"Q  c #5B5A7C",
"!  c #675760",
"~  c #6D5D64",
"^  c #406662",
"/  c #456B67",
"(  c #516F63",
")  c #5A7768",
"_  c #467172",
"`  c #4A7572",
"'  c #4B787A",
"]  c #6C6462",
"[  c #736E65",
"{  c #796B6D",
"}  c #746469",
"|  c #617C69",
" . c #7B766B",
".. c #6A697E",
"X. c #7A7579",
"o. c #827B6F",
"O. c #847D72",
"+. c #8A7E79",
"@. c #837574",
"#. c #6A836D",
"$. c #778E72",
"%. c #8B8B6C",
"&. c #848367",
"*. c #878373",
"=. c #8C8776",
"-. c #8E8A79",
";. c #8D817B",
":. c #91857E",
">. c #918C7A",
",. c #889B79",
"<. c #929272",
"1. c #95927C",
"2. c #95A67E",
"3. c #233881",
"4. c #2C4788",
"5. c #32508D",
"6. c #375991",
"7. c #3F6597",
"8. c #575582",
"9. c #406798",
"0. c #446E9B",
"q. c #49769F",
"w. c #686583",
"e. c #787585",
"r. c #4C7BA1",
"t. c #857F8C",
"y. c #4F8083",
"u. c #518285",
"i. c #568A86",
"p. c #598E8A",
"a. c #54878A",
"s. c #5B928E",
"d. c #5C949A",
"f. c #619B96",
"g. c #5283A6",
"h. c #578DAA",
"j. c #5D95AE",
"k. c #5F9AB0",
"l. c #619CA6",
"z. c #639FB3",
"x. c #67A6A9",
"c. c #65A3B5",
"v. c #69AAB6",
"b. c #6CADBA",
"n. c #68A7B7",
"m. c #6DB0BB",
"M. c #71B6BE",
"N. c #70B4AE",
"B. c #79C1BB",
"V. c #75BCC1",
"C. c #7BC5C6",
"Z. c #7ECAC6",
"A. c #898685",
"S. c #8B858D",
"D. c #898687",
"F. c #819E8F",
"G. c #999384",
"H. c #9C9689",
"J. c #918E86",
"K. c #A1978A",
"L. c #A39A8D",
"P. c #A69D90",
"I. c #9BAB81",
"U. c #9AAD8B",
"Y. c #9FB69C",
"T. c #A5B285",
"R. c #AAB88B",
"E. c #B1BC89",
"W. c #91B0A3",
"Q. c #88A9A1",
"!. c #BBC48D",
"~. c #B6C08B",
"^. c #C5CC91",
"/. c #C9CF93",
"(. c #81CEC8",
"). c #84D3CD",
"_. c #89D5CF",
"`. c #8DD6D0",
"'. c #8FD8D2",
"]. c #94DAD4",
"[. c #98DBD5",
/* pixels */
"9 9 9 9 9 9 9 9 9       9 9 8 9 9 9 9 9 9 9 9 9 9 9       8 9 9 9 9 9 9 9 9 9 9 8       8 8 8 5 > 8 8 8 8 8 8 8 8 k       8 8 8 ",
"9 9 @ 9 9 8 9 9 9 8   9 9 9 @ 9 9 9 9 9 9 9 9 @ 9 9 9   9 9 9 9 9 9 @ 9 9 9 9 9 8 8   8 8 8 # 8 8 8 8 8 8 8 8 @ 8 8 8   8 8 8 8 ",
"9 @ @ # # 8 # # 9 9   9 9 # @ # @ 9 @ # # 9 @ # # 9 9   9 9 @ # 9 # # # # < @ # 8 5   8 8 # # # # 8 # # @ 8 # @ @ 8 8   < k @ @ ",
"# @ + @ # + @ # # 9   9 # @ + # # # # @ # + # # @ @ 9   9 # # @ @ @ + # # + # # # 8   8 @ @ + @ # # # # # + # @ @ @ k   8 @ @ @ ",
"# + + # # @ + # @ +   + @ # @ + # # + + @ @ + @ # # +   + # # @ @ + + @ # @ + @ @ +   + # @ @ + @ # + + # # + # @ @ +   + @ @ @ ",
"+ + # # + # # # + +   + + @ # # # + + # # @ + + # + +   + + @ + + + @ @ @ @ @ @ + +   + + @ # @ # + + # @ @ + + # + +   + + # + ",
"+ + + + + + # + + +   + + + # + + + + + # + + + + + +   + + + + + + + + + + @ + + +   + + + @ + + + + + @ + + + + + +   + + + + ",
"+ + + + + + + + +       + + + + + + + + + + + + + +       + + + + + + + + + + + +       + + + + + + + + + + + + + +       + + + ",
"                                                                                        X X X     X                 X           ",
"9 9 8 9       8 9 8 9 9 9 9 9 8 9 9 9 9 9       9 9 9 9 9 9 8 9 < k 8 8       9 8 9 9 9 8 8 8 8 8 8 8 8 8       8 8 8 8 8 8 8 8 ",
"9 @ 9 9 8   8 8 8 9 9 9 9 9 @ 9 9 9 9 9 9 9   9 9 9 9 9 9 @ 9 9 8 @ 8 8 8   9 9 9 9 9 9 8 8 @ < 8 8 8 8 8 8   8 8 k < 8 8 # 8 8 ",
"@ @ @ 8 8   8 8 # @ 9 @ # # @ # # 9 @ # 9 9   9 9 @ # 9 @ # # 8 @ @ @ 8 9   9 8 $ # 8 # # # @ @ @ 8 @ @ 8 8   8 8 @ @ 8 # # # 8 ",
"@ # # + 8   8 + @ # # @ # @ + # + # # # + 8   8 + # # # @ @ @ + @ # $ + 8   8 + $ # @ @ @ @ + @ + @ # # + 8   8 + # # # # # # + ",
"@ # + + +   + + + # # @ # + + @ @ @ @ + + +   + + + # + + @ # # @ @ + + +   + + + # @ @ @ + + @ @ @ @ @ + +   + + + # + + # # # ",
"# + + + +   + @ + + @ + + + + + + $ + + + +   + + + + + + + + @ # + @ + + X + + + + @ + + + + + + @ + + + + X + + + + + + + + + ",
"+ + + +       + + + + + + + + + + + + + +       + + + @ @ + @ $ # # $ + X X X + + + @ + + + @ + + + + + +     X + + + + + + + + ",
"                X                         X     X X o o O & & = = 4 & & % O . . X                                               ",
"9 9 9 9 9 9 9 9 8 8 8 8 8       9 9 8 8 8 8 8 k 5 c v A 5 7 6 ~ ~ ~ L L F A v x l k 9 8 8   X   8 8 8 8 9 9 9 9 9 9 k <   X   8 ",
"9 9 9 9 # 9 9 9 @ 8 k 8 9 8 X 9 9 9 9 k k # k x v A L ~ { T ;.:.:.:.;.@.Y ~ L A 3 l k k 8 8 X 8 8 8 8 8 9 # 9 8 9 8 9 9 8   8 8 ",
"# # 9 # # @ 9 # @ @ @ # # 9   9 # # < # # : > b B L [ :.K.<.D.e.e.e.S.G.1.O.@.H N 0 > : # 8   < # @ 8 @ # # @ 8 # # # 9 8   8 8 ",
"+ @ # @ # # @ # $ @ # + @ @   @ @ - @ - - - z D ] O.1.e.d q q q q q q q h e.G. .K V 5 ; - -   @ # # # @ @ + @ @ @ @ + + 8   8 + ",
"+ + + + # # + + + + + + + +   + + + + @ - 0 N ] *.D.a q r 3.9.g.h.g.0.a r q d A.=.] N 3 - @   + + + + + + + + + + + + + +   + + ",
"+ + + + + + + + + + + + + X     + + @ ; 3 V ] -.e.q e 6.V.).)._.].[.]._.m.5.e e e.-.] N 3 O . X + + + + + + + + + + + +       + ",
"                                  X o & 7 I %...q p z.).).).).[.[.[.[.[.'.).j.u w X.&.C 7 & . X X                 X             ",
"9 9 9 9 8       8 8 8 8 k 8 8 8 9 l x 1 Z $.t.q y V.).).).)._.[.[.[.[.[.[._.).m.p w S.J.} S c k 9 9 9       9 8 8 8 9 9 9 9 9 9 ",
"@ 9 8 9 8 8   8 8 8 9 8 < # @ 8 9 x A ! T L.r r m.).).).).)._.[.[.[.[.[.[.`.).).c.e y P.@.V 5 l k 9 9 9   9 9 8 8 8 9 8 9 9 9 # ",
"# # 9 # 8 8   k 8 # 9 # # # # @ k > S } &.w.q q.).).).).).).).'.[.[.[.[.[._.).).).0.q Q =.K z > k @ 9 9   9 8 @ # 8 # # # 8 # # ",
"+ + # # + 8   < + # # # @ + + @ - 2 B @.<.w a M.).).).).).).).)._.].[.].`.).).).).C.u y K.Y B < - # + 9   9 + # # # # + # # # + ",
"# # # + + +   + + + @ # + + @ - : , V  .X.w 7.V.).).).).).).).).).).).).).).).).).).9.q A. .J 3 : + + +   + + + # # + + + # # # ",
"# # + + + +   + + + + + + + + + - 3 G *.Q w k.m.).).).).).).).).).).).).).).).).).).c.q Q *.J 2 # @ + +   + + + + + + + + + + + ",
"+ + + + +       + + + + + + + @ - 0 K %.d t v.m.).).).).).).).p.p.(.).(.i.x.).).).).V.e g -.G 0 ; + +       + + + + + + + + + + ",
"                              X O 1 C <.s i m.m.C.).).).).).(.^ ) ^ i.i.P P N.).).).Z.t j <.C 1 %                               ",
"8 8 8 8 8 8 8 8 9       9 9 9 k x F { L.s u m.m.m.).s.s.N.N.f.M 2.E.,.,.2.f.( (.).).Z.t j L.{ F x k < 8 8 8 8 k < 8       8 8 8 ",
"8 8 # 8 5 8 8 5 9 9   9 9 9 # 9 c S { K.j t v.m.m.C.M ) ( ( #.I././.^.W.U.Q.) i.).).C.r h K.U F x k 8 k 8 8 8 @ k 8 8   8 8 k 8 ",
"8 # @ # @ 8 @ # 9 9   9 9 # @ - > S U <.E e c.m.m.m.i.#.^./././././.^.Y.E.2.2.` (.).c.w 8.-.K z : k @ @ @ 8 @ @ @ 8 k   8 5 @ @ ",
"# # + @ @ + @ @ # 9   9 # @ + # : z H *.w.w r.m.m.m.i.#.R.!./.!././././.^.E.2.` (.C.0.q e.*.V 5 : # @ @ @ @ # @ @ @ 8   8 @ @ @ ",
"# + + # @ @ + @ # +   + - @ @ + - 3 N [ J.w a m.m.m.i.) I.I.T.~.~.~.~.~.E.T.) p.C.b.a w H.[ V > : @ + + @ @ + @ # # +   + @ # @ ",
"+ + # # + @ @ @ + +   + + # # # : - z Y G.g r j.m.m.x.M #.F.I.I.I.I.I.I.%.( M v.m.q.w g <.Y v < @ @ + @ @ @ + + # + +   + + # + ",
"+ + + + + + @ + + +   + + + # + + - 3 D  .D.w a c.m.m.x.M M ( #.#.#.) ( m _ m x.c.a w A. .V k # @ + + + # + + + + + +   + + + + ",
"+ + + + @ + + + +   X X + + + + + $ , z U =.E w 4.v.m.m.a.M #.m ' u.a._ M l./ k.4.q Q %.K z - @ + + + + + + + + + +       + + + ",
"                                X . @ * 6 T <.d q 4.v.M.u.q.j.m v.m.m.d._ b.c.3.e g <.T 6 = @                                   ",
"8 8 8 k       < 9 9 9 9 9 9 9 9 9 9 k v D Z R <.h q a h.x.N.b.d.m.m.m.b.b.g.a q g P.+.~ S c 5 5 8 8 8 8 8       8 8 5 8 8 8 8 8 ",
"8 # 8 8 8   8 8 9 9 9 9 9 9 # 9 9 9 k l v F Z +.P.E w w h r.j.c.v.c.j.q.j e w Q H.+.} F v l # < 8 8 5 8 8 8   8 8 8 8 8 8 # 8 8 ",
"# # # 8 8   8 8 # # 9 # @ @ # @ # 9 # - l v 1 ~ @.>.t.d e w w t t r w q w f S.G.[ L F 3 : : # # @ 8 # # 8 8   8 8 # # 8 @ # # 8 ",
"@ @ @ + 8 X 8 + @ # # # # # + @ + # # $ @ k & F B ] $.1.A.w.W W 8.W W w.J.%.+.K D z 3 : - # + # + @ @ @ + 8   8 + @ @ @ # # @ + ",
"@ @ + + + X + + + @ # # # + + # $ # # + + @ + ; 2 B G K [ *.*.1.1.-.=. .[ I N n 3 < ; - # + + @ @ @ @ + + +   + + + @ + + # @ @ ",
"@ + + + +   + + + + @ + + + + + + # + + + + . % ; > 3 z N V G H U H J D N 7 2 > - @ @ + + + + + + @ + + + +   + + + + + + + + + ",
"+ + + +     X + + + + + + + + + + + + + +       + @ ; ; , 2 3 3 3 0 3 2 & % O @ @ + + + + + + + + + + + +       + + + + + + + + ",
"        X   X X     X X X       X       X   X X X X X X . O O O @ o o o o X X   X                                               ",
"8 8 > 5 8 8 8 8 8 8 8 < 8       8 8 8 8 8 8 8 8 8 8 8 k       9 < k 8 8 8 8 8 5 8 8 8 8 8       8 8 8 5 8 8 8 5 8 8 8 8       8 ",
"8 8 8 8 # 8 8 8 @ 8 8 k 8 8   8 k 8 k < 8 @ 8 < 8 8 8 8 9   8 8 5 8 8 8 @ 8 8 8 # 8 8 8 8 8   8 8 8 8 8 8 # 8 8 8 8 8 8 8   8 8 ",
"# # 8 # # # 8 @ @ @ @ @ @ 8   8 @ @ < # @ @ @ k # # # 8 9   9 8 @ @ k # @ # 8 # # # @ # # 8 X 8 @ @ 8 @ @ # @ 8 # # # 8 8   8 8 ",
"+ # @ # # # @ @ # @ @ + @ @ X @ # @ @ @ @ + # # # # + + 8   8 + + @ @ @ # # # @ @ # @ + @ @ X @ @ @ @ # @ + # # @ @ + + 5   8 + ",
"+ + + + @ @ + + + + + + + +   + + + + + + + + + + + + + +   + + + + + + @ @ + + + + + + + +   + + + + + + + + + + + + + +   + + ",
"+ + + + + + + + + + + + +       + + + + + + + + + + + +       + + + + + + + + + + + + + +   X X + + + + + + + + + + + +       + ",
"X X               X                                                         X         X       X                                 ",
"8 8 < k 8     X 8 8 8 8 8 8 8 8 8 8 8       9 9 8 8 8 8 8 8 8 8 8 8 8 8 8 X X X 8 8 k 8 8 5 8 8 8 8 8   X   8 8 8 8 8 8 8 5 8 8 ",
"@ 8 k 8 8 8   8 < k 8 k 8 @ @ 8 8 8 8 9 X 9 9 9 8 8 8 k 8 8 k # @ 8 8 8 8 8 X < 8 8 8 8 > @ @ 8 8 8 8 8 X 8 8 8 8 8 8 8 8 8 8 @ ",
"@ @ 8 @ 8 8 X 8 k @ 8 @ @ @ @ @ 8 @ 8 8   9 9 # @ k # # @ 8 # # # # 8 # 8 8   8 8 @ 8 # @ # # # 8 @ 8 8 X < 8 # # 8 # # # 8 @ # ",
"+ + @ @ + 8 X < + @ @ @ @ + @ @ @ @ + 8   8 + # @ @ @ + @ @ @ + + + # # + 8   8 + # # # # + + # @ @ + 8 X 8 + @ # # # + # # # + ",
"@ # @ + + +   + + + @ @ + + @ @ @ + + +   + + + @ @ + + + @ @ @ @ # @ + + + X + + + @ @ + + @ @ # + + +   + + + # # + + + # # # ",
"@ @ + + + +   + + + + + + + + + + + + +   + + + @ + + + + + + + # @ + + + + X + + + + + + + + + + + + +   + + + + + + + + + + + ",
"+ + + + +       + + + + + + + + + + +       + + + + + + + + + + + + + + +       + + + + + + + + + + + X     + + + + + + + + + + ",
"X X X X                                                       X X X                 X     X         X X           X             "
};
