/* XPM */
static char *result[] = {
/* columns rows colors chars-per-pixel */
"64 64 184 2 ",
"   c #010101",
".  c #080806",
"X  c #050A0B",
"o  c #0C0C0B",
"O  c #0F110F",
"+  c #12120F",
"@  c #0B1313",
"#  c #0F1B1C",
"$  c #0E1718",
"%  c #161516",
"&  c #181616",
"*  c #101E1F",
"=  c #1C1B1A",
"-  c #1C1B16",
";  c #201F1D",
":  c #21141B",
">  c #21211D",
",  c #131F21",
"<  c #1D162A",
"1  c #271D2E",
"2  c #281E2E",
"3  c #251E30",
"4  c #132325",
"5  c #142728",
"6  c #15292A",
"7  c #182E2F",
"8  c #192F31",
"9  c #1B3335",
"0  c #1D3739",
"q  c #1F3C3E",
"w  c #242421",
"e  c #292723",
"r  c #2D2C25",
"t  c #2D2D2B",
"y  c #34282B",
"u  c #35342C",
"i  c #38372F",
"p  c #38382F",
"a  c #262030",
"s  c #2B2232",
"d  c #2E2835",
"f  c #212D31",
"g  c #312634",
"h  c #332A37",
"j  c #352D39",
"k  c #382F3A",
"l  c #203D3F",
"z  c #3D3C32",
"x  c #36303B",
"c  c #3B333D",
"v  c #3A3A3A",
"b  c #40373F",
"n  c #443F3A",
"m  c #424235",
"M  c #454439",
"N  c #4C4C3D",
"B  c #48473B",
"V  c #3D2741",
"C  c #3D2841",
"Z  c #203E40",
"A  c #3E3840",
"S  c #422D44",
"D  c #453046",
"F  c #433B43",
"G  c #483F45",
"H  c #473348",
"J  c #4A364A",
"K  c #4E3A4D",
"L  c #503D4F",
"P  c #523F50",
"I  c #224244",
"U  c #274B4D",
"Y  c #284C4F",
"T  c #254648",
"R  c #2C4F52",
"E  c #2B5154",
"W  c #2D5659",
"Q  c #2F5A5D",
"!  c #305C5F",
"~  c #305C60",
"^  c #336165",
"/  c #366669",
"(  c #376A6D",
")  c #396D71",
"_  c #3F797E",
"`  c #3D7478",
"'  c #464047",
"]  c #4A4346",
"[  c #4C4549",
"{  c #4D4948",
"}  c #534C4E",
"|  c #504C44",
" . c #555446",
".. c #5E5D4C",
"X. c #585847",
"o. c #554353",
"O. c #584655",
"+. c #5B4957",
"@. c #5D4B58",
"#. c #565152",
"$. c #5B5454",
"%. c #5F5B58",
"&. c #5D5856",
"*. c #615F4E",
"=. c #624C5E",
"-. c #615B55",
";. c #63525D",
":. c #635C5A",
">. c #62624D",
",. c #666553",
"<. c #67625E",
"1. c #6B645D",
"2. c #6B6A55",
"3. c #74745C",
"4. c #675760",
"5. c #695860",
"6. c #407A7F",
"7. c #6C6561",
"8. c #696764",
"9. c #716267",
"0. c #726D65",
"q. c #746569",
"w. c #7B6C6E",
"e. c #757165",
"r. c #797564",
"t. c #7F7F63",
"y. c #7C766B",
"u. c #7E7A6C",
"i. c #7C7575",
"p. c #9A5D7C",
"a. c #817B6D",
"s. c #817473",
"d. c #847C73",
"f. c #858466",
"g. c #88876C",
"h. c #868272",
"j. c #8A8475",
"k. c #8D8977",
"l. c #8E8B79",
"z. c #91867D",
"x. c #918D7A",
"c. c #908C77",
"v. c #95927C",
"b. c #99947E",
"n. c #989678",
"m. c #427E83",
"M. c #BB7096",
"N. c #438186",
"B. c #458489",
"V. c #488A8F",
"C. c #4A8D92",
"Z. c #4F979C",
"A. c #4C9096",
"S. c #529CA1",
"D. c #54A1A7",
"F. c #58A9AF",
"G. c #56A3A9",
"H. c #5BADB4",
"J. c #5EB4BA",
"K. c #60B7BE",
"L. c #63BDC4",
"P. c #65C0C7",
"I. c #67C4CC",
"U. c #6CCED6",
"Y. c #968A81",
"T. c #998E84",
"R. c #9D9A82",
"E. c #888888",
"W. c #A9A788",
"Q. c #B1A894",
"!. c #B5B393",
"~. c #BCB899",
"^. c #B5B5B5",
"/. c gray64",
"(. c #C1BE9C",
"). c #E58AB7",
"_. c #C3BCA2",
"`. c #C4C29E",
"'. c #C6C5A0",
"]. c #C7C7C7",
"[. c #DCDCDC",
"{. c #D2D2D2",
"}. c gray99",
"|. c #E6E6E6",
/* pixels */
"C C C C C C V C C % % % C C C V C C C C C C C C C C % % % C C C C C C C C V V V V % % % V V V V C C C C V V V V V V % % % C C C ",
"C C 1 C C V C C C C % C C C 1 C C C C C C C C 1 C C C % C C C C V C 1 C C k V V V V % V V V 2 V C V C C V S V 2 V V C % C C C C ",
"C 1 1 2 2 V 1 2 C C % C C 2 1 2 1 C 1 2 2 V 2 1 2 C V % C C 2 2 C 2 2 2 2 V 2 2 V V % S V 2 2 2 1 C 1 2 1 k 2 1 2 V V % C C 1 1 ",
"2 1 < 1 2 < 2 2 2 V % C 2 1 < 2 1 2 2 2 2 < 2 2 1 1 C % C 2 1 1 1 1 < 2 2 < 2 2 1 V % k 2 2 < 2 2 1 1 1 1 < 2 2 2 1 C % C 1 2 1 ",
"2 < < 2 2 1 < 2 1 < % < 1 1 2 < 2 2 < < 1 1 < 1 2 2 < % < 2 2 1 2 < < 2 2 2 < 2 1 < % < 2 1 2 < 1 2 < < 1 2 < 1 1 1 < % < 2 2 1 ",
"< < 2 2 < 2 2 2 < < % < < 1 2 2 2 < < 2 2 1 < < 2 < < % < < 1 < < < 2 1 < 2 3 2 < < % < < 1 2 1 2 < < 2 2 1 < < 2 < < % < < 2 < ",
"< < < < < < 2 < < < % < < < 2 < < < < < 2 < < < < < < % < < < < < < < < < < 2 < < < % < < < 2 < < < < < 1 < < < < < < % < < < < ",
"< < < < < < < < < % % % < < < < < < < < < < < < < < % % % < < < < < < < < < < < < % % % < < < < < < < < < < < < < < % % % < < < ",
"% % % % % % % % % % % % % % % % % % % % % % % % % % % % % % % % % % % % % % % % % % % % & & % % % % % % % % % % % % % % % % % % ",
"C C V C % % % V C V C C C C C V C C C C C % % % C C C C V C V C k V V V % % % C V C C C V V V V V V V V V % % % C C k C V S V V ",
"C 2 C C C % V C V C C C C C 1 C C C C C C C % C C C C C C 1 C C V 2 V V C % C V C C V V V V 2 V V C V V V V % V C C C C V 2 V V ",
"2 1 3 C C % V V 1 1 C 1 2 2 1 2 2 C 1 2 C C % C C 1 2 C 1 2 2 C 2 2 2 V V % C V 1 2 C 3 2 2 2 2 2 C 1 1 V V % V C 1 1 C 2 2 2 V ",
"2 2 2 < V % V < 1 2 2 2 2 2 < 2 < 2 2 2 < C % V < 2 2 2 2 2 2 < 2 2 2 < V % V < 1 2 2 2 2 2 < 2 < 2 2 2 < V % V < 2 2 2 2 2 2 < ",
"2 2 < < < % < < < 2 2 2 2 < < 1 2 3 1 < < < % < < < 2 < < 1 2 2 1 2 < < < % < < < 1 2 2 2 < < 2 2 2 2 < < < % < < < 2 < < 2 2 2 ",
"2 < < < < % < < < < 1 < < < < < < 2 < < < < % < < < < < < < < < 2 < < < < % < < < < 2 < < < < < < 3 < < < < % < < < < < < < < < ",
"< < < < % % % < < < < < < < < < < < < < < % % % < < < < < < < < < < < < % % % < < < < < < < < < < < < < < % % % < < < < < < < < ",
"% % % % % % % % % % % % % % % % % % % % % & % % % % % % % % % % % % % % % % % % % % % & % % % % % % % % % % % % % % % % % % % % ",
"C V C C C C C C V V C C C % % % C C C C C C C C C C C C % % % V C C C C V V V S C C C C C % % % C C C V C C C C C C C C % & % C ",
"C C C C 2 C C C 2 V C V C C % C C C C C V 2 C C C C C C V % C S S S S C s S S S g D S S S C % C C C C C C 2 C V C V C C C % C C ",
"2 2 C 2 2 1 C 2 2 2 2 2 2 C % C 2 2 C 2 2 2 2 C 2 3 a C S = D H h g H h h h K c k A k j g S % V 1 2 C 1 1 2 1 V 2 2 2 C C % C C ",
"< 3 1 2 2 2 1 2 3 3 2 < 1 1 % 1 s s s s s < s 2 a 1 < < D > K c A G G G ] ] { } } } [ A c h = s 2 2 3 2 3 < 2 2 2 1 < < C % C < ",
"< < < < 2 2 < < < < < < < < % 1 3 a s s d s 3 3 < < 1 3 d u ' } $.%.:.%.1.7.7.e.w.0.8.#.' j w 1 1 < < < < < < < < < < < < % < < ",
"< < < < < < < < < < < < < % % = a h x A c j d 3 1 < a s u B *.e.r.u.l.l.b.R.R.r. .M ,.y.:.m r > < < < < < < < < < < < < % % % < ",
"% % % % % % % % % % % % % % = > t p B B B M i r > = > t M >.3.r @ + N W.n.f.M         N 3. .i e = % % % % % % % % % % % % % % % ",
"V V V C V % % % V V V V C C S K O.4.7.% z >.4.+.K H J @.q.z.i 8 Z.V.6 + .             . d.s.;.K S C C % % % C C V V C C C C V C ",
"2 V C V V V % V V V V V C s s L ;.w.] X . y.i.;.o.J L ;.s.y.$ L.U.U.I.W                 z a.$.L D S C C % V C C C V C V C C C 2 ",
"2 2 C 2 V V % S V 2 C 2 2 2 g b :.w.M Z # | T.1.[ P F #.u.*.Z U.U.U.U.9 X 8.t =         % h.&.b H 2 C C % C V 1 2 V 2 2 2 V 2 2 ",
"< < 2 2 < V % k < 2 2 2 2 < a F ;.a.M U / % v.a.:.} } &.j.X.Z K.U.U.H.. E.^.v O   v     m d.#.F g 2 < C % C < 1 2 2 2 < 2 2 2 < ",
"2 2 2 < < < % < < < 1 2 < < d c $.u. .I V.# ..R.a.:.-.0.x.3.* V.S.I.m.  [.[..   o |.. : W.h.%.F g < < < % < < < 2 2 < < < 2 2 2 ",
"2 2 < < < < % < < < < < < < 3 x } y.2.5 C.Q o !.R.k.a.c.W.~.> 4 Q L.m.  {.}.].i.{.}.4 >.!.h.$.c s < < < % < < < < < < < < < < < ",
"< < < < < % % % < < < < < < 1 j { 0.h.  B.B.@ >.`.!.Q.!.`.`.n.. 5 U.K.$ t ^.]./.<.O   ; !.h.X.c 3 1 < % % % < < < < < < < < < < ",
"% % % % % % % % % % % % & % = e z >.g.> Z C.) @ > B >.2.>.M % 0 J.U.F.~ 5     @ 5 W B.q r t. .u 1 = % % % % % % % % % % % % % % ",
"S V V V V k V V C % % % V C S H o.9.Y.r.  ` C.F.B.E 9 6 7 Y D.U.U.J.@   q H.H.L.U.U.U.H.. q.q.O.H C C C V V V C C C % % % C C C ",
"V V 1 S V S V V C C % C C C 2 H L 4.s.Q.,.$ _ P.U.U.U.U.U.U.U.U.U.Q       8 ^ ^ U 5 4 X t l.-.o.H S C C V V C 2 C V C & C C C C ",
"V 1 2 2 2 V 1 2 C C % C C 2 2 s k @.8.b.'.> 9 I.U.U.U.U.U.U.U.U.U.T                   - Q.a.$.b g S 2 2 2 V 1 2 2 C C % S V 2 2 ",
"1 1 < 2 1 < 2 1 2 C % C 2 1 < s h F ,.l.b.@ _ U.U.U.U.U.U.U.U.U.U.H., :               o c.0.[ c s 2 2 2 1 < 2 2 2 2 C % V 2 2 2 ",
"1 < < 1 1 1 < 2 2 < % < 2 1 2 < g D #.a.3.6 C.I.U.U.U.U.U.U.U.U.U.L.;.).y             z k.:.G d s 2 < < 2 2 < 2 2 1 < % < 2 2 2 ",
"< < 2 2 < 1 1 2 < < % < < 2 2 2 g h } a.e.6 C.H.U.U.U.U.U.U.U.U.U.B.M.p.R m.U q 9 . f.R.0.} c s 2 < < 2 2 3 < < 1 < < % < < 2 < ",
"< < < < < 1 2 < < < % < < < 2 < 1 j [ 0.t.$ C.C.J.U.U.U.U.U.U.U.U.G.f Q C.C.C.C.` + ~.l.-.F j 1 1 < < < 2 < < < < < < % < < < < ",
"< < < < < < < < < % & & < < < < < d F <.h.+ ) V.C.Z.D.F.H.H.Z.A.V.m./ N.C.B.4 m.) > W.3.} j 3 1 < < < < < < < < < 1 % % & < < < ",
"% % % % % % % % % % % % % % % % = 4 i  .a.N . # C.C.0 E C./           0 C.N.  _ ( r n.,.m e = & % % % % % % % % % % & % % % % & ",
"V V V V % % % V C C C C C C V C S H L ;.s.n.f.  B.C.* . m.U m Q.Q.!.a.@ V.N.  _ Q r v.q.O.J C C V V V V V % % % V h V V V V V V ",
"b 1 V V V % V V C C C C C C 2 C S S H O.9.z.W.  N.C.0   5 @ e._.~.`.W.  B.N.  * . ] d.5.L D s C V V V V V V % S V V V V V 2 C C ",
"1 1 1 V S % V V 2 1 C 2 1 2 2 1 1 S g k ;.y.g.. I U 5 . = r l.T.j.v.T.. ! (   = 3.a.q.[ k g 2 a 2 V 1 2 V V % V V 2 2 V 1 2 2 V ",
"1 1 1 < k % V < 1 2 2 2 1 1 < 1 1 2 s h x 5.,. .v m m ..b.h.e.:.:.w.a.e % % = ,.d.1.} c g s < 2 < 1 2 1 < k % V < 2 2 1 2 2 1 < ",
"1 1 < < < : < < < 1 2 2 2 < < 1 1 2 2 3 d c B -.0.u.h.y.8.:.} [ ] } &.8.e.3.y.e.%.} F j s 1 < 2 1 2 1 < < < % < < < 1 < < 2 2 2 ",
"1 < < < < % < < < < 1 < < < < < < 1 < < 3 d u G { #.#.} ] A x d x x A { #. .#.{ F j j 1 < < < < < 1 < < < < % < < < < < < < < < ",
"< < < < % % % < < < < < < < < < < < < < 3 = w r x x x j g d a a 1 s d x u u u j d s 3 < < < < < < < < < < % % % < < < < < < < < ",
"+ % % % % % % % % % % % % % % % % % % % & = = = > ; > = = = = & = = = > w > > > = = % % % % % % % % % % % % % % % % % % % % % % ",
"V V S V V k V V S V V V V % % % C C C C C C C C C S C C & % % V C C C C C S C C C C C C C % % % C C C C V V V V k S V V % % % V ",
"V V V V 1 S V V 1 V V S V V % V C C C C C 1 C C C C C C C % C C C C C C a C C C 2 C C C C C % C C C C C V 2 V S V V V V V % V V ",
"1 1 V 1 2 1 V 1 1 1 1 1 2 V % V 1 2 C 2 1 2 2 C 2 2 2 C C % C C 1 1 C 2 1 2 C 2 2 2 1 2 1 C % V 2 1 C 1 1 1 1 k 2 1 2 S V % V V ",
"< 1 1 1 2 2 1 1 2 1 2 < 2 2 % 1 2 1 1 1 3 < 2 2 2 2 < < C % C < < 1 2 1 2 2 2 1 2 2 1 < 2 2 % 2 1 a 2 2 1 < 2 2 1 1 < < V % V < ",
"< < < < 1 1 < < < < < < < < % < < < < < < < < < < < < < < % < < < < < < 2 2 < < < < < < < < % < < < < < < < < < < < < < < % < < ",
"< < < < 1 < < < < < < < < % % % < < < < < < < < < < < < % % % < < < < < < < < < < < < < < % % % < < < < < < < < < < < < % % % < ",
"% % % % + % % % % % % % % % % % % % % % % % % % % % % % % % % % % & % % % % % % % % % % % % % % & % % % % % % % % % % % % % % % ",
"C C C C V % % % V V C C V C C C C C C % % % V C C C C C C C C C C C C C C % % % V V V V V C V C C C C % % % C C V V V V C C C C ",
"2 C C C V V % V C V C C C 2 1 C C C C C % C C C C C C C C C C 2 3 C V C C C % C V V V V C 2 1 V V C C C % C C V V V V V C C V 2 ",
"2 2 V 2 V V % V C 2 V 2 2 1 1 2 C 2 C C % C C 2 3 V 2 2 2 C 2 2 2 2 C 2 C C % C S 1 V 2 2 2 2 2 C 1 C C % C C 2 2 V 2 2 2 C 2 2 ",
"< < 2 2 < C % k < 2 2 2 2 < < 1 2 3 < C % C < 2 2 2 2 < 2 2 2 < < < 2 2 < C % C < 2 2 2 2 < < 2 2 1 < C % C < 1 2 2 2 < 2 2 2 < ",
"3 2 2 < < < % < < < 1 a < < 1 2 3 < < < % < < < 2 2 < < < 2 2 2 2 2 2 < < < % < < < 2 2 < < 1 2 2 < < < % < < < 2 3 < < < 2 2 2 ",
"2 2 < < < < % < < < < < < < < < < < < < % < < < < < < < < < < < 2 2 < < < < % < < < < < < < < < < < < < % < < < < < < < < < < < ",
"< < < < < % % % < < < < < < < < < < < % % % < < < < < < < < < < < < < < < % % % < < < < < < < < < < < % % % < < < < < < < < < < ",
"% % % % % % % % % % & % % % % & & % & % % % % % & % % % % % % % % % % % % % % % % % % % % % % % % % % % % % % & % % % % % % % % "
};
