/* XPM */
static char *result[] = {
/* columns rows colors chars-per-pixel */
"64 64 166 2 ",
"   c #050505",
".  c #080806",
"X  c #070708",
"o  c #080708",
"O  c #0C0B0B",
"+  c #12120E",
"@  c #0F0F10",
"#  c #161516",
"$  c #181617",
"%  c #1A1915",
"&  c #1B1A1A",
"*  c #201E1C",
"=  c #23231E",
"-  c #1D162A",
";  c #211F22",
":  c #261D2E",
">  c #281E2E",
",  c #251E30",
"<  c #242423",
"1  c #282723",
"2  c #2B2B25",
"3  c #2D2B2B",
"4  c #312E29",
"5  c #34342C",
"6  c #38372F",
"7  c #3A3A2F",
"8  c #262030",
"9  c #2B2232",
"0  c #2F2B33",
"q  c #302634",
"w  c #312A36",
"e  c #352D39",
"r  c #382F3A",
"t  c #343235",
"y  c #3A3534",
"u  c #3C3C33",
"i  c #373438",
"p  c #3B333D",
"a  c #393939",
"s  c #413E37",
"d  c #423E3A",
"f  c #414136",
"g  c #45453A",
"h  c #4B4A3D",
"j  c #3D2741",
"k  c #3D2841",
"l  c #3F3C41",
"z  c #422D44",
"x  c #453147",
"c  c #443C43",
"v  c #4A3D45",
"b  c #463248",
"n  c #4A364A",
"m  c #4D394C",
"M  c #513D4F",
"N  c #523F50",
"B  c #474344",
"V  c #494245",
"C  c #4C4B43",
"Z  c #4B4449",
"A  c #4E494C",
"S  c #504E44",
"D  c #51404E",
"F  c #524C4C",
"G  c #535243",
"H  c #5B5B47",
"J  c #53524B",
"K  c #59544C",
"L  c #5D5C4B",
"P  c #564353",
"I  c #584655",
"U  c #544E50",
"Y  c #5A4856",
"T  c #5F4D59",
"R  c #565151",
"E  c #5C5453",
"W  c #5E5C55",
"Q  c #555158",
"!  c #5F5A58",
"~  c #605F4D",
"^  c #614F5B",
"/  c #605756",
"(  c #615A57",
")  c #64535D",
"_  c #635D5A",
"`  c #61614D",
"'  c #636254",
"]  c #696757",
"[  c #6B6A54",
"{  c #66625C",
"}  c #6A645E",
"|  c #6D6C5A",
" . c #726F5F",
".. c #75745C",
"X. c #79785F",
"o. c #605C63",
"O. c #6B5B63",
"+. c #6C6562",
"@. c #6E6B63",
"#. c #6C666E",
"$. c #716267",
"%. c #726D64",
"&. c #756569",
"*. c #77686B",
"=. c #786A6C",
"-. c #747166",
";. c #787167",
":. c #7C7A64",
">. c #757268",
",. c #797469",
"<. c #7D796D",
"1. c #6D6770",
"2. c #726C75",
"3. c #7F7171",
"4. c #77717A",
"5. c #78737C",
"6. c #807F64",
"7. c #817B6E",
"8. c #807372",
"9. c #837C72",
"0. c #887B78",
"q. c #838265",
"w. c #838169",
"e. c #89896B",
"r. c #848071",
"t. c #8B8575",
"y. c #8C8976",
"u. c #87867A",
"i. c #8B827B",
"p. c #8D8A7A",
"a. c #90867C",
"s. c #918D7A",
"d. c #949475",
"f. c #95927B",
"g. c #98967D",
"h. c #9B9A78",
"j. c #797C84",
"k. c #7C8289",
"l. c #7E898F",
"z. c #7C9195",
"x. c #7FACAD",
"c. c #938E83",
"v. c #988E85",
"b. c #959486",
"n. c #9A9681",
"m. c #9C9982",
"M. c #9E958B",
"N. c #819095",
"B. c #A19F91",
"V. c #A5A483",
"C. c #ADAD86",
"Z. c #A5A289",
"A. c #ACAA8D",
"S. c #B5B58C",
"D. c #A6A496",
"F. c #AEAC9D",
"G. c #B1AF9F",
"H. c #84ABAC",
"J. c #B4B3A3",
"K. c #B8B6A5",
"L. c #BAB8A7",
"P. c #BEBCAB",
"I. c #C2C196",
"U. c #C6C5A0",
"Y. c #84D0CC",
"T. c #90D0CD",
/* pixels */
"k k k k k k k k j # # # k k k k k k k k k k k k k k # # # k k k k k k k k k k k j @ $ $ j j j j j j j j j j j j j j $ # # j j k ",
"k k : k k k k k k k # k k k : k k j j k k k k : k k k # k k k k k k : k k k k k j d $ j j j > j z j j j j j j : j j j # j j k k ",
"k > : > > j : > k k # k k > > > : j : : > j : > > k k # k k : > k > > > > k > : j j # j j : : > : z : : : z > > > j j # k j > : ",
": : - : > - : > > j # k > : - > > > > : > - > > : : k # k > > : : : - > > - > > > j # j : : - : : : : : : - > : > > j # k : > : ",
"> - - > > > - > , - # - : : > - : : - - : : - > > > - # - > > > > - - > > : - : : - # - > : : - : : - - : > - : : : - # - > > : ",
"- - > > - > > > - - # - - : > > : - - : > > - - > - - # - - : - - - : : - > : > - - # - - : : : : - - > : : - - > - - # - - > - ",
"- - - - - - > - - - # - - - > - - : - - > - - - - - - # - - - - - - - - - - : - - - # - - - : - - - - - > - - - - - - # - - - - ",
"- - - - - - - - - # # # - - - - - - - - - - - - - - # # # - - - - - - - - - - - - # # # - - - - - - - - - - - - - - # # # - - - ",
"# # # # # # # # # # # # # # # # # # # # # # # # # # # # # $ # # # # # # # # # # # # # # # # # # # # # # # # # # # # # # # # # # ",
"k k k k # # # k j j k k k k k j k k k k k # # # k k k k k k k k r z j j # # # k j k k k z j r z j k k k j # # # z r j j j j j j ",
"k > k k j # j k k j k k k k : k k k k k k k # k k k k k k > k k j > j j k # k k k j k k j j > j k k j k j k # k j j j j j > k k ",
"> > , k k # j j > > k : > > : > > j , > k k # k k : > k : > > k > > : j k # k k > > j , > > > > > k : : k j # j j > : j > > > k ",
"> > > - j # j - : > > > > > - > - > > > - k # k - > > > : : , - > > > - j # k - : > > > > > - > - > > > - j # j - > > > > > > - ",
"> > - - - # - - - > > > > - - : , > > - - - # - - - 9 - - : > > : : - - - # - - - : > > > - - > > > > - - - # - - - > - - > > > ",
"> - - - - # - - - - > - - - - - - , - - - - # - - , : : , : - - > - - - - # - - - - > - - - - - - > - - - - # - - - - - - - - - ",
"- - - - # # # - - - - - - - - - - - - - - # # # : , 8 8 8 8 , : - - - - # # # - - - - - - - - - - - - - - # # # - - - - - - - - ",
"# # # # # # # # # # # # # # # # # # # # # # # & = = 2 2 2 1 = & $ $ $ $ $ & $ $ # # # # # # # # # # # # # # # # # $ # # # # # # ",
"k j k k k k k k j j j j j # # $ k j k k k k z x n M M v 6 5 2 n b x x b x b b x x z z z z # $ # k k k k k k k k k k k k # $ # k ",
"k k k k > k k k > j j j k k # k k k k k j , k b m I d X v g ^ Y P P P P c I P P p n b z k j # j k k k k k > k j k j k k k # k k ",
"> > k > > , k > > > > > > k # k > > k > > > 9 b x Z E 3 y ` *.&.( E $._ _ _ $.E U v p e 9 z # j > > j , , > : j > > > k k # k k ",
"- > , > > > > > , > > - : > # > : : 8 8 > - 9 r B Q } 2 K e.b.r.9.t.t.y.s.s.y.9.%._ A e w 9 # > > > > > , - > > > > - - k # k - ",
"- - - - > > - - - - - - - - # - - - - - - - , e B _ <.2 -.h.V.m.g.y.6.| ` C g f S %.! c w , $ - - - - - - - - - - - - - - # - - ",
"- - - - - - - - - - - - - # # # - - - - - - 9 k R >.m.6 7 2 + O   o # * 3 0 y w @ h >.U p < $ # - - - - - - - - - - - - # # # - ",
"# # # # # # # # # # # # # # # # # % # # % * 1 f ` e.H O h y.D.-.$ #.4.4.5.5.5.4.Q # X.L u 1 & # # # # # # # # # # # # # # # # # ",
"j j j j k # # # k k k k z j j j k k k # % * D o.0.7.# @.L.P.P.W 3 2.j.l.5.5.x.N.1.o 9.8.^ n z j k k k # # # k k j j k k k k k j ",
"> j k k k j # k k k k k r > > j k k k k % b P O.i.3 ] L.P.P.P.B p 4.x.T.k.j.Y.H.2.O  .8.^ r 9 j k k k k # k k k k j k j k k k > ",
"> > k > j k # j k > k : > > 8 : j > k k & b P ! %.X c.P.P.P.P.u c 5.k.z.5.5.j.5.#.o %.+.Z r 9 > k > k k # k j > > k > > > j > > ",
"- - > > - j # j - > > > > - - > > , - k & b k ! ,.= W K.P.P.P.u l 5.5.5.5.2.o.i @ 4 ;.E v 9 : : > > - k # k - > > > > - > > > - ",
"> > > - - - # - - - > > - - > > > - - - & , e A ;...# u <.<.<.5 & t 0 1 $ # & g ] <.{ A e , 9 > > - - - # - - - > > - - - > > > ",
"> > - - - - # - - - - - - - - - - - - - & , w V { u.s.h = # . 5 7 f G | d.A.C.g.<._ A p 9 , - - - - - - # - - - - - - - - - - - ",
"- - - - - # # # - - - - - - - - - - - # & & w B _ w.A.U.U.:.= I.U.U.U.U.I.S.h.:.' A i 0 , : - - - - - $ # # - - - - - - - - - - ",
"# # # # # # # # # # # # # # # # # # # # # = 4 g ' e.S.I.S.[ % q.....X.q.h.C.d...G u 1 - % # # # # # # # # # # # # # # # # # # # ",
"j j j j j j j j k # # # k k j k j j z z z n I $.u.6.h = + . @ @ * u y & O % 7.i.$.6 < & k j j j k k k k j j z j j j # # # j j j ",
"j z : j j z j j k k # k k k > j j j j z z m ^ | -.O C >.b.F.L.g W M.M.M.v.K + a.=.^ 1 z j z > j k k r z j j j : j j j # j j j z ",
"j : : : > r > > k k # k k > > > > j > > q N T <.h 3 L.P.P.P.P.u { M.M.M.M.M.O :.9.) 3 z k > > > : z : : > z : > : z r # j j : : ",
": : - : : : > > > k # k > : - > > > > > q l _ y.u C P.P.P.P.P.a { M.M.M.M.M.* ..9.O.5 x > > - > : > > > : - > > : > j # j : : > ",
": - - : > > - > > - # - > , > - > > - : w Z _ f.5 J P.P.P.P.P.g ( M.M.M.M.M.4 ' s.! 7 9 9 > > - : : - - > > - > > > - # - > > > ",
": - : : - > > > - - $ - - > > > > - - > w Z _ b.u C P.P.P.P.P.' S M.M.M.M.M.y H m.+.f 0 : > > > : - - > > > - - : - - # - - > - ",
"- - - - - - > - - - # - - - > - - - - : e V @.m.G 3 F.G.G.G.G.@.4 v.M.M.M.M.d S A.<.C e , - > - - - - - > - - - - - - $ - - - - ",
"- - - - - - - - - # $ $ - - - - - - - - w B -.Z.[   # # # # # @ o $ * 2 2 < O % w.q.G 6 9 - - - - - - - - - - - - - $ $ $ - - - ",
"@ # $ # # # $ # # # # # # # # # # # $ & 3 h ..d.+ O < ; < 1 ; @ $ o # * * ; 3 # # e.` u 1 $ $ # # # # # # # # # $ # # $ @ $ # $ ",
"r z j j # # # z k k k k k k k k j j j x N C X.h t u.t + & # ' B.@.# O a a a a i + ] 3.T m z k z j j j j r # # # d j j j j j j j ",
"j > j j j # j j k k k k k k > k j k z x N _ ..5 F L.>.@ @ @ u.P.K.< O a a a a a # E 3.T m z > k j j j j j j # z j j j j j > j j ",
"> > : j j # j j > > k > > : > : , j > q N ) | s % g & % & & < @.W & o a a a a 1   | *.Z r 9 > > > j > > j j # j j : : j > > > j ",
": : : - j # j - : > > > > : - : - > > 9 w ^ ~ 9.+ + 1 < 3 = w 1 < # o * % @ X $ K >.E c w 9 - > - : : > - j # j - : > : : > > - ",
": : - - - # - - - : > > > - - > , > > : 9 p h %.-.u # + O . . O + # & 6 h ` w.u.-.W V i 9 - - , > > : - - - # - - - : - - > > > ",
"> - - - - # - - - - : - - - - - - > - - , w 6 F } <.y.p.d.d.f.g.m.m.m.n.p.6.>.' F l k 8 : - - - - : - - - - # - - - - - - - - - ",
"- - - - # # # - - - - - - - - - - - - - : * 1 5 Z Q ' @.@.=.;.=.%.@.} { L G h c p w 8 8 - - - - - - - - - # # # - - - - - - - - ",
"# # # # # # # $ # # $ # # # # # # # # # $ & & 1 2 5 u s g g h g g g s u 6 6 2 1 1 & & # # # # # $ # # # # # # # $ # # # # # # # ",
"r j j z z j j j j j j j j # # # k k k k k k z z x b n n 1 1 2 m M n n b b b x z z k k k k # # # z j j j j j j j z j k j # # # k ",
"r z j j : j j j : j j j k k # k k k k k k : k k r z z k z & z z z z z z 8 z k k : k k k k k # k j j j j j : j j j j j j k # j k ",
": : j : > > j > : : > > > k # k : > k > > > 8 k > 8 8 k j # j j : : r > : > k > > > : > > k # j > : j : : > : j > : > j k # k k ",
"- : > > > > : : > > > - > > # , > : : > , - > > > > - - e # j - - : > : > > > : : > : - > > # > > > > > > - > > : : - - k # k - ",
"- - - - : > - - - - - - - - # - - - - - - - - - - : - - - # - - - - - - > > - - - - - - - - # - - - - - - - - - - - - - - # - - ",
"- - - - - - - - - - - - - # # # - - - - - - - - - - - - # # $ - - - - - - - - - - - - - - # # # - - - - - - - - - - - - # # # - ",
"# $ @ $ # # # # # # # # # # # # # # # # # # # # # # # # # # # # # # # # # # # # # # # # # # # # # # # # # # # # # # # # # # # # ",
"k k k k k # # # k k k k k k k k k k k # # # k k k k k k k k j j j j j k k # # # j k z j j j k k k k k # # # k k k k k k k k k k ",
": k k k k k # k j z k k k > : k k k k k # k k k k k k k k k k > > j j k k k # k j j j j k : : j j k k k # k k j k k k k k k k > ",
"> > k > k k # k j > j > > : : > k > k k # k k > > k > > > k > > > > j > k k # k j > j > > > > > k > k k # k j > > k > > > k : > ",
"- - : > - k # k - : : > > - - : > , - k # k - > > > > - > : > - - - > > - k # k - > > > > - - > : > - k # k - : : > > - > > > - ",
": > > - - - # - - - > > - - : 8 , - - - # - - - > > - - - > > > : : > - - - # - - - > > - - : > > - - - # - - - , , - - - > > > ",
"> > - - - - # - - - - - - - - - - - - - # - - - - - - - - - - - : : : - - - # - - - - - - - - - - - - - # - - - - - - - - - - - ",
"- - - - - # # # - - - - - - - - - - - # # % - - - - - - - - - - - - - - - # # # - - - - - - - - - - - # # # - - - - - - - - - - ",
"# # # # # # # # # # # # # # # $ # # # # # $ # # # # # # # # # # # # # # # # # # # # # # $ # # # # # # # # # # $ # # # # % # # # "
};
