/* XPM */
static char *result[] = {
/* columns rows colors chars-per-pixel */
"64 64 171 2 ",
"   c #000101",
".  c #000C03",
"X  c #080806",
"o  c #0B0B09",
"O  c #001306",
"+  c #011D02",
"@  c #001D0A",
"#  c #12120E",
"$  c #161516",
"%  c #181616",
"&  c #1B1A16",
"*  c #1C1B1A",
"=  c #201F1D",
"-  c #012001",
";  c #022A02",
":  c #00250D",
">  c #002B0F",
",  c #033D03",
"<  c #023502",
"1  c #003612",
"2  c #003C14",
"3  c #22221F",
"4  c #1D162A",
"5  c #261D2E",
"6  c #281E2E",
"7  c #251E30",
"8  c #252522",
"9  c #292723",
"0  c #2B2B24",
"q  c #2D2D2B",
"w  c #312F29",
"e  c #35352C",
"r  c #262030",
"t  c #2B2232",
"y  c #2E2835",
"u  c #312634",
"i  c #322A36",
"p  c #342D39",
"a  c #382E3A",
"s  c #313131",
"d  c #3B3A31",
"f  c #36303B",
"g  c #3C333D",
"h  c #40373F",
"j  c #034203",
"k  c #034903",
"l  c #035C0E",
"z  c #004317",
"x  c #004B19",
"c  c #00541C",
"v  c #005C1F",
"b  c #026917",
"n  c #01711C",
"m  c #005E20",
"M  c #006321",
"N  c #006822",
"B  c #007426",
"V  c #007A29",
"C  c #404035",
"Z  c #46433A",
"A  c #4C4B3E",
"S  c #3D2741",
"D  c #3D2841",
"F  c #3E3840",
"G  c #412D44",
"H  c #453147",
"J  c #433C43",
"K  c #483F45",
"L  c #473248",
"P  c #4A364A",
"I  c #4D3A4D",
"U  c #503D4F",
"Y  c #523F50",
"T  c #474447",
"R  c #494147",
"E  c #4C4549",
"W  c #4E4B4D",
"Q  c #514E44",
"!  c #524B4D",
"~  c #545244",
"^  c #585847",
"/  c #5A564C",
"(  c #5C5A4B",
")  c #544252",
"_  c #574F50",
"`  c #5C4A57",
"'  c #5E4D59",
"]  c #565152",
"[  c #5A5453",
"{  c #5E5958",
"}  c #614F5B",
"|  c #605756",
" . c #615B55",
".. c #63525D",
"X. c #635D5A",
"o. c #64644E",
"O. c #646352",
"+. c #686750",
"@. c #6B6B55",
"#. c #66615C",
"$. c #6A645D",
"%. c #6F6C5A",
"&. c #74735C",
"*. c #6A5A62",
"=. c #6D6363",
"-. c #6D6861",
";. c #716166",
":. c #726E65",
">. c #76676A",
",. c #77686B",
"<. c #7B6C6D",
"1. c #767264",
"2. c #787167",
"3. c #7E7C65",
"4. c #777369",
"5. c #7B766A",
"6. c #7F7A6B",
"7. c #827F6A",
"8. c #817473",
"9. c #857B74",
"0. c #887A77",
"q. c #8B7E79",
"w. c #00822C",
"e. c #008E2D",
"r. c #018326",
"t. c #00922F",
"y. c #009431",
"u. c #009933",
"i. c #828265",
"p. c #83816B",
"a. c #88866E",
"s. c #8C8C6E",
"d. c #878373",
"f. c #8A8575",
"g. c #8D8B73",
"h. c #8F887A",
"j. c #92867E",
"k. c #918C79",
"l. c #929272",
"z. c #95917B",
"x. c #9B9B79",
"c. c #8C8C8C",
"v. c #968B82",
"b. c #9B9384",
"n. c #9F9C85",
"m. c gray58",
"M. c #A59D8C",
"N. c #A89F8F",
"B. c #A7A781",
"V. c #AAA68B",
"C. c #AEAA8E",
"Z. c #ABAB84",
"A. c #B4B48B",
"S. c #AFA993",
"D. c #ADA492",
"F. c #B0A993",
"G. c #BEB79F",
"H. c #BEB99D",
"J. c gray75",
"K. c #C2C09D",
"L. c #C6C0A4",
"P. c #CEC9AA",
"I. c #C9C6A2",
"U. c #CBCBCB",
"Y. c gray77",
"T. c LightGray",
"R. c gray86",
"E. c gray92",
"W. c #E4E4E4",
"Q. c gray96",
"!. c #FFFFFF",
/* pixels */
"D D D D D D D D D $ $ $ D D D D D D D D D D D D D D $ $ $ S S S S S D D D D D D S # $ $ S S G S S S S S S S S S S S $ $ $ S S S ",
"D D 5 D D S D D S D $ D D D 5 D D S D D D S D 5 D D D $ G a S S S S 5 D D D D D S S $ S S S 6 S S S S S S S G 5 S S S $ S S S S ",
"D 6 5 6 6 S 5 6 D D $ D D 6 5 6 5 S 5 6 6 S 6 6 5 D D $ D D 6 6 S 6 6 6 6 S 5 6 S h $ S S 6 6 6 5 S 5 6 5 a 5 5 5 G a $ S S 6 6 ",
"5 5 4 5 6 4 6 6 6 D $ D 6 5 4 6 6 6 6 5 6 4 6 6 5 5 D $ D 6 5 5 6 6 4 6 6 4 6 6 6 S $ S 6 6 4 6 5 6 5 6 5 4 5 5 5 5 S $ S 6 6 6 ",
"6 4 4 6 6 6 4 6 5 4 $ 4 5 6 5 4 6 5 4 4 5 5 4 5 6 6 4 $ 4 6 6 6 6 4 4 6 6 5 4 5 5 4 $ 4 6 5 5 4 5 5 4 4 5 5 4 5 5 5 4 $ 4 6 6 6 ",
"4 4 6 6 4 6 6 6 4 4 $ 4 4 5 6 6 6 4 4 6 6 6 4 4 6 4 4 $ 4 4 5 4 4 4 5 5 4 6 5 6 4 4 $ 4 4 5 5 5 5 5 4 5 5 5 4 4 5 4 4 $ 4 4 5 4 ",
"4 4 4 4 4 4 6 4 4 4 $ 4 4 4 6 4 4 4 4 4 t 4 4 4 4 4 4 $ 4 4 4 4 4 4 4 4 4 4 6 4 4 4 $ 4 4 4 5 4 4 4 4 4 5 4 4 4 4 4 4 $ 4 4 4 4 ",
"4 4 4 4 4 4 4 4 4 $ $ $ 4 4 4 4 4 4 4 4 4 4 4 4 4 4 $ $ $ 4 4 4 4 4 4 4 4 4 4 4 4 $ $ $ 4 4 4 4 4 4 4 4 4 4 4 5 4 4 $ $ $ 4 4 4 ",
"$ $ $ $ $ $ $ $ $ $ $ $ $ $ $ $ $ $ $ $ $ $ $ $ $ $ $ $ $ $ $ $ $ % $ $ $ $ $ $ $ $ $ $ $ $ $ $ $ $ $ $ $ $ $ $ $ $ $ $ $ $ $ $ ",
"D D S D $ $ $ D D S D D D D D S D D D D D $ $ $ D D D D S S S S a S S S $ $ $ D S D D D G S a G D S D D S $ $ $ S G S S S S S S ",
"D 7 D D S $ S D D S D D D D 5 D D D S D D D $ D D D D D S 6 S S S 5 S S D $ D D D D D D S S 6 S D D S D S S $ S S S S S S 6 S S ",
"6 6 7 D D $ S S 6 5 D 5 6 6 5 6 6 D 5 6 D D $ D D 5 6 S 5 6 6 S 6 6 6 D S $ D D 5 5 D 5 6 6 6 6 6 D 5 5 S S $ S S 5 5 S 6 6 6 S ",
"6 6 6 4 S $ S 4 5 6 6 6 6 6 4 6 4 6 6 6 4 D $ S 4 6 6 6 5 6 6 4 6 6 7 4 D $ S 4 5 7 6 6 6 6 4 6 4 6 6 6 4 S $ S 4 6 6 6 6 6 6 4 ",
"6 6 4 4 4 $ 4 4 4 6 6 6 6 4 4 5 6 6 5 4 4 4 $ 4 4 4 6 4 4 7 6 6 5 6 4 4 4 $ 4 4 4 6 6 6 6 4 4 6 6 6 6 4 4 4 $ 4 4 4 6 4 4 6 6 6 ",
"5 4 4 4 4 $ 4 4 4 4 6 4 4 4 4 4 4 7 4 4 4 4 $ 4 4 4 4 4 4 4 4 4 7 4 4 4 4 $ 4 4 4 4 6 4 4 4 4 4 4 6 4 4 4 4 $ 4 4 4 4 4 4 4 4 4 ",
"4 4 4 5 $ $ $ 4 4 4 4 4 4 4 4 4 4 4 4 4 4 $ $ $ 4 4 4 4 4 4 5 5 5 5 7 4 * $ $ 4 4 4 4 4 4 4 4 4 4 4 4 4 4 $ $ $ 4 4 4 4 4 4 4 4 ",
"$ $ $ $ $ $ $ $ $ $ $ $ $ $ $ $ $ $ $ $ $ $ $ $ $ $ $ $ $ * = = 3 3 3 = * * % $ $ $ $ $ $ $ $ $ $ $ $ $ $ $ $ $ $ $ $ $ $ $ $ $ ",
"S a S S S S S S S S S S S $ $ % D S D D D D D S S G S S * * 8 I ) ) U I H G D D S S S S S $ $ $ D D D D D D D D D D D D $ % $ D ",
"S G S S 6 S S S 6 S S G S S $ D S D D D S 5 D D a S D D H 8 Y ' } } ` ) a H G D 5 S G a S S $ G D D S D D 6 D D D D D D D $ D D ",
"5 5 S 6 6 6 S 6 6 6 6 5 6 S $ D 6 6 D 6 6 6 6 D 5 t t L I e *.*.9 $ g E J p G 6 6 5 5 5 5 S $ S 5 6 D 5 5 6 5 D 6 6 6 D D $ D D ",
"4 6 6 7 6 6 5 5 7 5 5 4 5 6 $ 6 6 7 5 5 6 4 5 6 r t r y ` A <.:.# Q 8 | E g i t 6 6 5 4 5 5 $ 5 6 6 6 5 6 4 5 6 6 5 4 4 D $ D 4 ",
"4 4 4 4 6 6 4 4 4 4 4 4 4 4 $ 4 4 4 4 4 4 4 4 4 5 r p J ] @.d.Z A Q 1.:.| R i 5 5 4 4 4 4 4 $ 4 4 4 4 4 4 4 4 4 4 4 4 4 4 $ 4 4 ",
"4 4 4 4 4 4 4 4 4 4 4 4 4 $ $ $ 4 4 4 4 4 4 4 5 r p J { &.l.x.3 g.A.C.k.:._ J u 5 4 4 4 4 $ $ $ 4 4 4 4 4 4 4 4 4 4 4 4 $ $ $ 4 ",
"$ $ $ $ $ $ $ $ $ $ $ $ $ $ $ $ $ $ $ $ $ $ $ * 9 d ~ &.i.0         0 p.l.@.Q e = 5 % $ $ $ $ $ $ $ $ $ $ $ $ $ $ $ $ $ $ $ $ $ ",
"S S S D S $ $ $ S S S S S S S S D D D $ $ $ G H ) *.0.h.o   2 M b 2     ^ l.@.T ) P G G a G S S D D D $ $ $ D S S S D S D D G S ",
"5 S D D S S $ S S S S S a 6 5 G D D D D % D G I ' ,.b.e   B u.y.c :       Z s.5.} U G G S 5 5 S D D D D $ D D S D S D D D D S 6 ",
"5 6 G 6 S S $ G S 6 S 6 6 6 6 6 S 6 D G % D H g _ 0.k.X 2 y.V O   # W T #   o.j.;.J L 7 5 5 5 5 D 6 D D $ D S 5 7 S 6 6 6 S 6 6 ",
"4 4 6 6 4 S $ a 4 6 6 6 5 4 4 6 6 6 4 S $ D t J | f.(   B w.. o c.Q.!.!.Q.9 X b.#.E a t 5 5 4 5 6 6 4 D $ D 4 5 6 6 6 4 6 6 6 4 ",
"6 6 6 4 4 4 $ 4 4 4 6 6 4 4 6 6 6 4 4 4 $ 5 t F $.z.e   y.2   J.!.!.T.T.!.c.  1.:.E g y 4 4 5 5 6 4 4 4 $ 4 4 4 6 6 4 4 4 6 6 6 ",
"6 5 4 4 4 4 $ 4 4 4 4 4 4 4 4 4 4 4 4 4 $ 4 y T -.M.% : u.@ 3 !.!.W.X s U.T.  O.5.! p 7 4 4 4 4 4 5 4 4 $ 4 4 4 4 4 4 4 4 4 4 4 ",
"4 4 4 4 4 $ $ $ 4 4 4 4 4 4 4 4 4 4 4 $ $ * p W 4.V.X 2 u.@ i !.!.W.o $ T.U.  o.5.! p 5 4 4 4 4 4 4 4 $ $ $ 4 4 4 4 4 4 4 4 4 4 ",
"$ $ $ $ $ $ $ $ $ $ $ $ $ $ $ $ $ $ $ $ * 8 e ~ i.B.  x u.> X R.!.!.R.R.!.m.  7.&.A e * $ $ $ $ $ $ $ $ $ $ $ $ $ $ $ $ $ $ $ $ ",
"G a S S D S S S D $ $ $ D D S S S S S G L U ..8.D.g.  M u.V   q E.!.!.!.!.W   F.j.Q w = G D G S S S S S S D D G a S $ $ $ S S S ",
"S G 6 S G S S S D D $ D D D 6 S S G G H U } <.d.G.d   w.u.u.c   * c.Y.U.c.X Q L.b.,.d I H G 7 G S S D D S S D 6 S S S $ S S G S ",
"S 5 6 6 6 S 6 6 D D $ D D 6 5 5 6 G i h E >.d.C.g.  + y.u.u.u.v .           p.I.D.f.~ ` I u t 6 6 S 6 6 6 S 5 6 5 G G $ S h 5 6 ",
"5 5 4 6 5 4 6 6 6 D $ D 6 5 4 5 u p h ! $.7.C.%.X   j t.u.u.u.u.y.B m m N   * a.H.M.%.;.E g t 6 6 6 6 6 5 4 6 6 5 5 S $ S 6 5 6 ",
"5 4 4 5 6 6 4 6 6 4 $ 4 6 5 6 5 u g R X.f.z.3   . j k r.u.u.u.u.u.u.u.u.u.M .   # A s.6. .R g 6 t 6 4 4 5 5 4 5 6 5 4 $ 4 5 5 5 ",
"4 4 6 5 4 6 6 6 4 4 $ 4 4 6 6 u a K { f.p.#   - k k k b u.u.u.u.u.u.u.u.u.u.e.v @   # p.2.[ J i t 4 5 7 6 5 4 4 5 4 4 $ 4 4 5 4 ",
"4 4 4 4 4 4 6 4 4 4 $ 4 4 4 t 7 f _ 4.6.X   < k k k k k e.u.u.u.u.u.u.u.u.y.u.u.u.M   $ f.#.E i 5 4 4 4 6 4 4 4 4 4 4 $ 4 4 4 4 ",
"4 4 4 4 4 4 4 4 4 $ % % 4 4 5 y J  .d.*   , k k k k k , l u.u.u.u.u.u.u.c 1 c y.u.u.v   ( :.! p 5 4 4 4 4 4 4 4 4 4 $ $ % 4 4 4 ",
"$ $ $ $ $ $ $ $ $ $ $ $ $ $ * 9 C O.+.  ; k k k k k +   . n u.u.u.u.y.@       O B u.y.O & &.A w = % $ $ $ $ $ $ % % $ $ $ $ $ % ",
"a G G S $ $ $ S D D S D D D G I *.5.Q   , k k k k +   $   ; t.u.u.u.>   +.V.i.o   z B O % 0...) G S S S h $ $ $ S S S S S S S S ",
"S 5 S S S $ S S D D D S D D t I ` <.-.  + j , ; O   d H.& . n u.u.b   / P.A.G.V.9        .<.! I H G S S S S $ S S S G S S 6 S S ",
"5 5 5 S S $ G S 6 6 S 6 6 6 t p J *.6.w         o %.K.P.&.  + b B . $ S.n.3.v.v.k.%./ $.:.[ J p t S 5 5 S S $ S S 6 5 a 6 6 6 S ",
"5 5 5 4 S $ S 4 5 5 6 6 5 5 5 y p E X.6.#./ ~ 6.z.b.z.b.V.e         6.f.6./ *.[ #.$.-.X._ K i u 5 5 5 5 4 S $ S 4 5 6 6 5 6 5 4 ",
"5 5 4 4 4 $ 4 4 4 5 6 6 5 4 4 t p J ! [ $.:.&.1.-.*.$.-.5.h.( e d 1.5.{ E d F F J E E K J y r t 5 6 6 4 4 4 $ 4 4 4 6 4 4 6 5 5 ",
"6 4 4 4 4 $ 4 4 4 4 5 4 4 4 4 5 7 i p F R ! Z W T K J T ! X.-.1.2.#.] K p 8 t t t t p y 7 5 5 4 4 5 4 4 4 4 $ 4 4 4 4 4 4 4 4 4 ",
"4 4 4 4 $ $ $ 4 4 4 4 4 4 4 4 4 4 5 t t i 0 0 0 y y y y F F R W E K F i 8 * * 4 5 5 7 4 5 4 4 4 4 4 4 4 4 $ $ $ 4 4 4 4 4 4 4 4 ",
"$ % % % % $ $ $ $ $ $ $ $ $ $ $ $ % * * * * * * * * * * 8 8 0 0 0 9 8 = * % $ $ $ $ $ $ $ $ $ $ $ $ $ $ $ $ $ $ $ $ $ $ $ $ $ $ ",
"h u S S S S S S S G G S a $ $ $ D S S D D D D D G D D G * * * H G G G D D S S S D D D D D $ $ $ S S a G S G S S S S S S $ $ $ S ",
"S S S S 6 G S S 5 S G S G S $ S S S S a D 5 D D D D D D D % D D G D G S 7 S G S 6 D D D D D $ S S S S S S 6 S S S G a S S $ S S ",
"5 5 S 5 6 6 S 5 5 5 5 5 5 S $ S 6 6 S 6 t 6 6 D 6 6 7 D D $ D D 7 7 D 6 6 6 a 6 6 6 5 6 6 D $ S 6 5 S 5 5 6 6 S 6 5 5 S S % S S ",
"4 5 5 6 6 6 5 5 6 5 5 4 5 5 $ 5 r 6 6 6 5 4 6 6 6 6 4 4 S $ D 4 5 5 5 5 6 6 6 5 5 6 5 4 6 6 $ 6 5 6 5 6 5 4 6 6 5 5 4 4 S $ G 4 ",
"4 4 4 4 5 6 4 4 4 4 4 4 4 4 $ 4 4 4 4 4 4 4 4 4 4 4 4 4 4 $ 4 4 4 4 4 4 6 6 4 4 4 4 4 4 4 4 $ 4 4 4 4 4 4 4 4 4 4 4 4 4 4 $ 4 4 ",
"4 4 4 4 4 4 4 4 4 4 4 4 4 $ $ $ 4 4 4 4 4 4 4 4 4 4 4 4 $ $ $ 4 4 4 4 4 4 4 4 4 4 4 4 4 4 $ $ $ 4 4 4 4 4 4 4 4 4 4 4 4 $ $ $ 4 ",
"$ $ $ $ $ $ $ $ $ $ $ $ $ $ $ $ $ $ $ $ $ $ $ $ $ $ $ $ $ $ $ $ $ $ $ $ $ $ $ $ $ $ $ $ $ $ $ $ % $ $ $ $ $ $ $ $ $ $ $ $ $ $ $ ",
"S S a G S $ $ $ G S G a S S S S D D D $ $ $ D D D D D D D D S S S S S D D $ $ $ S S G S S S D D D D D $ $ $ S S S S S S S S G S ",
"5 S S S S S $ S S S S S S 5 5 S D D D D $ D D D D D D D D S S 6 5 S S S D D $ D S S S S D 5 5 S S D D S $ S S S S S S S S S S 6 ",
"5 5 G 5 S S $ S S 6 G 5 6 5 6 6 D 5 D D $ D D 6 5 D 6 6 6 D 5 6 6 6 S 6 D D $ D S 6 S 6 6 6 6 6 D 6 D D $ S S 6 6 S 6 5 6 S 6 6 ",
"4 4 5 5 4 S $ G 4 5 5 5 6 4 4 5 5 5 4 D $ D 4 6 6 6 6 4 6 6 5 4 4 4 6 6 4 D $ D 4 6 6 6 6 4 4 6 5 6 4 D $ S 4 7 6 6 6 4 6 6 6 4 ",
"5 6 6 4 4 4 $ 4 4 4 5 6 4 4 6 6 7 4 4 4 $ 4 4 4 6 6 4 4 4 7 6 5 6 6 6 4 4 4 $ 4 4 4 6 6 4 4 5 6 6 4 4 4 $ 4 4 4 5 7 4 4 4 6 6 6 ",
"5 5 4 4 4 4 $ 4 4 4 4 4 4 4 4 4 4 4 4 4 $ 4 4 4 4 4 4 4 4 4 5 4 6 6 4 4 4 4 $ 4 4 4 4 4 4 4 4 4 4 4 4 4 $ 4 4 4 5 4 4 4 4 4 4 4 ",
"4 4 4 4 4 $ $ $ 4 4 4 4 4 4 4 4 4 4 4 $ $ $ 4 4 4 4 4 4 4 4 4 4 4 4 4 4 4 $ $ $ 4 4 4 4 4 4 4 4 4 4 4 $ $ $ 4 4 4 4 4 4 4 4 4 4 ",
"$ $ $ % $ $ $ $ $ $ $ $ $ $ $ $ $ % % % $ $ $ $ $ $ $ $ $ $ $ $ $ $ $ $ $ $ $ $ $ $ $ $ % $ $ $ $ $ $ $ $ $ $ $ $ # $ $ $ $ $ $ "
};
