/* XPM */
static char *result[] = {
/* columns rows colors chars-per-pixel */
"64 64 180 2 ",
"   c #020202",
".  c #0B0C0B",
"X  c #060808",
"o  c #12110E",
"O  c #0A1111",
"+  c #0E1C1C",
"@  c #161516",
"#  c #1A1915",
"$  c #1B1A19",
"%  c #181617",
"&  c #201F1D",
"*  c #22211E",
"=  c #28281F",
"-  c #1D162A",
";  c #271D2E",
":  c #281E2E",
">  c #251E30",
",  c #1F2123",
"<  c #142828",
"1  c #1A3434",
"2  c #232423",
"3  c #292723",
"4  c #2C2B25",
"5  c #242528",
"6  c #302F29",
"7  c #34342C",
"8  c #39382F",
"9  c #262030",
"0  c #2B2231",
"q  c #2C2F32",
"w  c #312634",
"e  c #332A37",
"r  c #352D39",
"t  c #303336",
"y  c #3C3B32",
"u  c #33363A",
"i  c #3B343E",
"p  c #383B3F",
"a  c #373A3E",
"s  c #403B39",
"d  c #424136",
"f  c #464539",
"g  c #4A493C",
"h  c #49473C",
"j  c #3D2741",
"k  c #3D2841",
"l  c #3D3740",
"z  c #3D3B41",
"x  c #412D44",
"c  c #453147",
"v  c #423B43",
"b  c #483F45",
"n  c #473248",
"m  c #493549",
"M  c #4E3B4D",
"N  c #503D4F",
"B  c #523F50",
"V  c #214242",
"C  c #244848",
"Z  c #3E4146",
"A  c #2B5454",
"S  c #326464",
"D  c #3E7C7C",
"F  c #494147",
"G  c #4E4D40",
"H  c #4A4449",
"J  c #45484D",
"K  c #48474B",
"L  c #524B4E",
"P  c #504E45",
"I  c #535344",
"U  c #575548",
"Y  c #5B5A4A",
"T  c #5B5B46",
"R  c #4A4D53",
"E  c #544152",
"W  c #584655",
"Q  c #5B4957",
"!  c #5D4B58",
"~  c #4E5157",
"^  c #575252",
"/  c #5B5554",
"(  c #5E5B54",
")  c #51555B",
"_  c #5F5A58",
"`  c #55595F",
"'  c #605F4E",
"]  c #604F5B",
"[  c #63525D",
"{  c #635E5A",
"}  c #615957",
"|  c #63634D",
" . c #6B6B55",
".. c #66615C",
"X. c #69635C",
"o. c #6D6B5C",
"O. c #716F5C",
"+. c #78775E",
"@. c #585C62",
"#. c #6D5D64",
"$. c #5D6268",
"%. c #6F6A63",
"&. c #61646C",
"*. c #726D64",
"=. c #76666A",
"-. c #77686B",
";. c #7B6C6E",
":. c #757164",
">. c #7C7C63",
",. c #777369",
"<. c #7A7569",
"1. c #7E7A6B",
"2. c #797763",
"3. c #6A6E76",
"4. c #6D727A",
"5. c #837D6E",
"6. c #827473",
"7. c #837C72",
"8. c #8C7F7A",
"9. c #86846C",
"0. c #8D8C6E",
"q. c #838366",
"w. c #868272",
"e. c #888374",
"r. c #8D8977",
"t. c #8E827C",
"y. c #91857E",
"u. c #938D7B",
"i. c #939372",
"p. c #96927D",
"a. c #9E9D7B",
"s. c #757A82",
"d. c #787D86",
"f. c #7A7F88",
"g. c #418282",
"h. c #499191",
"j. c #4E9A9A",
"k. c #7C828B",
"l. c #57AEAE",
"z. c #5AB3B3",
"x. c #65BCBC",
"c. c #62C3C3",
"v. c #66CCCC",
"b. c #6DCFCF",
"n. c #7CD3D3",
"m. c #71D0D0",
"M. c #80868F",
"N. c #958A81",
"B. c #9B9483",
"V. c #9E9984",
"C. c #848993",
"Z. c #8E949E",
"A. c #A1988A",
"S. c #ABA986",
"D. c #B4AE96",
"F. c #BCB99B",
"G. c #B9B29B",
"H. c #939AA4",
"J. c #989FAA",
"K. c #949AA5",
"L. c #9BA2AD",
"P. c #9FA6B1",
"I. c #A3AAB6",
"U. c #A5ADB9",
"Y. c #C1BE9C",
"T. c #C2BCA0",
"R. c #C5C29F",
"E. c #CEC9AB",
"W. c #C9C7A2",
"Q. c #ADB5C2",
"!. c #B4BCC9",
"~. c #83D6D6",
"^. c #96DCDC",
"/. c #BDC5D3",
"(. c #C4CCDA",
"). c #D3DCEB",
"_. c #D0D8E7",
"`. c #D7E0EF",
"'. c #DDE6F6",
"]. c #D7E0F0",
/* pixels */
"k k k k k k k k k @ @ @ k k j k k k k k k k k k k k @ @ @ j j j j j k k k k k k x @ @ @ j j j j j j j j k k k k k k @ @ @ k k k ",
"k k ; k k k k k k j @ k k k ; k j j k k k k j : k k k @ j j j j k k ; k k k k k j j @ j j j ; j j j j j k j k ; k k k @ k k k k ",
"k ; ; : : j : : k k @ k k : ; : ; j ; ; : j : : : k k @ j j ; : k : : : : j : : j j % j j ; ; ; : j ; : : j : ; : j k @ k k ; ; ",
": ; - ; : - ; : : k @ k : ; - : ; : : ; : - : : ; ; k @ i : ; : : : - : : - : : : j % e ; ; ; ; : ; ; ; ; - : : : ; k @ k ; ; ; ",
": - - : : ; - : ; - @ - ; : ; - ; ; - - ; ; - ; : : - @ - : : ; : - - : : ; - ; ; - % - : ; ; - ; : - - : : - ; ; ; - @ - : : ; ",
"- - : : - : : : - - @ - - ; : : ; - - ; 9 ; - - : - - @ - - ; - - - ; ; - : ; ; - - % - - ; ; ; : - - : : ; - - : - - @ - - : - ",
"- - - - - - : - - - @ - - - : - - - - - : - - - - - - @ - - - - - - - - - - : - - - % - - - ; - - - - - ; - - - - - - @ - - - - ",
"- - - - - - - - - @ @ @ - - - - ; - - - - - - - - - @ @ @ - - - - - - - - - - - - % % o - - - - - - - - - - - - - - @ @ @ - - - ",
"@ @ @ @ @ @ @ @ @ @ @ @ @ @ @ @ @ @ @ @ @ @ @ @ @ @ @ @ @ @ @ @ @ @ @ @ @ @ @ @ @ @ @ @ % @ @ % @ @ @ @ @ @ @ @ @ @ % @ @ @ @ @ ",
"j j j j @ @ @ j k j k k k k k j k k k k k @ @ @ k k k k k k k k i r j x @ @ @ j j j j j j j j j j k k k j @ @ @ j i j j j j k j ",
"j 9 j j j @ j j k k k k k k ; k k k k k k k @ k k k k k k ; k k x ; j j j @ j j j j j j x j ; r k k j k j k @ j j j j j j : k k ",
"9 ; > j j @ j j : ; k ; : : ; : : k ; : k k @ k k ; : k : : : k ; ; ; j j @ j j > ; j ; : : : ; : k ; ; j k @ k j ; ; j : : : k ",
": : : - j @ j - ; : : ; : ; - : - : : : - k @ j - ; : : ; ; : - ; ; ; - j @ j - ; : : : ; : ; ; - : : : - j @ j - : : : : : : - ",
": : - - - @ - - - : : ; : - - : : > : - - - @ - - - : - - ; : : ; ; - - - @ - - - ; : : : - - ; : : : - - - @ - - - : - - : : : ",
": - - - - @ - ; - - ; - - - - - - : - - - - @ - - - - - - - - - : - - - - @ - - - - : - - - - - - : - - - - @ - - - - - - - - - ",
"- - - - @ @ @ - - - - - - - - - - - - - - @ @ @ - - - - - - - ; ; - ; - % @ @ ; - - - - - - - - - - - - - @ @ @ - - - - - - - - ",
"@ @ @ @ @ @ @ @ @ @ @ @ @ @ % @ @ @ @ @ @ @ @ @ @ @ @ % $ $ $ * & & 2 2 ; & & $ $ % % @ @ @ @ @ @ @ @ @ @ @ @ @ @ @ @ @ @ @ @ @ ",
"j i j j j x x r j j j j j @ % @ j j j j j j r x j k k x * 2 4 E Q Q ] ! W B M m n x x j j @ @ @ k k k k k k k k k k k k @ % @ k ",
"x j j j ; j j j ; x j x j j % x j x j j j ; j x k x x n M 8 [ #.=.;.;.;.{ #.#.Q v M m x x k @ j k k k k k : k k k j k k k @ k k ",
"; ; j ; ; ; x ; ; ; ; ; ; j @ r ; ; j ; ; ; ; j 0 0 e B ] I 6.t.u.p.A.a.u.9.7.X./ H v r 0 k $ k ; ; k ; : : > k : : : k k @ k k ",
"- ; ; ; ; ; ; ; : > : - ; ; @ ; ; ; ; ; ; - ; : 0 e r K -.+.V.' 4 o o % s O.a.p.1.X.L i r 0 $ : : : : : ; - ; : ; : - - k @ k - ",
"- - - - : : - - - - - - - - @ - ; - - - - - - - 9 e v { 7.| o O H s.f.&.t X X d <.w.%.H l 0 $ - - - - - - - - - - - - - - @ - - ",
"- - - - - - - - - - - - - @ @ @ - - - - - - ; ; 0 p ^ <. .  ` (.'.'.U.4.R p X     h e...H 4 & $ - - - - - - - - - - - - @ @ @ - ",
"@ @ @ % @ @ % % @ @ @ @ @ % @ @ @ @ % @ % % % & 6 g  .0.o 3.'.'.H.2   + 1 1 + O     T >.I 8 2 $ @ @ @ @ @ @ @ @ @ @ @ @ @ @ @ @ ",
"j j j x j @ @ @ j j j k j j j j j j j @ $ $ m B ] ;.B.y.X /.'.k.X z h.c.v.n.n.c.j.C . u.6.#.N x k k k @ @ @ k k j j k k k k k k ",
"; j j j j j @ j j j k k i : ; j j j j j $ m B [ -.N.G.o., '.`.o A c.v.v.n.^.^.^.~.z.O O.t./ l c x k k k @ k k j k k k j k k k : ",
"; : j ; j j % j j : k : : : : : x ; j x & B ] X.e.G.R.8 p '.Z.  z.v.v.v.b.n.~.~.b.v.1 d u.{ b e x ; k k @ k j : : j : : : j : : ",
"- - ; ; - j @ j - : : : ; - - : ; : - x 3 ! _ w.I # o   ` '.3.- c.v.v.v.b.v.v.b.v.v.A o B...v e : ; - k @ k - : : : : - : : : - ",
": : ; - - - @ - - - : : - - : : ; - ; > 6 L *.Y   4.C.. 4.'.4.+ c.v.v.v.v.v.v.v.v.v.S   B...H r 0 - - - @ - - - : : - - - : : : ",
": ; - - - - @ - - - - - - - - - - - ; 0 y _ r.& 5 ).(.X f.'.H.  z.v.v.v.v.v.v.v.v.v.S   p...v 0 ; - - - @ - - - - - - - - - - - ",
"- - - - - % o @ - - - - - - - - - - ; 5 d  .p.X ` I.Q.  Z.'.).. D v.v.v.v.v.v.v.v.v.V * r._ l 0 ; - - @ @ @ - - - - - - - - - - ",
"% % o % % % % % @ @ @ @ @ @ @ @ % % $ 4 g +.i.  f.J.M.  J.'.'.R O z.v.v.v.v.v.v.v.h.X | >.G 7 $ @ @ @ @ @ @ @ @ @ @ @ @ @ @ @ @ ",
"j j s j x j j j j @ @ @ j e j j j j x B #.N.9.  K.J.s.  I.'.'.!.O 1 z.v.v.v.v.c.g.O = i.6.[ B x x j j j j j x j j j @ @ @ j j j ",
"j j ; j j j j j j x @ j j x ; x x x m W =.B. .@ J.J.s.  I.'.'.'.Z.X O C D h.D 1 X 3 a.B.-.! r x j j j j j e j : x j j @ x j j x ",
"j ; : : ; j : : j j @ j j : ; : ; x e b { A.g q J.J.s.  I.'.'.'.'./.$.O       , O T S.t.#.s w : ; x : ; ; x ; ; ; j x o j j ; ; ",
"; ; - : : - : ; ; j % j : : - ; ; : e H %.N.7 J J.J.s.  C.'.'.'.'.'.'.)./.!./.].a G a.6.L r > ; ; : ; ; ; - ; ; ; ; j % j : ; ; ",
"; - - ; : : - : : - % - ; ; : - ; : 0 v X.B.* @.J.J.d.  4./.'.'.'.'.'.'.'.'.'.'.z f i...H r 0 - ; ; - - ; ; - ; ; ; - % - : : : ",
"- - : ; - : : : - - % - - ; : : ; ; 0 b ..p.# $.J.J.k.  4.J.U.].'.'.'.'.'.'.'.'.u h i...v e : ; ; ; - ; ; ; - - ; - - o - - : - ",
"- - - - - - ; - - - % - - - ; - - ; > l _ 7.4 z J.J.k.  4.J.L.L./._.'.'.'.'._.U., I 0.{ v 0 : - - - - - : - - - ; - - % - - - - ",
"- - - - - - - - - % @ @ - - - - - - > r L ,.Y X $.H.C.  3.J.J.J.K.3.4.d.k.L.L.J.@ T 0.Y l : ; - - - - - ; - - - - - % % % - - - ",
"% % % @ @ @ @ @ @ @ @ % @ % % @ @ @ $ 3 y Y >.7   X 5   3.J.J.J.Z   X .   R L.J.O | 9.T 7 & % % @ @ % % @ @ @ @ @ @ @ @ @ % @ @ ",
"j j j j @ @ @ j j x j j j j j j j j x n B f Y q.V.:.7   3.J.J.J.z # F.Y.o ~ J.Z.X :.y.#.B m x j j j j j j @ @ @ j j j j j j x r ",
"j : j j j % j j j j x r j x ; j j k k c m E h ;.N.G.D.  @.J.J.J.p $ E.E.@ ~ J.C.  5.t.{ N x : k j j j j j j @ j j j j j j ; x j ",
": : : j j % j j : : r : ; ; ; ; > k : 0 x m 6 [ ;.r.S.@ z J.J.J.u 4 W.E.& F J.$.  y.6.L i 0 : : ; j ; ; j j @ j j ; ; j ; ; ; j ",
"; ; ; - j @ j - ; : : : : ; - ; ; : ; : ; x * B K %.p.T O Z.J.J.2 I Y.F.d + C.2 4 e.{ F r 0 - : - ; ; ; - s @ j - : : ; ; : ; - ",
"; ; - - - % - - - ; : : : - - ; ; : ; - - - $ 0 i L ,.w.X J s.F   2.B.p.1.  . X o.*.L v w ; - ; ; ; ; - - - @ - - - ; - - : : : ",
"; - - - - @ - - - - ; - - - - - - ; - - - - @ ; 0 z ^ ,.( X   # U 7.,.%.:.T I ..{ L v 0 ; - - - - ; - - - - % - - - - - - - - - ",
"- - - ; o @ @ - - - - - - - - - - - - - - @ @ + 9 r b / *.o. .<.*.{ ^ L G I I ^ H v w > - - - - - - - - - % % o - - - - - - - - ",
"@ @ @ @ % @ @ @ @ @ % % @ @ @ @ % o @ @ % @ @ @ % ; = 8 g g T I h s 7 7 7 8 8 7 4 : & % % @ @ @ @ % @ @ % % @ % % @ % @ @ % @ @ ",
"r j x j j j j j j j x r j o % @ j x j x j j j j x x n m 6 7 8 W B M m m c m c c c x x j j @ @ @ x j j j j j j j j j j j @ @ @ j ",
"j x j j ; x j x ; j j x j j % j j j r i j ; j j r x x x x ; m c m x x x : x x x : x x j j j @ j j j j j j ; x j j x e j x @ j j ",
"; ; j ; ; ; j ; ; ; ; ; ; j @ j ; ; x : ; ; ; x : ; ; x x % x j : : x : : : r : : : ; : ; j @ j ; ; j ; ; ; ; r ; ; : j j o j x ",
"- ; : : : : ; ; : : ; - ; ; % ; : ; ; ; ; - : : : : - - j @ j - ; ; ; ; : : : : : ; ; - ; ; @ : ; ; ; ; ; - ; ; ; ; - - j @ j - ",
"- - - - ; ; - - - - - - - - % - - - - - - - - - - ; - - - @ - - - - - - : : - - ; - - - - - @ - - - - - - - - - - - - - - @ - - ",
"- - - - - - - - - - - - - @ @ @ - - - - - - - - - - - - @ @ @ - - - - - - - - - - - - - - @ % % - - - ; - - - - - - - - @ @ @ - ",
"@ @ o @ @ @ @ @ @ @ @ @ @ @ @ @ @ @ @ @ @ @ @ @ @ @ @ @ @ @ @ @ @ @ @ % @ @ @ @ @ @ @ o @ @ @ % @ @ @ @ @ @ @ @ @ @ @ @ @ @ @ @ ",
"k k k k k @ @ @ j j k j k k k k j k k @ @ @ k k k k k k k k j j j j k k k @ @ @ j s j j j j j j j i k @ % @ j j j j j j j j j j ",
"; k k k k j @ k j x j j k : : k k k k k @ k k k k k k k k k j : : j j k k j @ k j j j j j ; : j j k j k @ j j j j j j x j j j ; ",
": : k : k k % k j ; j : : ; : : k : j j @ k k : : k : : : k : : : : j : k k @ k j ; x : ; ; ; : j ; k k @ j j ; ; x ; ; ; j ; ; ",
"- - ; : - k @ k - > ; : : - - ; : : - j @ k - : : : : - : : : - - - : : - k @ k - ; ; ; : - - ; ; ; - j @ j - ; ; ; ; - ; ; ; ; ",
"; : : - - - @ - - - : 9 - - ; : : - - - @ - - - : : - - - : : > ; ; : - - - @ - - - ; ; - - ; ; ; - - - @ - - - ; ; - - - ; ; ; ",
": ; - - - - @ - - - - - - - - - - - - - @ - - - - - - - - - - - ; ; ; - - - @ - - - - - - - - - ; - - - @ - - - - - - - - - - ; ",
"- - - - - @ @ @ - - - - - - - - - - - % @ @ - - - - - - - - - - - - - - - @ @ @ - - - - - - - - - - - @ @ @ - - - - - - - - - - ",
"@ @ @ @ @ @ @ @ @ @ @ @ @ @ @ @ @ @ % % % + @ @ @ @ @ @ @ @ @ @ @ @ @ @ @ @ @ @ @ @ @ @ @ @ @ @ @ @ @ @ @ @ @ @ @ @ @ @ @ @ @ @ "
};
