/* XPM */
static char *result[] = {
/* columns rows colors chars-per-pixel */
"64 64 184 2 ",
"   c #020101",
".  c #0A0603",
"X  c #080608",
"o  c #0D0B0B",
"O  c #1C0E07",
"+  c #110D0D",
"@  c #12120E",
"#  c #181109",
"$  c #130D12",
"%  c #161516",
"&  c #181617",
"*  c #191913",
"=  c #1D141B",
"-  c #1B1B1A",
";  c #211109",
":  c #3C1E0F",
">  c #21171F",
",  c #211F1D",
"<  c #23221D",
"1  c #3D2B18",
"2  c #1D162A",
"3  c #251B23",
"4  c #261D2E",
"5  c #281E2E",
"6  c #281C26",
"7  c #251E30",
"8  c #242320",
"9  c #2C2B25",
"0  c #2F212C",
"q  c #2F2D28",
"w  c #282622",
"e  c #31222E",
"r  c #302F29",
"t  c #34332B",
"y  c #38382F",
"u  c #38372F",
"i  c #262030",
"p  c #2B2232",
"a  c #2E2936",
"s  c #322633",
"d  c #322936",
"f  c #342D39",
"g  c #3D2B3A",
"h  c #363232",
"j  c #3D3C33",
"k  c #36303C",
"l  c #3B333D",
"z  c #4D2713",
"x  c #532A15",
"c  c #57361D",
"v  c #6E371B",
"b  c #422E3E",
"n  c #5C4024",
"m  c #424137",
"M  c #47473B",
"N  c #48463C",
"B  c #4B4B3D",
"V  c #6C4B2A",
"C  c #7B5630",
"Z  c #3D2741",
"A  c #3D2841",
"S  c #412D44",
"D  c #443046",
"F  c #493345",
"G  c #423A42",
"H  c #473248",
"J  c #4A3549",
"K  c #4E3B4D",
"L  c #553D51",
"P  c #593E54",
"I  c #464046",
"U  c #4A4246",
"Y  c #4B454A",
"T  c #4C4841",
"R  c #514E44",
"E  c #534E4F",
"W  c #504349",
"Q  c #545444",
"!  c #5A5A46",
"~  c #53514B",
"^  c #5B5A4B",
"/  c #5A574A",
"(  c #554252",
")  c #5A4856",
"_  c #5E4C59",
"`  c #5B4457",
"'  c #565151",
"]  c #5B5453",
"[  c #5F5B58",
"{  c #604F5B",
"}  c #63455D",
"|  c #64545E",
" . c #635E5A",
".. c #695D5E",
"X. c #605957",
"o. c #62624F",
"O. c #656353",
"+. c #696557",
"@. c #6C6B55",
"#. c #66615C",
"$. c #69625B",
"%. c #6D6A5C",
"&. c #706E5A",
"*. c #76765D",
"=. c #7A795F",
"-. c #6B4A64",
";. c #714F6A",
":. c #6C5C62",
">. c #74516D",
",. c #7B5674",
"<. c #7A5673",
"1. c #6D6561",
"2. c #6E6A63",
"3. c #706166",
"4. c #736D65",
"5. c #796A6D",
"6. c #7B7B62",
"7. c #7C756B",
"8. c #7F7B6F",
"9. c #767268",
"0. c #804020",
"q. c #9B4E27",
"w. c #A9552A",
"e. c #A25129",
"r. c #B55B2E",
"t. c #A2723F",
"y. c #CC6633",
"u. c #C86734",
"i. c #CF7039",
"p. c #D0743C",
"a. c #A77845",
"s. c #B57D46",
"d. c #825B7A",
"f. c #817C6C",
"g. c #827473",
"h. c #857C74",
"j. c #887B78",
"k. c #D27E43",
"l. c #BB8348",
"z. c #8D8C6E",
"x. c #848172",
"c. c #8B8575",
"v. c #8D8C73",
"b. c #8F8A79",
"n. c #91857E",
"m. c #908A79",
"M. c #989877",
"N. c #95917C",
"B. c #99947F",
"V. c #959473",
"C. c #CA8D4E",
"Z. c #C3894C",
"A. c #D38145",
"S. c #D5884A",
"D. c #D7904F",
"F. c #CB8F51",
"G. c #D49452",
"H. c #D99653",
"J. c #D99854",
"K. c #885F80",
"L. c #8A6182",
"P. c #96698D",
"I. c #95688C",
"U. c #9B6C92",
"Y. c #A7749D",
"T. c #A9769F",
"R. c #A17097",
"E. c #978D81",
"W. c #988D83",
"Q. c #9E9C83",
"!. c #9E9387",
"~. c #A6A583",
"^. c #A6A38A",
"/. c #A9A78B",
"(. c #ADAA8F",
"). c #ACAC85",
"_. c #B1AE8E",
"`. c #ADA691",
"'. c #B3AD95",
"]. c #B7AF9A",
"[. c #B9B696",
"{. c #C1BE9C",
"}. c #C3BFA2",
"|. c #C6C5A0",
/* pixels */
"A A A A A A A A A % % % A Z A A A A A A A A A A A A % % % A A A A A A A A A A A Z % % % Z A A A A A A A A A A A A A % % % A A A ",
"A A 4 A A A A A A Z % A A A 4 A A A A A A A A 4 A A A % A A A A A A 4 A A A A A Z Z % A A A 5 A A A A A A A A 4 A A A % A A A A ",
"A 4 4 5 5 Z 4 5 A A % A A 5 5 5 4 A 4 5 5 Z 5 5 5 A A % A A 4 5 A 5 5 5 5 A 4 5 Z Z % Z A 5 5 5 5 A 4 5 4 A 5 5 5 A A % A A 4 4 ",
"4 5 2 4 5 2 4 5 5 A % A 5 4 2 5 5 5 5 4 5 2 4 5 4 4 A % A 5 5 5 4 4 2 5 5 2 5 5 5 Z % g 4 5 2 4 7 4 4 4 4 2 5 4 5 4 A % A 4 5 4 ",
"5 2 2 5 5 5 2 5 4 2 % 2 4 4 5 2 5 5 2 2 5 4 2 4 5 5 2 % 2 5 5 4 5 2 2 5 5 4 2 4 4 2 % 2 5 4 5 2 5 5 2 2 4 5 2 5 4 4 2 % 2 5 5 4 ",
"2 2 5 5 2 5 5 5 2 2 % 2 2 4 5 5 5 2 2 5 5 i 2 2 5 2 2 % 2 2 4 2 2 2 4 4 2 5 4 5 2 2 % 2 2 5 5 4 5 2 2 5 4 5 2 2 5 2 2 % 2 2 5 2 ",
"2 2 2 2 2 2 5 2 2 2 % 2 2 2 5 2 2 2 2 2 5 2 2 2 2 2 2 % 2 2 2 2 2 2 2 2 2 2 4 2 2 2 % 2 2 2 5 2 2 2 2 2 4 2 2 2 2 2 2 % 2 2 2 2 ",
"2 2 2 2 2 2 2 2 2 % % % 2 2 2 2 2 2 2 2 2 2 2 2 2 2 % % % 2 2 2 2 2 2 2 2 2 2 2 2 % % % 2 2 2 2 2 2 2 2 2 2 2 2 2 2 % % % 2 2 2 ",
"% % % % % % % % % % % % % % % % % % % % % % % % % % % % % % % % % % % % % % % % % % % % % & % % % % % % % % % % % % % % % % % % ",
"A A Z A % % % Z A Z A A A A A Z A A A A A % % % A A A A Z Z Z Z g A A A % % % A A A A A Z A Z A A A Z A Z % % % A g A A Z A A A ",
"A 5 A A A % Z Z A Z A A A A 4 A A A A A A A % A A A A A A 4 Z Z A 4 A A A % A A A A A A Z A 5 Z A A Z A Z A % Z A Z A A Z 5 A A ",
"5 4 7 A A % Z Z 5 4 A 4 5 5 4 5 5 A 4 5 A A % A A 4 5 A 5 5 4 Z 5 5 4 A A % A A 4 4 A i 5 5 5 5 5 A 4 4 A A % Z A 7 5 Z 5 5 5 A ",
"5 5 5 2 Z % Z 2 5 5 5 5 5 5 2 5 2 4 5 5 2 A % Z 2 4 5 5 7 5 5 4 5 5 4 2 Z % A 2 4 0 4 4 5 5 2 5 2 5 5 4 2 Z % Z 2 5 5 5 5 5 5 2 ",
"5 5 2 2 2 % 2 2 2 5 5 5 5 2 2 4 4 4 4 2 2 2 % 2 2 2 5 2 4 i p p p p 4 2 2 % 2 2 2 4 7 0 5 2 2 5 5 5 5 2 2 2 % 2 2 2 5 2 2 5 5 4 ",
"5 2 2 2 2 % 2 2 2 2 7 2 2 2 2 2 2 7 2 2 2 2 % 2 2 2 4 4 7 p p i d i 7 7 4 * 2 2 2 2 i 2 2 2 2 2 2 5 2 2 2 2 % 2 2 2 2 2 2 2 2 2 ",
"2 2 2 2 % % % 2 2 2 2 2 2 2 2 2 2 2 2 2 2 % % - 2 2 2 7 p d f f d d a a 2 < , i 2 2 2 2 2 2 2 2 2 2 2 2 2 % % % 2 2 2 2 2 2 2 2 ",
"% % % % % % % % % % % % % % % % % % % % % % % % - - - w q t u u h t t r q w 8 < - & % % % % % % % % % % % % % % % % % % % % % % ",
"Z A A A A A A A A A A A A % % % A A A A A A Z A A A H K y j % o l _ _ ) ) ( K F H S A A Z % & % A A A A A A A A A A A A % & % A ",
"A A A A 5 A A A 5 Z A A A A % A A Z A A Z 5 A A A H K ) [ t - :.3.:.:.Y , 3 K K a S A A Z Z % A A A A A A 5 A A A A A A A % A A ",
"5 5 A 5 5 4 A 5 5 5 5 5 5 A % A 5 5 A 5 5 4 4 S a h A _ :.8 U 7.4.%.1.o h h ( k s i 5 5 5 A % Z 4 5 Z 7 4 5 4 A 5 5 5 A A % A A ",
"2 5 7 5 5 5 5 4 4 4 i 2 5 4 % 4 4 7 7 0 4 2 5 p d l I ] g.% 7.x.h.h.B q $.] G k s i 5 2 4 4 % 5 5 5 5 4 4 2 4 5 5 5 2 2 A % A 2 ",
"2 2 2 2 5 5 2 2 2 2 2 2 2 2 % 2 2 2 2 2 2 2 4 7 d G ] 9.v.* N./.^.Q.t ~ 4.[ I f i 4 2 2 2 2 % 2 2 2 2 2 2 2 2 2 2 2 2 2 2 % 2 2 ",
"2 2 2 2 2 2 2 2 2 2 2 2 2 % % % 2 2 2 2 2 2 4 i l ~ 9.N.V.- @.v.Q.[.< 6.h.#.Y f 7 7 2 2 2 % % % 2 2 2 2 2 2 2 2 2 2 2 2 % % % 2 ",
"% % % % % % % % % % % % % % % % % % % % % & , q M @.=.9 o         @ . ! M.*.Q u 8 - % % % % % % & % % % % % % % % % % % % % % % ",
"Z Z Z A A % % % A A A A A A A A A A A % % - H ) 5.E.9   .               R z.o.m K S S Z Z A A A A A A % % % Z A Z Z A A A A A A ",
"5 Z A A A A % A A A A A A 5 5 A A A A A - D K | 8.E.    C V   c V n +     8.=.3.` F S Z A 4 4 A A A A A % A A Z A Z A Z A A A 5 ",
"5 5 A 5 Z A % Z A 5 A 4 5 5 5 5 A 5 A A - H Y ] h.f.. c Z.H.t.C.Z.s.s.1   , V.5.{ f S 4 5 5 4 5 A 5 A A % A Z 4 5 Z 5 7 5 Z 5 5 ",
"2 2 5 5 2 Z % Z 2 5 5 5 4 2 2 5 5 5 2 A - G A #.b.o.O u.S.J.H.a.F.F.l.t.    6.j.Y l a 5 5 2 2 5 5 5 2 A % A 2 5 5 5 5 2 5 5 5 2 ",
"5 5 5 2 2 2 % 2 2 2 4 5 2 2 4 4 5 2 2 2 & p G [ m.u   0.i.H.J.H.J.J.l.D.#   ! 7.E k s 5 2 2 4 4 5 2 2 2 % 2 2 2 5 5 2 2 2 5 5 5 ",
"5 4 2 2 2 2 % 2 2 2 2 2 2 2 2 2 2 2 2 2 - p G #.N.@ : r.y.k.J.J.J.J.J.l.    B 8.E k 7 2 2 2 2 2 2 4 2 2 % 2 2 2 2 2 2 2 2 2 2 2 ",
"2 2 2 2 2 % % % 2 2 2 2 2 2 2 2 2 2 2 % - 8 A #.m.@ q.y.y.i.k.A.D.A.p.w.    ! =.E k 7 2 2 2 2 2 2 2 2 % % % 2 2 2 2 2 2 2 2 2 2 ",
"% % % % % % % % % % % % % % * % % % % % - , j ^ z.< v y.y.y.y.y.y.y.y.r.    V.*.B q - % % % % % % % % % % % % % % % % % % % % % ",
"Z Z Z Z Z Z Z Z A % % % A A A A Z g Z Z A D ) 3.W.%.O w.y.y.y.y.r.e.q.x   N ].j.| w - % A A A A A A A A Z Z A Z A A % % % A A A ",
"Z Z 5 Z Z Z Z g A A % A A A 5 A Z S Z S S D L ] n.`.. . O z x ;       & > j '.j.| K - A A A 5 Z A A A A Z Z A 5 A A A & A A A A ",
"Z 5 5 5 5 S 5 5 A A % A A 5 7 5 4 Z 5 5 i D l ' 7.].r 6 b X o b L X g ;.b w (.7.:.K - A A 5 5 5 5 Z 5 5 5 Z 5 5 5 A A % Z Z 5 5 ",
"5 5 2 5 4 2 5 4 5 A % Z 5 5 2 5 4 4 i p s a G ] f.'.N 0 >.> 3 >.>.+ g >.J @ '.h.[ ( 8 S p 5 2 5 5 5 5 5 5 2 5 5 5 5 A % A 5 5 5 ",
"5 2 2 5 4 4 2 5 5 2 % 2 5 5 5 2 5 5 7 p g G Y 1.m.[.B 5 >.6 > >.>.% e >.}   {.B.4.Y r a s p i 2 5 5 2 2 4 4 2 5 4 4 2 % 2 5 5 5 ",
"2 2 5 5 2 4 5 5 2 2 % 2 2 5 5 5 5 7 a A U ] #.h.^.|.B 0 >.5 + >.>.= 3 >.d.  ~._.x.+.M l s d p i 7 2 2 4 4 4 2 2 4 2 2 % 2 2 5 2 ",
"2 2 2 2 2 4 5 2 2 2 % 2 2 2 i 2 7 i f A ] %.x.Q.{.[.b q d.s X >.>.3 3 >.R.3 w /./.x.O.Y l a p 2 2 2 4 2 4 2 2 2 2 2 2 % 2 2 2 2 ",
"2 2 2 2 2 2 2 2 2 % & & 2 2 2 2 2 i k R ~ w @ @       F U.g   >.,.s = <.Y.U.0 . < B &.^ I d 4 4 2 2 2 2 2 2 2 2 2 2 % % % 2 4 2 ",
"% % % % % % % % % % % % % % % & - 8 t M < . 0 J L P } U.U.S   ;.P.s > d.T.T.Y.,.P 3 % ! N t , & % % % % % % % % % % % % % % % % ",
"Z Z A A % % % A A A A A A A A A A J K :.] @ X o $ % = 6 e &   d.T.s > d.P.I.I.L.d.;.+ j :.( H S A A A A Z % % % Z g A A A Z A A ",
"Z 5 Z A A % A A A A A A A A 5 A A D K [ :.h.@.$.#.O.&.#./ <   Y.T.F               . > ..| ( d S A A A A Z Z % Z Z Z Z A Z 5 A A ",
"5 5 4 Z A % A A 5 5 A 4 4 5 5 4 a D f A | :.O.j.E.b.N.'.{._.  K.T.T.b , (.).'.`.N.x.g.] U l s p 5 A 5 4 A Z % Z Z 5 5 A 4 5 5 A ",
"4 4 4 2 A % A 2 4 5 0 i 4 4 2 4 4 i s k f ) b $.' #.2.7.N.'.t G T.T.>.o |.~.!.7.4...' Y b f 2 i 2 7 5 4 2 g % Z 2 5 5 4 5 5 4 2 ",
"4 4 2 2 2 % 2 2 2 4 4 4 5 2 2 4 4 0 i i i a 9 k l A T E #.b.f.X d.T.-.o N.6.#.' U I G k d 4 4 i 5 5 5 2 2 2 % 2 2 2 4 2 2 5 5 5 ",
"5 2 2 2 2 % 2 2 2 2 4 2 2 2 2 2 2 4 2 2 2 2 - i a i a l Y #.x.M . o o R 9.Q I k a a a 4 4 2 2 2 2 4 2 2 2 2 % 2 2 2 2 2 2 2 2 2 ",
"2 2 2 2 % % % 2 2 2 2 2 2 2 2 2 2 2 2 2 2 % % - 2 2 2 0 k I [ 9.+.^ 2.2.Q j 9 i 4 2 4 2 2 2 2 2 2 2 2 2 2 % % % 2 2 2 2 2 2 2 2 ",
"% % % % % % % % % % % % % % % % % % % % & % % % % % & & 8 r j R Q / Q M j 9 3 - % % % % % % % % % % % % % % % % & % % % % % % % ",
"g Z A A A A A A A A A A A % % % A A A A A Z A A A A A S - 8 9 ( ) _ ( ( K H A S A A A A A % % % A A A A A A A A A A A A % % % A ",
"A A A A 4 A A A i A A A A A % A A A A g A 4 A A A A A A A , D H J J H H a A A A 5 A A A A A % A A A A A A 4 A A A A A A A % Z A ",
"4 5 A 5 4 4 A 4 5 4 0 4 i A % A 7 5 A 5 5 5 5 A 7 0 i A A & A A i p S i i 0 g 5 5 5 4 5 4 A % Z 0 4 A 4 5 4 4 A 5 5 5 A Z % A A ",
"2 4 4 5 5 0 4 4 0 4 i 2 i 4 % 4 5 4 4 4 4 2 4 5 5 5 2 2 A % A 2 2 5 0 7 5 5 5 4 4 5 4 2 5 5 % 5 7 4 4 4 4 2 5 5 4 4 2 2 A % A 2 ",
"2 2 2 2 4 4 2 2 2 2 2 2 2 2 % 2 2 2 2 2 2 2 2 2 2 2 2 2 2 % 2 2 2 2 2 2 5 5 2 2 2 2 2 2 2 2 % 2 2 2 2 2 2 2 2 2 2 2 2 2 2 % 2 2 ",
"2 2 2 2 2 2 2 2 2 2 2 2 2 % % % 2 2 2 2 2 2 2 2 2 2 2 2 % % % 2 2 2 2 2 2 2 2 2 2 2 2 2 2 % % % 2 2 2 2 2 2 2 2 2 2 2 2 % % % 2 ",
"% % % % % % % % % % % % % % % % % % % % % % % % % % % % % % % % % % % % % % % % % % % % % % % % % % % % % % % % % % % % % % % % ",
"A A A A Z % % % A A A A A A A A A A A % % % A A A A A A Z A A A A A A A A % % % Z Z Z A A A Z A A A A % % % A A A A A A A A A A ",
"4 A A A A Z % A A A A A A 5 4 A A A A A % A A A A A A A A A A 5 4 A A A A A % A Z Z Z Z A 5 4 Z Z A A A % Z A A A A A A A A A 5 ",
"5 5 A 4 A A % A A 4 A 4 5 5 i 5 A 5 A A % A A 5 7 A 5 5 5 A 5 5 4 4 A 5 A A % A S 4 Z 5 5 5 5 5 A 4 A A % A A 5 4 A 5 5 5 A 5 5 ",
"2 2 4 4 2 A % Z 2 4 4 4 5 2 2 4 4 4 2 Z % A 2 5 5 5 5 2 5 5 5 2 2 2 5 5 2 A % A 2 5 5 5 5 2 2 5 5 4 2 A % A 2 4 4 5 5 2 5 5 5 2 ",
"4 5 5 2 2 2 % 2 2 2 5 i 2 2 4 5 7 2 2 2 % 2 2 2 5 5 2 2 2 5 5 7 4 5 4 2 2 2 % 2 2 2 5 5 2 2 4 5 5 2 2 2 % 2 2 2 7 7 2 2 2 4 5 0 ",
"5 5 2 2 2 2 % 2 2 2 2 2 2 2 2 2 2 2 2 2 % 2 2 2 2 2 2 2 2 2 2 2 5 4 2 2 2 2 % 2 2 2 2 2 2 2 2 2 2 2 2 2 % 2 2 2 2 2 2 2 2 2 2 2 ",
"2 2 2 2 2 % % % 2 2 2 2 2 2 2 2 2 2 2 % % % 2 2 2 2 2 2 2 2 2 2 2 2 2 2 2 % % % 2 2 2 2 2 2 2 2 2 2 2 % % % 2 2 2 2 2 2 2 2 2 2 ",
"% % % % % % % % % * % % % % % % % % - % % % % % & % % % % % % % % % % - % % % % % % % % % % % % % % % % % % % % % % % % % % % % "
};
