/* XPM */
static char *result[] = {
/* columns rows colors chars-per-pixel */
"64 64 147 2 ",
"   c #060605",
".  c #080707",
"X  c #0C0C0A",
"o  c #100F0D",
"O  c #12120F",
"+  c #0E0F10",
"@  c #161516",
"#  c #191715",
"$  c #1B1A16",
"%  c #1C1B1A",
"&  c #201E1D",
"*  c #22211E",
"=  c #1D162A",
"-  c #211E22",
";  c #261D2E",
":  c #281E2E",
">  c #251E30",
",  c #252521",
"<  c #282723",
"1  c #2B2A25",
"2  c #262728",
"3  c #26282A",
"4  c #2F2F28",
"5  c #332F2D",
"6  c #34332A",
"7  c #39392F",
"8  c #262030",
"9  c #2B2332",
"0  c #2E2836",
"q  c #302634",
"w  c #322A35",
"e  c #352E3A",
"r  c #382E3A",
"t  c #2E3132",
"y  c #363234",
"u  c #3C3736",
"i  c #3C3B32",
"p  c #36303B",
"a  c #3C343D",
"s  c #413F37",
"d  c #40363D",
"f  c #433C3F",
"g  c #424135",
"h  c #46453A",
"j  c #48473B",
"k  c #4A4A3D",
"l  c #3D2741",
"z  c #3D2841",
"x  c #3E3841",
"c  c #412D44",
"v  c #453147",
"b  c #433B42",
"n  c #463248",
"m  c #49364A",
"M  c #4E3B4D",
"N  c #503D4F",
"B  c #523F50",
"V  c #3E4346",
"C  c #464145",
"Z  c #494345",
"A  c #4C4A42",
"S  c #4D454A",
"D  c #4E494C",
"F  c #504A45",
"G  c #534C4D",
"H  c #575646",
"J  c #595747",
"K  c #5A574E",
"L  c #5B5A49",
"P  c #554252",
"I  c #584655",
"U  c #5A4A55",
"Y  c #5E4B58",
"T  c #4A5154",
"R  c #4F5659",
"E  c #565152",
"W  c #5B5452",
"Q  c #5E5A54",
"!  c #5F5A58",
"~  c #615B55",
"^  c #64535D",
"/  c #645E5B",
"(  c #63624E",
")  c #666453",
"_  c #6B6B55",
"`  c #67615A",
"'  c #6B645D",
"]  c #6E6C5A",
"[  c #72715A",
"{  c #79795F",
"}  c #675760",
"|  c #6B5A62",
" . c #5A6267",
".. c #6D6660",
"X. c #6E6A63",
"o. c #726D64",
"O. c #75666A",
"+. c #776C69",
"@. c #7B6C6D",
"#. c #757264",
"$. c #787167",
"%. c #7B7B60",
"&. c #767268",
"*. c #7C746C",
"=. c #7E7A6E",
"-. c #666F74",
";. c #6C757A",
":. c #7F7171",
">. c #817C6D",
",. c #837573",
"<. c #857A74",
"1. c #887B78",
"2. c #828265",
"3. c #83806E",
"4. c #88886A",
"5. c #848172",
"6. c #8A8674",
"7. c #8D8A74",
"8. c #8F8C79",
"9. c #90867C",
"0. c #918E7A",
"q. c #939373",
"w. c #97957D",
"e. c #99977F",
"r. c #9E9E7B",
"t. c #7C858A",
"y. c #948880",
"u. c #9B9483",
"i. c #838E95",
"p. c #88949A",
"a. c #A29D86",
"s. c #A49D8A",
"d. c #A5A387",
"f. c #ADAB8B",
"g. c #B8B78E",
"h. c #96A3AB",
"j. c #9DA7AD",
"k. c #9EABB1",
"l. c #A6B0B5",
"z. c #C0C094",
"x. c #AAB9C1",
"c. c #B1C0C9",
"v. c #BACAD3",
"b. c #C1CFD7",
"n. c #C3D1D9",
"m. c #C8D4DC",
"M. c #D2DCE2",
/* pixels */
"z z z z z z z z l @ @ @ z z z z z z z z z z z z z z @ @ @ z z z z z l l l z z z l @ @ @ l l l l l l l l l l l l l l @ @ @ l l l ",
"z z ; z z z z z z z @ z z z ; z z z z z z z z ; z z z @ z z z z z z : r l l l z l l @ l l l ; c l l l l l l l ; l l l @ l l l l ",
"z : ; : : l ; : z z @ z z : : ; ; l : : : l ; : : z z @ z z ; : z : : : : l : : d l @ l l : : : ; c ; ; ; c : ; ; c l @ l l ; : ",
"; ; = ; : = ; : : l @ z : ; = : : : : > : = : : ; ; z @ z : ; : ; : = : : = : : ; l @ l ; ; = ; ; ; ; ; : = : ; ; ; l @ z ; ; ; ",
": = = : : : = : ; = @ = ; ; ; = : : = = : ; = : : : = @ = : : ; : = = : : : = : ; = @ = : ; ; = ; ; = = ; : = : ; : = @ = : : : ",
"= = : : = : : : = = @ = = : : : : = = : : ; = = : = = @ = = ; = = = ; ; = : ; ; = = @ = = ; ; ; ; - = ; ; ; = = : = = @ = = : = ",
"= = = = = = : = = = @ = = = : = = = = = : = = = = = = @ = = = = = = = = = = : = = = @ = = = ; = = = = = ; = = = = = = @ = = = = ",
"= = = = = = = = = @ @ @ = = = = = = = = = = = = = = @ @ @ = = = = = = = = = = = = @ @ @ = = = = = = = = = = = = = = @ @ @ = = = ",
"@ @ @ @ @ @ @ @ @ @ @ @ @ @ @ @ @ @ @ @ @ @ @ @ @ @ @ @ @ @ @ @ @ @ @ @ @ @ @ @ @ @ @ @ @ @ @ @ @ @ @ @ @ @ @ @ @ @ @ @ @ @ @ @ ",
"z z z z @ @ @ z z l z z z z z l z z z z z @ @ @ z z z z z z z z r l l l @ @ @ l z z z l c z r c l l l l l @ @ @ c r l l l c c r ",
"z : z z z @ z z z z z z z z ; z z z z z z z @ z z z z z z ; z z l : l l z @ z z z z z z l l : l l l l l l l @ l l l l l c ; l l ",
": > : z z @ l l : ; l ; : : ; : : z > : z z @ z z ; : z ; : : z : : : z z @ z z ; ; l > : : : : ; l ; ; l c @ l l ; ; l ; ; ; l ",
": : : = l @ l = ; : : ; : : = : = : : : = z @ z = : : : ; ; : = : : : = l @ l = ; : : : : : = : ; ; ; ; = l @ l = : : : ; ; : = ",
": : = = = @ = = = : : ; : = = ; > : : = = = @ = = = : = = ; : : > : = = = @ = = = ; ; : : = = : ; ; ; = = = @ = = = : = = ; : ; ",
"; = = = = @ = = = = : = = = = = = : = = = = @ = = = = = = ; = ; 9 ; = = = @ = = = = : = = = = = = ; = = = = @ = = = = = = = = = ",
"= = = ; @ @ @ = = = = = = = = = = = = = = @ @ @ = = = = = = ; : > > > ; % % % = = = = = = = = = = = = = = @ @ @ = = = = = = = = ",
"@ @ @ @ @ @ @ @ @ @ @ @ @ @ @ @ @ @ @ @ @ @ @ @ @ @ @ % = & & * , , , * , % % % @ @ @ @ @ @ @ @ @ + @ @ + @ @ @ @ @ @ @ @ @ @ @ ",
"l l z z z z z z l l l l l @ @ @ l l z z z z z l l c z v * , 1 N P P P M M m v c l l c l l @ @ @ d l l l l c c l l l r c @ @ @ l ",
"l l l z : z z z ; c c l l l @ l l l z z c ; c l l z c n M 4 I S Y Y N I b M m c : c l l l c @ l l c l l l ; c l c l l l l @ l l ",
"; ; l : : ; z ; ; ; ; : ; l @ l : : z : ; ; ; l : : q m P 7 w . W G & X d a m q : ; ; ; ; l @ l ; : l : ; ; ; l ; ; ; l l @ l l ",
"= ; : : : : ; ; 3 > : = ; ; @ : : : ; : ; = ; ; : : 9 e Y i @ A ....Q 1 % x a 0 : ; ; = ; ; @ ; ; : : ; : = ; : : : = = l @ l = ",
"= = = = : : = = = = = = = = @ = = = = = = = = = = > 0 x T L K 5.5.=.o.! b b e 8 ; ; = = = = @ = = = = = = = = = = = = = = @ = = ",
"= = = = = = = = = = = = = @ @ @ = = = = = = = = ; 3 p D ( 2.q.7.7.e.0.+.! C z : ; = = = = @ @ @ = = = = = = = = = = = = @ @ @ = ",
"@ @ @ @ @ @ @ @ @ @ @ @ @ @ @ @ @ @ @ @ @ @ @ @ % < 7 L { L X O X @ ( 4._ A 6 - @ @ @ @ @ @ @ @ @ @ @ @ @ @ @ @ @ @ @ @ @ @ @ @ ",
"l z z z l @ @ @ l l l l z z z z l r l @ @ @ l l c B ^ 1.[ 3 t.k.l.t.2 k 9.L i , c c l c l l l l l l l @ @ @ l c l l l l l l l l ",
"; z z l l l @ l l l z z z : ; z l c l l @ l l l n P | 9.6  .v.v.M.M.j.@ 9.:.g M c c l l l ; ; c l l l l @ l l l l l l l c l c ; ",
": : z : l l @ c l : z : : : : : c ; c l @ c c : q I ^ 6.X p.v.v.n.m.n.R Q <.h M c : c ; ; ; ; : l : r l @ l l : : c ; : : l ; ; ",
"= = : : = l @ r = : : : ; = = : ; ; = l @ l = : q b ~ 5.* ;.v.v.v.v.v.-.k <.j M ; ; ; ; ; = = : : : = c @ l = : : : : = ; ; ; = ",
": : : = = = @ = = = ; : = = : : ; = = = @ = = = q b E =.] t l.v.v.v.c.V K X.g e ; = ; ; = = : : : = = = @ = = = : ; = = = : : : ",
": : = = = = @ = = = = = = = = = = = = = @ = = = ; r D &.u.1 T h.k.i.R + #.! i 0 ; = = = = = = = = = = = @ = = = = = = = = = = = ",
"= = = = = @ @ @ = = = = = = = = = = = @ @ @ = ; > r S X.u.f.& X % 6 L >.o.k 4 , ; = = = = = = = = = = @ @ @ = = = = = = = = = = ",
"@ @ @ @ @ @ @ @ @ @ @ @ @ @ @ @ @ @ @ @ @ @ @ @ & 4 h _ q.q.$ 7 g.z.r.%.H i 1 % # @ @ @ @ @ @ @ @ @ @ @ @ @ @ @ @ @ @ @ @ @ @ @ ",
"l l l l c l l l z @ @ @ z z z z z l l l l l l v n I k _ ( &   * k s.u.,.^ I m c l @ @ @ l l l l l l l l c l l l c l @ @ @ l l l ",
"l l : l r l l d z z @ z z z : z z l l l l l c : m U | _ $ i O 7.X ' <.@.^ P m c c l @ l l l ; l l l r c l l l ; l l l @ l l l l ",
"l : : : : l : : z z @ z z : : : : l : : : l : w r Y O.h # >.X d.) $ ` ` G B e 9 c l @ l l ; : ; ; c ; ; : l ; : ; c l @ l l : : ",
": : = : : = : ; : z @ z : ; = ; : : : : : = : q a S O.1 s 4.X w.a.h . u S a r q : l @ c ; ; ; ; ; : : : ; = : : ; ; r @ c : : : ",
": = = : ; ; = : : = @ = : ; : = : : = = : : ; w d S ~ # ) 8.$ ) u.5.A % , d q q : = @ = : : : = ; : = = : : = : ; ; = @ = : : ; ",
"= = : : = ; ; ; = = @ = = : : : : = = : : : = > a b W . *.0.g & q.6.=.Q b b r 0 = = @ = = ; : : ; = = : : : = = ; = = @ = = : = ",
"= = = = = = ; = = ; @ = = = : = = = = = > = ; > w a b X $.6.[   @ Q &./ D a r ; ; = @ = = = : = = = = = : = = = = = = # = = = = ",
"= = = = = = = = = @ @ @ = = = = = = = = = = = 3 0 a 7 * _ =.~ & g @ Q / D a 9 ; ; @ @ @ = = = = = = = = = = = = = = # @ @ = = = ",
"@ @ @ @ @ @ @ @ @ @ @ @ @ @ @ @ % @ @ @ @ @ % % - 4 i k ( ] 6 6 2.g @ H k 7 < % % @ @ @ @ @ @ @ @ @ @ @ @ @ @ @ @ # + @ @ @ @ @ ",
"l l l l @ @ @ l z z z z z z z z l l z z l @ @ % v M U } O.*.& F 9.=.O h k 7 1 v z z z z l l l l l l l l l @ @ @ l l c l c l l l ",
"l ; l c l @ l l z z z z z z : z l l l l z z @ z n M U } O.G . +.1.$.G O | i N n c z z z c l ; r c l l l l l @ l l l c l l ; c l ",
": : : l l @ l l : : z : : : : ; > l : : z z @ c n a b } ~ & 5 @...| / . U i P n 9 : l 3 : ; ; ; : l ; ; l l @ l l : ; l ; ; ; l ",
"; ; ; = l @ l = ; : : 8 : ; = ; = : ; > = z @ c 8 x S G 5 % W E ~ U W @ d 7 M 9 9 : ; ; ; ; = ; = ; ; : = d @ l = : : : ; : ; = ",
"; ; = = = @ = = = ; : : : = = ; ; : : = = = @ > 9 e S y   u E G S S b & - 6 0 ; > : ; > ; = = ; ; : ; = = = @ = = = : = = : ; ; ",
"; - = = = @ = = = = ; = = = = = = : = = = = @ > 9 e 0 . y C b x d e p e w 1 0 ; = = > = ; = = = = ; = = = = @ = = = = = = = = = ",
"= = = = @ @ @ = = = = = = = = = = = = = = @ @ % 3 w p w x x p 0 0 9 0 0 , , & ; ; = = = = = = = = = = = = @ @ O = = = = = = = = ",
"@ @ @ @ @ @ @ @ @ @ @ @ @ @ @ @ @ @ @ @ @ @ @ % % , 1 1 4 < , * - % & % & & & @ @ @ @ @ @ @ @ @ @ O @ @ @ @ @ @ @ @ @ @ @ @ @ @ ",
"l l l l l l l l z l z z z @ @ @ l l l z z z z c c v n n * * % c c l c c l c l l c l l l l @ @ @ l c l c l l l l l l l l @ @ @ l ",
"l l l l ; c l l : z z z z z @ z l l c r z : z z c c c c v % z z l l c l ; c r l ; l l l l l @ l r c l l l ; l l c l l c c @ l l ",
"; ; c ; : ; l ; : ; : : 3 z @ z ; ; l : : : : z ; : : l z @ z z ; ; l ; ; ; c : : : ; : : l @ l ; ; l ; : ; ; l ; ; : l l + c l ",
"= ; ; ; ; : ; ; : : ; = ; : @ : ; ; ; : ; = : : : : = = z @ z = = ; ; ; : : : ; ; : ; = ; : # : ; : ; : : = : : ; ; = = l @ l = ",
"= = = = ; ; = = = = = = = = @ = = = = = = = = = = = = = = @ = = = = = = : : = = = = = = = = @ = = = = = = = = = = = = = = @ = = ",
"= = = = ; = = = = = = = = @ @ @ = = = = = = = = = = = = @ @ @ = = = = = = = = = = = = = = @ @ # = = = = = = = = = = = = @ @ @ = ",
"@ @ @ @ @ O @ @ @ @ @ @ @ @ @ @ @ @ @ @ @ @ @ @ @ @ @ @ @ @ @ @ @ @ @ @ @ @ @ @ @ @ @ @ @ @ @ # @ @ @ @ @ @ @ @ @ @ @ @ @ @ @ @ ",
"z z z z z @ @ @ l z z z z z z z z z z @ @ @ z z z z z l l l l c l l l l l @ @ @ l l l d l l l l c l c + @ + l l l l l l l l l c ",
"; z z z z l @ z z z z l z : : z z z z z @ z z z z l z l l l l ; : l l l l l @ l c l l l l ; ; l l l l l @ c l l l l r c l l l ; ",
": : z : z z @ z z : l : : ; ; : z : z z @ z z : : z : : ; l ; ; : : l : z z @ z l : l ; ; ; ; : l ; c l @ c c ; ; c ; ; : l ; : ",
"= = ; : = z @ z = : > : : = = : ; ; = z @ z = ; : : : = ; : ; = = = : : = z @ z = : : : ; = = ; ; ; = l @ l = : ; : ; = : : : = ",
"; : : = = = @ = = = : 8 = = ; : ; = = = @ = = = : ; = = = ; ; ; > : ; = = = @ = = = ; : = = ; ; ; = = = @ = = = : ; = = = ; : : ",
": ; = = = = @ = = = = = = = = = = = = = @ = = = ; = = = = = = = ; ; = = = ; @ = = = = = = = = = = = = = @ = = = = = = = = = = = ",
"= = = = = @ @ @ = = = = = = = = = = = @ @ @ = = = = = = ; = = = = = = = = @ @ @ = = = = = = = = = = = @ @ @ = = = = = = = = = = ",
"@ @ @ @ @ @ @ @ @ @ @ @ @ @ @ @ @ @ @ @ @ @ @ @ @ @ @ @ @ @ @ @ @ @ @ @ @ @ @ @ @ @ @ @ @ @ @ @ @ @ @ @ @ @ @ @ @ @ @ @ @ @ @ @ "
};
