/* XPM */
static char *_2680afeb62e404cd8bef6026920fe34uOgGELHzuS6jWO9W[] = {
/* columns rows colors chars-per-pixel */
"80 80 36 1 ",
"  c None",
". c #1E2F3B",
"X c #333C3F",
"o c #713030",
"O c #3C494D",
"+ c #2E4453",
"@ c #4B4747",
"# c #4B4B4B",
"$ c #414E53",
"% c #445358",
"& c #4C5A5F",
"* c #515151",
"= c #5C5959",
"- c #5D5D5D",
"; c #56666C",
": c #586A71",
"> c gray40",
", c #6E6B6B",
"< c gray46",
"1 c #7C7C7C",
"2 c #883636",
"3 c #667980",
"4 c #838282",
"5 c gray52",
"6 c #888888",
"7 c gray61",
"8 c #9E9D9D",
"9 c #929CA0",
"0 c #A0A0A0",
"q c gray64",
"w c #A4AEB2",
"e c gray71",
"r c gray76",
"t c gray79",
"y c #E2E2E2",
"u c #F6F4F4",
/* pixels */
"                                                                                ",
"                                                                                ",
"                                                                                ",
"                                                                                ",
"                                                                                ",
"                                                                                ",
"                                                                                ",
"                   tt                                                           ",
"                    ttt                                                         ",
"                      ttt                                                       ",
"                       tttt                                                     ",
"                         tttt                                                   ",
"                           t6tt                                                 ",
"                            tt6ttt   788                                        ",
"                              r666rr86888                                       ",
"                               tt667666688                                      ",
"                                 t866666688                                     ",
"                                 q66@@666668                                    ",
"                                 q6688@@6666   &                                ",
"                                 q666688@@@6tt &                                ",
"                                 -66,666666666&O                                ",
"                                 u---6,046t66&&O                                ",
"                                uy222--<,2 t6&&&>>>>                            ",
"                                yy77222--2=>1&OO###>                            ",
"                               u777>322222=>>1  >##&                            ",
"                              u777>>333223==>1 >>#O&&&                          ",
"                             u777>&&333333 =>>1>## OOO                          ",
"                           77*7>>e+&&33&33  =##>#                               ",
"                           77*>eye++&&&&&&  =>>#                                ",
"                          7***yeee++2&&&&    ==                                 ",
"                         777>yyeee++222+                                        ",
"                       7>77>>  eee+.22o.                                        ",
"                    777>7>>>     ..ooo.wwww                                     ",
"                   7>7>>>>      w999oo99wwww                                    ",
"                  57>7>>      wwww9993XX999ww                                   ",
"                  57>        wwww99X333$XXX9ww                                  ",
"                  >          www99X;333&$$$X99w                                 ",
"                           wwww99X;33&&&&&&$XX9w                                ",
"                          wwww99X;;;$$$&&&&&$$X9w                               ",
"                          www99X;3;  $$$$&&&&&$X9w                              ",
"                         www99X;3;;    $$$$&&&&$9w                              ",
"                         ww99X;3;;      $$$$&&&&&                               ",
"                        ww99X;3;;         $$$$&&X&&                             ",
"                        w99X;3;;            $$XX&&&&                            ",
"                         XX;X;;                $X&&&                            ",
"                        X3;;X                   $XXXX                           ",
"                       3:XX;                     $$&&&                          ",
"                      33:::                      $$$&&                          ",
"                     33:;;                        $$$&&                         ",
"                    333;;                          $$$&&                        ",
"                    3;;;                             $&&                        ",
"                   33;                                $$&                       ",
"                  XXX                                  X&&                      ",
"                 33;;                                   XX                      ",
"                333;                                    %&&                     ",
"                33;;                                    %%&&                    ",
"               333;                                     %%%&&                   ",
"               ;;;;                                     %%%%&&                  ",
"                                                                                ",
"                                                                                ",
"                                                                                ",
"                                                                                ",
"                                                                                ",
"                                                                                ",
"                                                                                ",
"                                                                                ",
"                                                                                ",
"                                                                                ",
"                                                                                ",
"                                                                                ",
"                                                                                ",
"                                                                                ",
"                                                                                ",
"                                                                                ",
"                                                                                ",
"                                                                                ",
"                                                                                ",
"                                                                                ",
"                                                                                ",
"                                                                                "
};
