/* XPM */
static char *_6bf246bfaba4156a6b4982508dada43wQxIbzPl677EgAVr_2[] = {
/* columns rows colors chars-per-pixel */
"15 21 32 1 ",
"  c None",
". c #553A3A",
"X c #82604F",
"o c #715148",
"O c #634440",
"+ c #402E30",
"@ c #DEA48A",
"# c #4B555E",
"$ c #BA8A79",
"% c #785A53",
"& c #753030",
"* c #8C3430",
"= c #783A3D",
"- c #B35249",
"; c #A14343",
": c #8A3E3E",
"> c #323942",
", c #4B6275",
"< c #28282B",
"1 c #1C1C1F",
"2 c #2C2C30",
"3 c #393940",
"4 c black",
"5 c black",
"6 c black",
"7 c black",
"8 c black",
"9 c black",
"0 c black",
"q c black",
"w c black",
"e c black",
/* pixels */
"     ....      ",
"   ..XooO++    ",
"  .XXo....O+   ",
" .XXooo..ooO+  ",
" .XooOOOoOoo+  ",
" .ooOoOOoOOoO+ ",
" +oO.Xo.Xo.oo+ ",
"+.OO...@....+  ",
"+o.O.@#@@@#$.+ ",
"+.O.@@#@@@#%.+ ",
" &*%@@@@@@@%*& ",
"+oO+%%$$$%%%Oo+",
"+++=-----;;=%%+",
" =--------;;@@%",
"%@@-:-----==@@%",
"%@@:------= %% ",
" %%=;;;;;;=    ",
"    >,,,<1     ",
"     1231      ",
"               ",
"               "
};
